<?xml version="1.0" encoding="UTF-8" standalone="no"?>
<!DOCTYPE svg PUBLIC "-//W3C//DTD SVG 1.1//EN"
 "http://www.w3.org/Graphics/SVG/1.1/DTD/svg11.dtd">
<!-- Generated by graphviz version 2.40.1 (20161225.0304)
 -->
<!-- Title: ingress Pages: 1 -->
<svg width="258pt" height="2090pt"
 viewBox="0.00 0.00 258.00 2089.80" xmlns="http://www.w3.org/2000/svg" xmlns:xlink="http://www.w3.org/1999/xlink">
<g id="graph0" class="graph" transform="scale(1 1) rotate(0) translate(4 2085.8)">
<title>ingress</title>
<polygon fill="#ffffff" stroke="transparent" points="-4,4 -4,-2085.8 254,-2085.8 254,4 -4,4"/>
<g id="clust1" class="cluster">
<title>cluster</title>
<polygon fill="none" stroke="#000000" stroke-width="2" points="8,-8 8,-2073.8 242,-2073.8 242,-8 8,-8"/>
</g>
<!-- 0 -->
<g id="node1" class="node">
<title>0</title>
<polygon fill="none" stroke="#000000" points="169.3316,-2065.8 80.6684,-2065.8 80.6684,-2029.8 169.3316,-2029.8 169.3316,-2065.8"/>
<text text-anchor="middle" x="125" y="-2043.6" font-family="Times,serif" font-size="14.00" fill="#000000">__START__</text>
</g>
<!-- 2 -->
<g id="node3" class="node">
<title>2</title>
<ellipse fill="none" stroke="#000000" cx="125" cy="-1936.8" rx="70.0828" ry="18"/>
<text text-anchor="middle" x="125" y="-1932.6" font-family="Times,serif" font-size="14.00" fill="#000000">table_hash_init</text>
</g>
<!-- 0&#45;&gt;2 -->
<g id="edge1" class="edge">
<title>0&#45;&gt;2</title>
<path fill="none" stroke="#000000" d="M125,-2029.4706C125,-2012.0373 125,-1985.5482 125,-1965.3489"/>
<polygon fill="#000000" stroke="#000000" points="128.5001,-1965.1566 125,-1955.1566 121.5001,-1965.1567 128.5001,-1965.1566"/>
</g>
<!-- 1 -->
<g id="node2" class="node">
<title>1</title>
<polygon fill="none" stroke="#000000" points="122.8725,-52 47.1275,-52 47.1275,-16 122.8725,-16 122.8725,-52"/>
<text text-anchor="middle" x="85" y="-29.8" font-family="Times,serif" font-size="14.00" fill="#000000">__EXIT__</text>
</g>
<!-- 3 -->
<g id="node4" class="node">
<title>3</title>
<ellipse fill="none" stroke="#000000" cx="125" cy="-1825.8" rx="96.6965" ry="18"/>
<text text-anchor="middle" x="125" y="-1821.6" font-family="Times,serif" font-size="14.00" fill="#000000">table_sketch_one_key</text>
</g>
<!-- 2&#45;&gt;3 -->
<g id="edge2" class="edge">
<title>2&#45;&gt;3</title>
<path fill="none" stroke="#000000" d="M125,-1918.4706C125,-1901.0373 125,-1874.5482 125,-1854.3489"/>
<polygon fill="#000000" stroke="#000000" points="128.5001,-1854.1566 125,-1844.1566 121.5001,-1854.1567 128.5001,-1854.1566"/>
</g>
<!-- 4 -->
<g id="node5" class="node">
<title>4</title>
<ellipse fill="none" stroke="#000000" cx="125" cy="-1714.8" rx="103.6373" ry="18"/>
<text text-anchor="middle" x="125" y="-1710.6" font-family="Times,serif" font-size="14.00" fill="#000000">table_sketch_one_value</text>
</g>
<!-- 3&#45;&gt;4 -->
<g id="edge3" class="edge">
<title>3&#45;&gt;4</title>
<path fill="none" stroke="#000000" d="M125,-1807.4706C125,-1790.0373 125,-1763.5482 125,-1743.3489"/>
<polygon fill="#000000" stroke="#000000" points="128.5001,-1743.1566 125,-1733.1566 121.5001,-1743.1567 128.5001,-1743.1566"/>
</g>
<!-- 5 -->
<g id="node6" class="node">
<title>5</title>
<ellipse fill="none" stroke="#000000" cx="125" cy="-1603.8" rx="89.207" ry="18"/>
<text text-anchor="middle" x="125" y="-1599.6" font-family="Times,serif" font-size="14.00" fill="#000000">table_hash_init_two</text>
</g>
<!-- 4&#45;&gt;5 -->
<g id="edge4" class="edge">
<title>4&#45;&gt;5</title>
<path fill="none" stroke="#000000" d="M125,-1696.4706C125,-1679.0373 125,-1652.5482 125,-1632.3489"/>
<polygon fill="#000000" stroke="#000000" points="128.5001,-1632.1566 125,-1622.1566 121.5001,-1632.1567 128.5001,-1632.1566"/>
</g>
<!-- 6 -->
<g id="node7" class="node">
<title>6</title>
<ellipse fill="none" stroke="#000000" cx="125" cy="-1492.8" rx="97.276" ry="18"/>
<text text-anchor="middle" x="125" y="-1488.6" font-family="Times,serif" font-size="14.00" fill="#000000">table_sketch_two_key</text>
</g>
<!-- 5&#45;&gt;6 -->
<g id="edge5" class="edge">
<title>5&#45;&gt;6</title>
<path fill="none" stroke="#000000" d="M125,-1585.4706C125,-1568.0373 125,-1541.5482 125,-1521.3489"/>
<polygon fill="#000000" stroke="#000000" points="128.5001,-1521.1566 125,-1511.1566 121.5001,-1521.1567 128.5001,-1521.1566"/>
</g>
<!-- 7 -->
<g id="node8" class="node">
<title>7</title>
<ellipse fill="none" stroke="#000000" cx="125" cy="-1381.8" rx="104.2168" ry="18"/>
<text text-anchor="middle" x="125" y="-1377.6" font-family="Times,serif" font-size="14.00" fill="#000000">table_sketch_two_value</text>
</g>
<!-- 6&#45;&gt;7 -->
<g id="edge6" class="edge">
<title>6&#45;&gt;7</title>
<path fill="none" stroke="#000000" d="M125,-1474.4706C125,-1457.0373 125,-1430.5482 125,-1410.3489"/>
<polygon fill="#000000" stroke="#000000" points="128.5001,-1410.1566 125,-1400.1566 121.5001,-1410.1567 128.5001,-1410.1566"/>
</g>
<!-- 8 -->
<g id="node9" class="node">
<title>8</title>
<ellipse fill="none" stroke="#000000" cx="125" cy="-1270.8" rx="102.4101" ry="18"/>
<text text-anchor="middle" x="125" y="-1266.6" font-family="Times,serif" font-size="14.00" fill="#000000">table_sketch_three_key</text>
</g>
<!-- 7&#45;&gt;8 -->
<g id="edge7" class="edge">
<title>7&#45;&gt;8</title>
<path fill="none" stroke="#000000" d="M125,-1363.4706C125,-1346.0373 125,-1319.5482 125,-1299.3489"/>
<polygon fill="#000000" stroke="#000000" points="128.5001,-1299.1566 125,-1289.1566 121.5001,-1299.1567 128.5001,-1299.1566"/>
</g>
<!-- 9 -->
<g id="node10" class="node">
<title>9</title>
<ellipse fill="none" stroke="#000000" cx="125" cy="-1159.8" rx="109.3507" ry="18"/>
<text text-anchor="middle" x="125" y="-1155.6" font-family="Times,serif" font-size="14.00" fill="#000000">table_sketch_three_value</text>
</g>
<!-- 8&#45;&gt;9 -->
<g id="edge8" class="edge">
<title>8&#45;&gt;9</title>
<path fill="none" stroke="#000000" d="M125,-1252.4706C125,-1235.0373 125,-1208.5482 125,-1188.3489"/>
<polygon fill="#000000" stroke="#000000" points="128.5001,-1188.1566 125,-1178.1566 121.5001,-1188.1567 128.5001,-1188.1566"/>
</g>
<!-- 10 -->
<g id="node11" class="node">
<title>10</title>
<ellipse fill="none" stroke="#000000" cx="125" cy="-1048.8" rx="98.982" ry="18"/>
<text text-anchor="middle" x="125" y="-1044.6" font-family="Times,serif" font-size="14.00" fill="#000000">table_sketch_four_key</text>
</g>
<!-- 9&#45;&gt;10 -->
<g id="edge9" class="edge">
<title>9&#45;&gt;10</title>
<path fill="none" stroke="#000000" d="M125,-1141.4706C125,-1124.0373 125,-1097.5482 125,-1077.3489"/>
<polygon fill="#000000" stroke="#000000" points="128.5001,-1077.1566 125,-1067.1566 121.5001,-1077.1567 128.5001,-1077.1566"/>
</g>
<!-- 11 -->
<g id="node12" class="node">
<title>11</title>
<ellipse fill="none" stroke="#000000" cx="125" cy="-937.8" rx="105.9228" ry="18"/>
<text text-anchor="middle" x="125" y="-933.6" font-family="Times,serif" font-size="14.00" fill="#000000">table_sketch_four_value</text>
</g>
<!-- 10&#45;&gt;11 -->
<g id="edge10" class="edge">
<title>10&#45;&gt;11</title>
<path fill="none" stroke="#000000" d="M125,-1030.4706C125,-1013.0373 125,-986.5482 125,-966.3489"/>
<polygon fill="#000000" stroke="#000000" points="128.5001,-966.1566 125,-956.1566 121.5001,-966.1567 128.5001,-966.1566"/>
</g>
<!-- 12 -->
<g id="node13" class="node">
<title>12</title>
<ellipse fill="none" stroke="#000000" cx="125" cy="-826.8" rx="97.8363" ry="18"/>
<text text-anchor="middle" x="125" y="-822.6" font-family="Times,serif" font-size="14.00" fill="#000000">table_sketch_five_key</text>
</g>
<!-- 11&#45;&gt;12 -->
<g id="edge11" class="edge">
<title>11&#45;&gt;12</title>
<path fill="none" stroke="#000000" d="M125,-919.4706C125,-902.0373 125,-875.5482 125,-855.3489"/>
<polygon fill="#000000" stroke="#000000" points="128.5001,-855.1566 125,-845.1566 121.5001,-855.1567 128.5001,-855.1566"/>
</g>
<!-- 13 -->
<g id="node14" class="node">
<title>13</title>
<ellipse fill="none" stroke="#000000" cx="125" cy="-715.8" rx="104.7771" ry="18"/>
<text text-anchor="middle" x="125" y="-711.6" font-family="Times,serif" font-size="14.00" fill="#000000">table_sketch_five_value</text>
</g>
<!-- 12&#45;&gt;13 -->
<g id="edge12" class="edge">
<title>12&#45;&gt;13</title>
<path fill="none" stroke="#000000" d="M125,-808.4706C125,-791.0373 125,-764.5482 125,-744.3489"/>
<polygon fill="#000000" stroke="#000000" points="128.5001,-744.1566 125,-734.1566 121.5001,-744.1567 128.5001,-744.1566"/>
</g>
<!-- 14 -->
<g id="node15" class="node">
<title>14</title>
<ellipse fill="none" stroke="#000000" cx="125" cy="-604.8" rx="94.3408" ry="18"/>
<text text-anchor="middle" x="125" y="-600.6" font-family="Times,serif" font-size="14.00" fill="#000000">table_hash_init_three</text>
</g>
<!-- 13&#45;&gt;14 -->
<g id="edge13" class="edge">
<title>13&#45;&gt;14</title>
<path fill="none" stroke="#000000" d="M125,-697.4706C125,-680.0373 125,-653.5482 125,-633.3489"/>
<polygon fill="#000000" stroke="#000000" points="128.5001,-633.1566 125,-623.1566 121.5001,-633.1567 128.5001,-633.1566"/>
</g>
<!-- 15 -->
<g id="node16" class="node">
<title>15</title>
<ellipse fill="none" stroke="#000000" cx="125" cy="-493.8" rx="90.9129" ry="18"/>
<text text-anchor="middle" x="125" y="-489.6" font-family="Times,serif" font-size="14.00" fill="#000000">table_hash_init_four</text>
</g>
<!-- 14&#45;&gt;15 -->
<g id="edge14" class="edge">
<title>14&#45;&gt;15</title>
<path fill="none" stroke="#000000" d="M125,-586.4706C125,-569.0373 125,-542.5482 125,-522.3489"/>
<polygon fill="#000000" stroke="#000000" points="128.5001,-522.1566 125,-512.1566 121.5001,-522.1567 128.5001,-522.1566"/>
</g>
<!-- 16 -->
<g id="node17" class="node">
<title>16</title>
<ellipse fill="none" stroke="#000000" cx="125" cy="-382.8" rx="89.7672" ry="18"/>
<text text-anchor="middle" x="125" y="-378.6" font-family="Times,serif" font-size="14.00" fill="#000000">table_hash_init_five</text>
</g>
<!-- 15&#45;&gt;16 -->
<g id="edge15" class="edge">
<title>15&#45;&gt;16</title>
<path fill="none" stroke="#000000" d="M125,-475.4706C125,-458.0373 125,-431.5482 125,-411.3489"/>
<polygon fill="#000000" stroke="#000000" points="128.5001,-411.1566 125,-401.1566 121.5001,-411.1567 128.5001,-411.1566"/>
</g>
<!-- 17 -->
<g id="node18" class="node">
<title>17</title>
<polygon fill="none" stroke="#000000" points="216.9054,-289.8 33.0946,-289.8 33.0946,-253.8 216.9054,-253.8 216.9054,-289.8"/>
<text text-anchor="middle" x="125" y="-267.6" font-family="Times,serif" font-size="14.00" fill="#000000">meta.cheetah_md.prune == 1;</text>
</g>
<!-- 16&#45;&gt;17 -->
<g id="edge16" class="edge">
<title>16&#45;&gt;17</title>
<path fill="none" stroke="#000000" d="M125,-364.4706C125,-347.0373 125,-320.5482 125,-300.3489"/>
<polygon fill="#000000" stroke="#000000" points="128.5001,-300.1566 125,-290.1566 121.5001,-300.1567 128.5001,-300.1566"/>
</g>
<!-- 17&#45;&gt;1 -->
<g id="edge18" class="edge">
<title>17&#45;&gt;1</title>
<path fill="none" stroke="#000000" d="M80.079,-253.5511C62.7402,-243.3005 47,-228.4684 47,-208.4 47,-208.4 47,-208.4 47,-89.5 47,-78.9902 51.6967,-69.0105 57.7876,-60.4872"/>
<polygon fill="#000000" stroke="#000000" points="60.6839,-62.4706 64.2211,-52.4836 55.228,-58.085 60.6839,-62.4706"/>
<text text-anchor="middle" x="68.3885" y="-140.8" font-family="Times,serif" font-size="14.00" fill="#000000">FALSE</text>
</g>
<!-- 18 -->
<g id="node19" class="node">
<title>18</title>
<ellipse fill="none" stroke="#000000" cx="164" cy="-145" rx="56.7426" ry="18"/>
<text text-anchor="middle" x="164" y="-140.8" font-family="Times,serif" font-size="14.00" fill="#000000">table_prune</text>
</g>
<!-- 17&#45;&gt;18 -->
<g id="edge17" class="edge">
<title>17&#45;&gt;18</title>
<path fill="none" stroke="#000000" d="M130.5877,-253.6327C137.0749,-232.5411 147.8483,-197.5136 155.4036,-172.9494"/>
<polygon fill="#000000" stroke="#000000" points="158.8281,-173.7207 158.4226,-163.1336 152.1374,-171.6628 158.8281,-173.7207"/>
<text text-anchor="middle" x="164.2742" y="-204.2" font-family="Times,serif" font-size="14.00" fill="#000000">TRUE</text>
</g>
<!-- 18&#45;&gt;1 -->
<g id="edge19" class="edge">
<title>18&#45;&gt;1</title>
<path fill="none" stroke="#000000" d="M151.3073,-127.1659C138.4841,-109.1486 118.5243,-81.1037 103.8519,-60.4881"/>
<polygon fill="#000000" stroke="#000000" points="106.5737,-58.2763 97.9237,-52.1586 100.8707,-62.3353 106.5737,-58.2763"/>
</g>
</g>
</svg>
