<?xml version="1.0" encoding="UTF-8" standalone="no"?>
<!DOCTYPE svg PUBLIC "-//W3C//DTD SVG 1.1//EN"
 "http://www.w3.org/Graphics/SVG/1.1/DTD/svg11.dtd">
<!-- Generated by graphviz version 2.40.1 (20161225.0304)
 -->
<!-- Title: ingress Pages: 1 -->
<svg width="258pt" height="1300pt"
 viewBox="0.00 0.00 258.00 1300.00" xmlns="http://www.w3.org/2000/svg" xmlns:xlink="http://www.w3.org/1999/xlink">
<g id="graph0" class="graph" transform="scale(1 1) rotate(0) translate(4 1296)">
<title>ingress</title>
<polygon fill="#ffffff" stroke="transparent" points="-4,4 -4,-1296 254,-1296 254,4 -4,4"/>
<g id="clust1" class="cluster">
<title>cluster</title>
<polygon fill="none" stroke="#000000" stroke-width="2" points="8,-8 8,-1284 242,-1284 242,-8 8,-8"/>
</g>
<!-- 0 -->
<g id="node1" class="node">
<title>0</title>
<polygon fill="none" stroke="#000000" points="169.3316,-1276 80.6684,-1276 80.6684,-1240 169.3316,-1240 169.3316,-1276"/>
<text text-anchor="middle" x="125" y="-1253.8" font-family="Times,serif" font-size="14.00" fill="#000000">__START__</text>
</g>
<!-- 2 -->
<g id="node3" class="node">
<title>2</title>
<ellipse fill="none" stroke="#000000" cx="125" cy="-1186" rx="70.0828" ry="18"/>
<text text-anchor="middle" x="125" y="-1181.8" font-family="Times,serif" font-size="14.00" fill="#000000">table_hash_init</text>
</g>
<!-- 0&#45;&gt;2 -->
<g id="edge1" class="edge">
<title>0&#45;&gt;2</title>
<path fill="none" stroke="#000000" d="M125,-1239.8314C125,-1232.131 125,-1222.9743 125,-1214.4166"/>
<polygon fill="#000000" stroke="#000000" points="128.5001,-1214.4132 125,-1204.4133 121.5001,-1214.4133 128.5001,-1214.4132"/>
</g>
<!-- 1 -->
<g id="node2" class="node">
<title>1</title>
<polygon fill="none" stroke="#000000" points="162.8725,-52 87.1275,-52 87.1275,-16 162.8725,-16 162.8725,-52"/>
<text text-anchor="middle" x="125" y="-29.8" font-family="Times,serif" font-size="14.00" fill="#000000">__EXIT__</text>
</g>
<!-- 3 -->
<g id="node4" class="node">
<title>3</title>
<ellipse fill="none" stroke="#000000" cx="125" cy="-1114" rx="96.6965" ry="18"/>
<text text-anchor="middle" x="125" y="-1109.8" font-family="Times,serif" font-size="14.00" fill="#000000">table_sketch_one_key</text>
</g>
<!-- 2&#45;&gt;3 -->
<g id="edge2" class="edge">
<title>2&#45;&gt;3</title>
<path fill="none" stroke="#000000" d="M125,-1167.8314C125,-1160.131 125,-1150.9743 125,-1142.4166"/>
<polygon fill="#000000" stroke="#000000" points="128.5001,-1142.4132 125,-1132.4133 121.5001,-1142.4133 128.5001,-1142.4132"/>
</g>
<!-- 4 -->
<g id="node5" class="node">
<title>4</title>
<ellipse fill="none" stroke="#000000" cx="125" cy="-1042" rx="103.6373" ry="18"/>
<text text-anchor="middle" x="125" y="-1037.8" font-family="Times,serif" font-size="14.00" fill="#000000">table_sketch_one_value</text>
</g>
<!-- 3&#45;&gt;4 -->
<g id="edge3" class="edge">
<title>3&#45;&gt;4</title>
<path fill="none" stroke="#000000" d="M125,-1095.8314C125,-1088.131 125,-1078.9743 125,-1070.4166"/>
<polygon fill="#000000" stroke="#000000" points="128.5001,-1070.4132 125,-1060.4133 121.5001,-1070.4133 128.5001,-1070.4132"/>
</g>
<!-- 5 -->
<g id="node6" class="node">
<title>5</title>
<ellipse fill="none" stroke="#000000" cx="125" cy="-970" rx="89.207" ry="18"/>
<text text-anchor="middle" x="125" y="-965.8" font-family="Times,serif" font-size="14.00" fill="#000000">table_hash_init_two</text>
</g>
<!-- 4&#45;&gt;5 -->
<g id="edge4" class="edge">
<title>4&#45;&gt;5</title>
<path fill="none" stroke="#000000" d="M125,-1023.8314C125,-1016.131 125,-1006.9743 125,-998.4166"/>
<polygon fill="#000000" stroke="#000000" points="128.5001,-998.4132 125,-988.4133 121.5001,-998.4133 128.5001,-998.4132"/>
</g>
<!-- 6 -->
<g id="node7" class="node">
<title>6</title>
<ellipse fill="none" stroke="#000000" cx="125" cy="-898" rx="97.276" ry="18"/>
<text text-anchor="middle" x="125" y="-893.8" font-family="Times,serif" font-size="14.00" fill="#000000">table_sketch_two_key</text>
</g>
<!-- 5&#45;&gt;6 -->
<g id="edge5" class="edge">
<title>5&#45;&gt;6</title>
<path fill="none" stroke="#000000" d="M125,-951.8314C125,-944.131 125,-934.9743 125,-926.4166"/>
<polygon fill="#000000" stroke="#000000" points="128.5001,-926.4132 125,-916.4133 121.5001,-926.4133 128.5001,-926.4132"/>
</g>
<!-- 7 -->
<g id="node8" class="node">
<title>7</title>
<ellipse fill="none" stroke="#000000" cx="125" cy="-826" rx="104.2168" ry="18"/>
<text text-anchor="middle" x="125" y="-821.8" font-family="Times,serif" font-size="14.00" fill="#000000">table_sketch_two_value</text>
</g>
<!-- 6&#45;&gt;7 -->
<g id="edge6" class="edge">
<title>6&#45;&gt;7</title>
<path fill="none" stroke="#000000" d="M125,-879.8314C125,-872.131 125,-862.9743 125,-854.4166"/>
<polygon fill="#000000" stroke="#000000" points="128.5001,-854.4132 125,-844.4133 121.5001,-854.4133 128.5001,-854.4132"/>
</g>
<!-- 8 -->
<g id="node9" class="node">
<title>8</title>
<ellipse fill="none" stroke="#000000" cx="125" cy="-754" rx="102.4101" ry="18"/>
<text text-anchor="middle" x="125" y="-749.8" font-family="Times,serif" font-size="14.00" fill="#000000">table_sketch_three_key</text>
</g>
<!-- 7&#45;&gt;8 -->
<g id="edge7" class="edge">
<title>7&#45;&gt;8</title>
<path fill="none" stroke="#000000" d="M125,-807.8314C125,-800.131 125,-790.9743 125,-782.4166"/>
<polygon fill="#000000" stroke="#000000" points="128.5001,-782.4132 125,-772.4133 121.5001,-782.4133 128.5001,-782.4132"/>
</g>
<!-- 9 -->
<g id="node10" class="node">
<title>9</title>
<ellipse fill="none" stroke="#000000" cx="125" cy="-682" rx="109.3507" ry="18"/>
<text text-anchor="middle" x="125" y="-677.8" font-family="Times,serif" font-size="14.00" fill="#000000">table_sketch_three_value</text>
</g>
<!-- 8&#45;&gt;9 -->
<g id="edge8" class="edge">
<title>8&#45;&gt;9</title>
<path fill="none" stroke="#000000" d="M125,-735.8314C125,-728.131 125,-718.9743 125,-710.4166"/>
<polygon fill="#000000" stroke="#000000" points="128.5001,-710.4132 125,-700.4133 121.5001,-710.4133 128.5001,-710.4132"/>
</g>
<!-- 10 -->
<g id="node11" class="node">
<title>10</title>
<ellipse fill="none" stroke="#000000" cx="125" cy="-610" rx="98.982" ry="18"/>
<text text-anchor="middle" x="125" y="-605.8" font-family="Times,serif" font-size="14.00" fill="#000000">table_sketch_four_key</text>
</g>
<!-- 9&#45;&gt;10 -->
<g id="edge9" class="edge">
<title>9&#45;&gt;10</title>
<path fill="none" stroke="#000000" d="M125,-663.8314C125,-656.131 125,-646.9743 125,-638.4166"/>
<polygon fill="#000000" stroke="#000000" points="128.5001,-638.4132 125,-628.4133 121.5001,-638.4133 128.5001,-638.4132"/>
</g>
<!-- 11 -->
<g id="node12" class="node">
<title>11</title>
<ellipse fill="none" stroke="#000000" cx="125" cy="-538" rx="105.9228" ry="18"/>
<text text-anchor="middle" x="125" y="-533.8" font-family="Times,serif" font-size="14.00" fill="#000000">table_sketch_four_value</text>
</g>
<!-- 10&#45;&gt;11 -->
<g id="edge10" class="edge">
<title>10&#45;&gt;11</title>
<path fill="none" stroke="#000000" d="M125,-591.8314C125,-584.131 125,-574.9743 125,-566.4166"/>
<polygon fill="#000000" stroke="#000000" points="128.5001,-566.4132 125,-556.4133 121.5001,-566.4133 128.5001,-566.4132"/>
</g>
<!-- 12 -->
<g id="node13" class="node">
<title>12</title>
<ellipse fill="none" stroke="#000000" cx="125" cy="-466" rx="97.8363" ry="18"/>
<text text-anchor="middle" x="125" y="-461.8" font-family="Times,serif" font-size="14.00" fill="#000000">table_sketch_five_key</text>
</g>
<!-- 11&#45;&gt;12 -->
<g id="edge11" class="edge">
<title>11&#45;&gt;12</title>
<path fill="none" stroke="#000000" d="M125,-519.8314C125,-512.131 125,-502.9743 125,-494.4166"/>
<polygon fill="#000000" stroke="#000000" points="128.5001,-494.4132 125,-484.4133 121.5001,-494.4133 128.5001,-494.4132"/>
</g>
<!-- 13 -->
<g id="node14" class="node">
<title>13</title>
<ellipse fill="none" stroke="#000000" cx="125" cy="-394" rx="104.7771" ry="18"/>
<text text-anchor="middle" x="125" y="-389.8" font-family="Times,serif" font-size="14.00" fill="#000000">table_sketch_five_value</text>
</g>
<!-- 12&#45;&gt;13 -->
<g id="edge12" class="edge">
<title>12&#45;&gt;13</title>
<path fill="none" stroke="#000000" d="M125,-447.8314C125,-440.131 125,-430.9743 125,-422.4166"/>
<polygon fill="#000000" stroke="#000000" points="128.5001,-422.4132 125,-412.4133 121.5001,-422.4133 128.5001,-422.4132"/>
</g>
<!-- 14 -->
<g id="node15" class="node">
<title>14</title>
<ellipse fill="none" stroke="#000000" cx="125" cy="-322" rx="94.3408" ry="18"/>
<text text-anchor="middle" x="125" y="-317.8" font-family="Times,serif" font-size="14.00" fill="#000000">table_hash_init_three</text>
</g>
<!-- 13&#45;&gt;14 -->
<g id="edge13" class="edge">
<title>13&#45;&gt;14</title>
<path fill="none" stroke="#000000" d="M125,-375.8314C125,-368.131 125,-358.9743 125,-350.4166"/>
<polygon fill="#000000" stroke="#000000" points="128.5001,-350.4132 125,-340.4133 121.5001,-350.4133 128.5001,-350.4132"/>
</g>
<!-- 15 -->
<g id="node16" class="node">
<title>15</title>
<ellipse fill="none" stroke="#000000" cx="125" cy="-250" rx="90.9129" ry="18"/>
<text text-anchor="middle" x="125" y="-245.8" font-family="Times,serif" font-size="14.00" fill="#000000">table_hash_init_four</text>
</g>
<!-- 14&#45;&gt;15 -->
<g id="edge14" class="edge">
<title>14&#45;&gt;15</title>
<path fill="none" stroke="#000000" d="M125,-303.8314C125,-296.131 125,-286.9743 125,-278.4166"/>
<polygon fill="#000000" stroke="#000000" points="128.5001,-278.4132 125,-268.4133 121.5001,-278.4133 128.5001,-278.4132"/>
</g>
<!-- 16 -->
<g id="node17" class="node">
<title>16</title>
<ellipse fill="none" stroke="#000000" cx="125" cy="-178" rx="89.7672" ry="18"/>
<text text-anchor="middle" x="125" y="-173.8" font-family="Times,serif" font-size="14.00" fill="#000000">table_hash_init_five</text>
</g>
<!-- 15&#45;&gt;16 -->
<g id="edge15" class="edge">
<title>15&#45;&gt;16</title>
<path fill="none" stroke="#000000" d="M125,-231.8314C125,-224.131 125,-214.9743 125,-206.4166"/>
<polygon fill="#000000" stroke="#000000" points="128.5001,-206.4132 125,-196.4133 121.5001,-206.4133 128.5001,-206.4132"/>
</g>
<!-- 17 -->
<g id="node18" class="node">
<title>17</title>
<ellipse fill="none" stroke="#000000" cx="125" cy="-106" rx="56.7426" ry="18"/>
<text text-anchor="middle" x="125" y="-101.8" font-family="Times,serif" font-size="14.00" fill="#000000">table_prune</text>
</g>
<!-- 16&#45;&gt;17 -->
<g id="edge16" class="edge">
<title>16&#45;&gt;17</title>
<path fill="none" stroke="#000000" d="M125,-159.8314C125,-152.131 125,-142.9743 125,-134.4166"/>
<polygon fill="#000000" stroke="#000000" points="128.5001,-134.4132 125,-124.4133 121.5001,-134.4133 128.5001,-134.4132"/>
</g>
<!-- 17&#45;&gt;1 -->
<g id="edge17" class="edge">
<title>17&#45;&gt;1</title>
<path fill="none" stroke="#000000" d="M125,-87.8314C125,-80.131 125,-70.9743 125,-62.4166"/>
<polygon fill="#000000" stroke="#000000" points="128.5001,-62.4132 125,-52.4133 121.5001,-62.4133 128.5001,-62.4132"/>
</g>
</g>
</svg>
