<?xml version="1.0" encoding="UTF-8" standalone="no"?>
<!DOCTYPE svg PUBLIC "-//W3C//DTD SVG 1.1//EN"
 "http://www.w3.org/Graphics/SVG/1.1/DTD/svg11.dtd">
<!-- Generated by graphviz version 2.40.1 (20161225.0304)
 -->
<!-- Title: ingress Pages: 1 -->
<svg width="302pt" height="2106pt"
 viewBox="0.00 0.00 301.78 2105.60" xmlns="http://www.w3.org/2000/svg" xmlns:xlink="http://www.w3.org/1999/xlink">
<g id="graph0" class="graph" transform="scale(1 1) rotate(0) translate(4 2101.6)">
<title>ingress</title>
<polygon fill="#ffffff" stroke="transparent" points="-4,4 -4,-2101.6 297.777,-2101.6 297.777,4 -4,4"/>
<g id="clust1" class="cluster">
<title>cluster</title>
<polygon fill="none" stroke="#000000" stroke-width="2" points="8,-8 8,-2089.6 262,-2089.6 262,-8 8,-8"/>
</g>
<!-- 0 -->
<g id="node1" class="node">
<title>0</title>
<polygon fill="none" stroke="#000000" points="190.3316,-2081.6 101.6684,-2081.6 101.6684,-2045.6 190.3316,-2045.6 190.3316,-2081.6"/>
<text text-anchor="middle" x="146" y="-2059.4" font-family="Times,serif" font-size="14.00" fill="#000000">__START__</text>
</g>
<!-- 2 -->
<g id="node3" class="node">
<title>2</title>
<ellipse fill="none" stroke="#000000" cx="146" cy="-1952.6" rx="70.0828" ry="18"/>
<text text-anchor="middle" x="146" y="-1948.4" font-family="Times,serif" font-size="14.00" fill="#000000">table_hash_init</text>
</g>
<!-- 0&#45;&gt;2 -->
<g id="edge1" class="edge">
<title>0&#45;&gt;2</title>
<path fill="none" stroke="#000000" d="M146,-2045.2706C146,-2027.8373 146,-2001.3482 146,-1981.1489"/>
<polygon fill="#000000" stroke="#000000" points="149.5001,-1980.9566 146,-1970.9566 142.5001,-1980.9567 149.5001,-1980.9566"/>
</g>
<!-- 1 -->
<g id="node2" class="node">
<title>1</title>
<polygon fill="none" stroke="#000000" points="187.8725,-52 112.1275,-52 112.1275,-16 187.8725,-16 187.8725,-52"/>
<text text-anchor="middle" x="150" y="-29.8" font-family="Times,serif" font-size="14.00" fill="#000000">__EXIT__</text>
</g>
<!-- 3 -->
<g id="node4" class="node">
<title>3</title>
<ellipse fill="none" stroke="#000000" cx="146" cy="-1841.6" rx="96.6965" ry="18"/>
<text text-anchor="middle" x="146" y="-1837.4" font-family="Times,serif" font-size="14.00" fill="#000000">table_sketch_one_key</text>
</g>
<!-- 2&#45;&gt;3 -->
<g id="edge2" class="edge">
<title>2&#45;&gt;3</title>
<path fill="none" stroke="#000000" d="M146,-1934.2706C146,-1916.8373 146,-1890.3482 146,-1870.1489"/>
<polygon fill="#000000" stroke="#000000" points="149.5001,-1869.9566 146,-1859.9566 142.5001,-1869.9567 149.5001,-1869.9566"/>
</g>
<!-- 4 -->
<g id="node5" class="node">
<title>4</title>
<ellipse fill="none" stroke="#000000" cx="146" cy="-1730.6" rx="103.6373" ry="18"/>
<text text-anchor="middle" x="146" y="-1726.4" font-family="Times,serif" font-size="14.00" fill="#000000">table_sketch_one_value</text>
</g>
<!-- 3&#45;&gt;4 -->
<g id="edge3" class="edge">
<title>3&#45;&gt;4</title>
<path fill="none" stroke="#000000" d="M146,-1823.2706C146,-1805.8373 146,-1779.3482 146,-1759.1489"/>
<polygon fill="#000000" stroke="#000000" points="149.5001,-1758.9566 146,-1748.9566 142.5001,-1758.9567 149.5001,-1758.9566"/>
</g>
<!-- 5 -->
<g id="node6" class="node">
<title>5</title>
<ellipse fill="none" stroke="#000000" cx="146" cy="-1619.6" rx="89.207" ry="18"/>
<text text-anchor="middle" x="146" y="-1615.4" font-family="Times,serif" font-size="14.00" fill="#000000">table_hash_init_two</text>
</g>
<!-- 4&#45;&gt;5 -->
<g id="edge4" class="edge">
<title>4&#45;&gt;5</title>
<path fill="none" stroke="#000000" d="M146,-1712.2706C146,-1694.8373 146,-1668.3482 146,-1648.1489"/>
<polygon fill="#000000" stroke="#000000" points="149.5001,-1647.9566 146,-1637.9566 142.5001,-1647.9567 149.5001,-1647.9566"/>
</g>
<!-- 6 -->
<g id="node7" class="node">
<title>6</title>
<polygon fill="none" stroke="#000000" points="237.9054,-1526.6 54.0946,-1526.6 54.0946,-1490.6 237.9054,-1490.6 237.9054,-1526.6"/>
<text text-anchor="middle" x="146" y="-1504.4" font-family="Times,serif" font-size="14.00" fill="#000000">meta.cheetah_md.prune == 0;</text>
</g>
<!-- 5&#45;&gt;6 -->
<g id="edge5" class="edge">
<title>5&#45;&gt;6</title>
<path fill="none" stroke="#000000" d="M146,-1601.2706C146,-1583.8373 146,-1557.3482 146,-1537.1489"/>
<polygon fill="#000000" stroke="#000000" points="149.5001,-1536.9566 146,-1526.9566 142.5001,-1536.9567 149.5001,-1536.9566"/>
</g>
<!-- 7 -->
<g id="node8" class="node">
<title>7</title>
<ellipse fill="none" stroke="#000000" cx="136" cy="-1381.8" rx="97.276" ry="18"/>
<text text-anchor="middle" x="136" y="-1377.6" font-family="Times,serif" font-size="14.00" fill="#000000">table_sketch_two_key</text>
</g>
<!-- 6&#45;&gt;7 -->
<g id="edge6" class="edge">
<title>6&#45;&gt;7</title>
<path fill="none" stroke="#000000" d="M144.5672,-1490.4327C142.9113,-1469.4352 140.1661,-1434.6261 138.2302,-1410.079"/>
<polygon fill="#000000" stroke="#000000" points="141.7056,-1409.6275 137.4301,-1399.9336 134.7272,-1410.1779 141.7056,-1409.6275"/>
<text text-anchor="middle" x="159.2742" y="-1441" font-family="Times,serif" font-size="14.00" fill="#000000">TRUE</text>
</g>
<!-- 15 -->
<g id="node16" class="node">
<title>15</title>
<ellipse fill="none" stroke="#000000" cx="150" cy="-478" rx="94.3408" ry="18"/>
<text text-anchor="middle" x="150" y="-473.8" font-family="Times,serif" font-size="14.00" fill="#000000">table_hash_init_three</text>
</g>
<!-- 6&#45;&gt;15 -->
<g id="edge7" class="edge">
<title>6&#45;&gt;15</title>
<path fill="none" stroke="#000000" d="M217.0729,-1490.5754C236.836,-1481.0457 253,-1466.6845 253,-1445.2 253,-1445.2 253,-1445.2 253,-1085.3 253,-947.1409 247,-912.6591 247,-774.5 247,-774.5 247,-774.5 247,-533.5 247,-516.3891 235.4882,-504.4809 220.3961,-496.2214"/>
<polygon fill="#000000" stroke="#000000" points="221.6843,-492.957 211.1564,-491.7683 218.6451,-499.2629 221.6843,-492.957"/>
<text text-anchor="middle" x="272.3885" y="-981.2" font-family="Times,serif" font-size="14.00" fill="#000000">FALSE</text>
</g>
<!-- 8 -->
<g id="node9" class="node">
<title>8</title>
<ellipse fill="none" stroke="#000000" cx="129" cy="-1270.8" rx="104.2168" ry="18"/>
<text text-anchor="middle" x="129" y="-1266.6" font-family="Times,serif" font-size="14.00" fill="#000000">table_sketch_two_value</text>
</g>
<!-- 7&#45;&gt;8 -->
<g id="edge8" class="edge">
<title>7&#45;&gt;8</title>
<path fill="none" stroke="#000000" d="M134.8441,-1363.4706C133.7447,-1346.0373 132.0742,-1319.5482 130.8004,-1299.3489"/>
<polygon fill="#000000" stroke="#000000" points="134.2802,-1298.9165 130.1576,-1289.1566 127.294,-1299.3571 134.2802,-1298.9165"/>
</g>
<!-- 9 -->
<g id="node10" class="node">
<title>9</title>
<ellipse fill="none" stroke="#000000" cx="127" cy="-1159.8" rx="102.4101" ry="18"/>
<text text-anchor="middle" x="127" y="-1155.6" font-family="Times,serif" font-size="14.00" fill="#000000">table_sketch_three_key</text>
</g>
<!-- 8&#45;&gt;9 -->
<g id="edge9" class="edge">
<title>8&#45;&gt;9</title>
<path fill="none" stroke="#000000" d="M128.6697,-1252.4706C128.3556,-1235.0373 127.8783,-1208.5482 127.5144,-1188.3489"/>
<polygon fill="#000000" stroke="#000000" points="131.0104,-1188.0919 127.3307,-1178.1566 124.0116,-1188.2181 131.0104,-1188.0919"/>
</g>
<!-- 10 -->
<g id="node11" class="node">
<title>10</title>
<ellipse fill="none" stroke="#000000" cx="125" cy="-1048.8" rx="109.3507" ry="18"/>
<text text-anchor="middle" x="125" y="-1044.6" font-family="Times,serif" font-size="14.00" fill="#000000">table_sketch_three_value</text>
</g>
<!-- 9&#45;&gt;10 -->
<g id="edge10" class="edge">
<title>9&#45;&gt;10</title>
<path fill="none" stroke="#000000" d="M126.6697,-1141.4706C126.3556,-1124.0373 125.8783,-1097.5482 125.5144,-1077.3489"/>
<polygon fill="#000000" stroke="#000000" points="129.0104,-1077.0919 125.3307,-1067.1566 122.0116,-1077.2181 129.0104,-1077.0919"/>
</g>
<!-- 11 -->
<g id="node12" class="node">
<title>11</title>
<ellipse fill="none" stroke="#000000" cx="123" cy="-922" rx="98.982" ry="18"/>
<text text-anchor="middle" x="123" y="-917.8" font-family="Times,serif" font-size="14.00" fill="#000000">table_sketch_four_key</text>
</g>
<!-- 10&#45;&gt;11 -->
<g id="edge11" class="edge">
<title>10&#45;&gt;11</title>
<path fill="none" stroke="#000000" d="M124.7134,-1030.6327C124.3823,-1009.6352 123.8332,-974.8261 123.446,-950.279"/>
<polygon fill="#000000" stroke="#000000" points="126.9434,-950.0772 123.286,-940.1336 119.9443,-950.1876 126.9434,-950.0772"/>
</g>
<!-- 12 -->
<g id="node13" class="node">
<title>12</title>
<ellipse fill="none" stroke="#000000" cx="122" cy="-811" rx="105.9228" ry="18"/>
<text text-anchor="middle" x="122" y="-806.8" font-family="Times,serif" font-size="14.00" fill="#000000">table_sketch_four_value</text>
</g>
<!-- 11&#45;&gt;12 -->
<g id="edge12" class="edge">
<title>11&#45;&gt;12</title>
<path fill="none" stroke="#000000" d="M122.8349,-903.6706C122.6778,-886.2373 122.4392,-859.7482 122.2572,-839.5489"/>
<polygon fill="#000000" stroke="#000000" points="125.7554,-839.3247 122.1654,-829.3566 118.7557,-839.3878 125.7554,-839.3247"/>
</g>
<!-- 13 -->
<g id="node14" class="node">
<title>13</title>
<ellipse fill="none" stroke="#000000" cx="122" cy="-700" rx="97.8363" ry="18"/>
<text text-anchor="middle" x="122" y="-695.8" font-family="Times,serif" font-size="14.00" fill="#000000">table_sketch_five_key</text>
</g>
<!-- 12&#45;&gt;13 -->
<g id="edge13" class="edge">
<title>12&#45;&gt;13</title>
<path fill="none" stroke="#000000" d="M122,-792.6706C122,-775.2373 122,-748.7482 122,-728.5489"/>
<polygon fill="#000000" stroke="#000000" points="125.5001,-728.3566 122,-718.3566 118.5001,-728.3567 125.5001,-728.3566"/>
</g>
<!-- 14 -->
<g id="node15" class="node">
<title>14</title>
<ellipse fill="none" stroke="#000000" cx="122" cy="-589" rx="104.7771" ry="18"/>
<text text-anchor="middle" x="122" y="-584.8" font-family="Times,serif" font-size="14.00" fill="#000000">table_sketch_five_value</text>
</g>
<!-- 13&#45;&gt;14 -->
<g id="edge14" class="edge">
<title>13&#45;&gt;14</title>
<path fill="none" stroke="#000000" d="M122,-681.6706C122,-664.2373 122,-637.7482 122,-617.5489"/>
<polygon fill="#000000" stroke="#000000" points="125.5001,-617.3566 122,-607.3566 118.5001,-617.3567 125.5001,-617.3566"/>
</g>
<!-- 14&#45;&gt;15 -->
<g id="edge15" class="edge">
<title>14&#45;&gt;15</title>
<path fill="none" stroke="#000000" d="M126.6236,-570.6706C131.0679,-553.0521 137.8454,-526.1843 142.9603,-505.9073"/>
<polygon fill="#000000" stroke="#000000" points="146.4101,-506.5407 145.4624,-495.9883 139.6227,-504.8285 146.4101,-506.5407"/>
</g>
<!-- 16 -->
<g id="node17" class="node">
<title>16</title>
<ellipse fill="none" stroke="#000000" cx="150" cy="-367" rx="90.9129" ry="18"/>
<text text-anchor="middle" x="150" y="-362.8" font-family="Times,serif" font-size="14.00" fill="#000000">table_hash_init_four</text>
</g>
<!-- 15&#45;&gt;16 -->
<g id="edge16" class="edge">
<title>15&#45;&gt;16</title>
<path fill="none" stroke="#000000" d="M150,-459.6706C150,-442.2373 150,-415.7482 150,-395.5489"/>
<polygon fill="#000000" stroke="#000000" points="153.5001,-395.3566 150,-385.3566 146.5001,-395.3567 153.5001,-395.3566"/>
</g>
<!-- 17 -->
<g id="node18" class="node">
<title>17</title>
<ellipse fill="none" stroke="#000000" cx="150" cy="-256" rx="89.7672" ry="18"/>
<text text-anchor="middle" x="150" y="-251.8" font-family="Times,serif" font-size="14.00" fill="#000000">table_hash_init_five</text>
</g>
<!-- 16&#45;&gt;17 -->
<g id="edge17" class="edge">
<title>16&#45;&gt;17</title>
<path fill="none" stroke="#000000" d="M150,-348.6706C150,-331.2373 150,-304.7482 150,-284.5489"/>
<polygon fill="#000000" stroke="#000000" points="153.5001,-284.3566 150,-274.3566 146.5001,-284.3567 153.5001,-284.3566"/>
</g>
<!-- 18 -->
<g id="node19" class="node">
<title>18</title>
<ellipse fill="none" stroke="#000000" cx="150" cy="-145" rx="56.7426" ry="18"/>
<text text-anchor="middle" x="150" y="-140.8" font-family="Times,serif" font-size="14.00" fill="#000000">table_prune</text>
</g>
<!-- 17&#45;&gt;18 -->
<g id="edge18" class="edge">
<title>17&#45;&gt;18</title>
<path fill="none" stroke="#000000" d="M150,-237.6706C150,-220.2373 150,-193.7482 150,-173.5489"/>
<polygon fill="#000000" stroke="#000000" points="153.5001,-173.3566 150,-163.3566 146.5001,-173.3567 153.5001,-173.3566"/>
</g>
<!-- 18&#45;&gt;1 -->
<g id="edge19" class="edge">
<title>18&#45;&gt;1</title>
<path fill="none" stroke="#000000" d="M150,-126.6706C150,-109.2373 150,-82.7482 150,-62.5489"/>
<polygon fill="#000000" stroke="#000000" points="153.5001,-62.3566 150,-52.3566 146.5001,-62.3567 153.5001,-62.3566"/>
</g>
</g>
</svg>
