<?xml version="1.0" encoding="UTF-8" standalone="no"?>
<!DOCTYPE svg PUBLIC "-//W3C//DTD SVG 1.1//EN"
 "http://www.w3.org/Graphics/SVG/1.1/DTD/svg11.dtd">
<!-- Generated by graphviz version 2.40.1 (20161225.0304)
 -->
<!-- Title: ingress Pages: 1 -->
<svg width="302pt" height="2232pt"
 viewBox="0.00 0.00 301.78 2232.40" xmlns="http://www.w3.org/2000/svg" xmlns:xlink="http://www.w3.org/1999/xlink">
<g id="graph0" class="graph" transform="scale(1 1) rotate(0) translate(4 2228.4)">
<title>ingress</title>
<polygon fill="#ffffff" stroke="transparent" points="-4,4 -4,-2228.4 297.777,-2228.4 297.777,4 -4,4"/>
<g id="clust1" class="cluster">
<title>cluster</title>
<polygon fill="none" stroke="#000000" stroke-width="2" points="8,-8 8,-2216.4 262,-2216.4 262,-8 8,-8"/>
</g>
<!-- 0 -->
<g id="node1" class="node">
<title>0</title>
<polygon fill="none" stroke="#000000" points="190.3316,-2208.4 101.6684,-2208.4 101.6684,-2172.4 190.3316,-2172.4 190.3316,-2208.4"/>
<text text-anchor="middle" x="146" y="-2186.2" font-family="Times,serif" font-size="14.00" fill="#000000">__START__</text>
</g>
<!-- 2 -->
<g id="node3" class="node">
<title>2</title>
<ellipse fill="none" stroke="#000000" cx="146" cy="-2079.4" rx="70.0828" ry="18"/>
<text text-anchor="middle" x="146" y="-2075.2" font-family="Times,serif" font-size="14.00" fill="#000000">table_hash_init</text>
</g>
<!-- 0&#45;&gt;2 -->
<g id="edge1" class="edge">
<title>0&#45;&gt;2</title>
<path fill="none" stroke="#000000" d="M146,-2172.0706C146,-2154.6373 146,-2128.1482 146,-2107.9489"/>
<polygon fill="#000000" stroke="#000000" points="149.5001,-2107.7566 146,-2097.7566 142.5001,-2107.7567 149.5001,-2107.7566"/>
</g>
<!-- 1 -->
<g id="node2" class="node">
<title>1</title>
<polygon fill="none" stroke="#000000" points="128.8725,-52 53.1275,-52 53.1275,-16 128.8725,-16 128.8725,-52"/>
<text text-anchor="middle" x="91" y="-29.8" font-family="Times,serif" font-size="14.00" fill="#000000">__EXIT__</text>
</g>
<!-- 3 -->
<g id="node4" class="node">
<title>3</title>
<ellipse fill="none" stroke="#000000" cx="146" cy="-1968.4" rx="96.6965" ry="18"/>
<text text-anchor="middle" x="146" y="-1964.2" font-family="Times,serif" font-size="14.00" fill="#000000">table_sketch_one_key</text>
</g>
<!-- 2&#45;&gt;3 -->
<g id="edge2" class="edge">
<title>2&#45;&gt;3</title>
<path fill="none" stroke="#000000" d="M146,-2061.0706C146,-2043.6373 146,-2017.1482 146,-1996.9489"/>
<polygon fill="#000000" stroke="#000000" points="149.5001,-1996.7566 146,-1986.7566 142.5001,-1996.7567 149.5001,-1996.7566"/>
</g>
<!-- 4 -->
<g id="node5" class="node">
<title>4</title>
<ellipse fill="none" stroke="#000000" cx="146" cy="-1857.4" rx="103.6373" ry="18"/>
<text text-anchor="middle" x="146" y="-1853.2" font-family="Times,serif" font-size="14.00" fill="#000000">table_sketch_one_value</text>
</g>
<!-- 3&#45;&gt;4 -->
<g id="edge3" class="edge">
<title>3&#45;&gt;4</title>
<path fill="none" stroke="#000000" d="M146,-1950.0706C146,-1932.6373 146,-1906.1482 146,-1885.9489"/>
<polygon fill="#000000" stroke="#000000" points="149.5001,-1885.7566 146,-1875.7566 142.5001,-1885.7567 149.5001,-1885.7566"/>
</g>
<!-- 5 -->
<g id="node6" class="node">
<title>5</title>
<ellipse fill="none" stroke="#000000" cx="146" cy="-1746.4" rx="89.207" ry="18"/>
<text text-anchor="middle" x="146" y="-1742.2" font-family="Times,serif" font-size="14.00" fill="#000000">table_hash_init_two</text>
</g>
<!-- 4&#45;&gt;5 -->
<g id="edge4" class="edge">
<title>4&#45;&gt;5</title>
<path fill="none" stroke="#000000" d="M146,-1839.0706C146,-1821.6373 146,-1795.1482 146,-1774.9489"/>
<polygon fill="#000000" stroke="#000000" points="149.5001,-1774.7566 146,-1764.7566 142.5001,-1774.7567 149.5001,-1774.7566"/>
</g>
<!-- 6 -->
<g id="node7" class="node">
<title>6</title>
<polygon fill="none" stroke="#000000" points="237.9054,-1653.4 54.0946,-1653.4 54.0946,-1617.4 237.9054,-1617.4 237.9054,-1653.4"/>
<text text-anchor="middle" x="146" y="-1631.2" font-family="Times,serif" font-size="14.00" fill="#000000">meta.cheetah_md.prune == 0;</text>
</g>
<!-- 5&#45;&gt;6 -->
<g id="edge5" class="edge">
<title>5&#45;&gt;6</title>
<path fill="none" stroke="#000000" d="M146,-1728.0706C146,-1710.6373 146,-1684.1482 146,-1663.9489"/>
<polygon fill="#000000" stroke="#000000" points="149.5001,-1663.7566 146,-1653.7566 142.5001,-1663.7567 149.5001,-1663.7566"/>
</g>
<!-- 7 -->
<g id="node8" class="node">
<title>7</title>
<ellipse fill="none" stroke="#000000" cx="136" cy="-1508.6" rx="97.276" ry="18"/>
<text text-anchor="middle" x="136" y="-1504.4" font-family="Times,serif" font-size="14.00" fill="#000000">table_sketch_two_key</text>
</g>
<!-- 6&#45;&gt;7 -->
<g id="edge6" class="edge">
<title>6&#45;&gt;7</title>
<path fill="none" stroke="#000000" d="M144.5672,-1617.2327C142.9113,-1596.2352 140.1661,-1561.4261 138.2302,-1536.879"/>
<polygon fill="#000000" stroke="#000000" points="141.7056,-1536.4275 137.4301,-1526.7336 134.7272,-1536.9779 141.7056,-1536.4275"/>
<text text-anchor="middle" x="159.2742" y="-1567.8" font-family="Times,serif" font-size="14.00" fill="#000000">TRUE</text>
</g>
<!-- 15 -->
<g id="node16" class="node">
<title>15</title>
<ellipse fill="none" stroke="#000000" cx="141" cy="-604.8" rx="94.3408" ry="18"/>
<text text-anchor="middle" x="141" y="-600.6" font-family="Times,serif" font-size="14.00" fill="#000000">table_hash_init_three</text>
</g>
<!-- 6&#45;&gt;15 -->
<g id="edge7" class="edge">
<title>6&#45;&gt;15</title>
<path fill="none" stroke="#000000" d="M217.0729,-1617.3754C236.836,-1607.8457 253,-1593.4845 253,-1572 253,-1572 253,-1572 253,-1212.1 253,-1073.9409 247,-1039.4591 247,-901.3 247,-901.3 247,-901.3 247,-660.3 247,-642.072 234.5457,-629.8192 218.175,-621.5871"/>
<polygon fill="#000000" stroke="#000000" points="219.2931,-618.2547 208.7316,-617.4149 216.4642,-624.6577 219.2931,-618.2547"/>
<text text-anchor="middle" x="272.3885" y="-1108" font-family="Times,serif" font-size="14.00" fill="#000000">FALSE</text>
</g>
<!-- 8 -->
<g id="node9" class="node">
<title>8</title>
<ellipse fill="none" stroke="#000000" cx="129" cy="-1397.6" rx="104.2168" ry="18"/>
<text text-anchor="middle" x="129" y="-1393.4" font-family="Times,serif" font-size="14.00" fill="#000000">table_sketch_two_value</text>
</g>
<!-- 7&#45;&gt;8 -->
<g id="edge8" class="edge">
<title>7&#45;&gt;8</title>
<path fill="none" stroke="#000000" d="M134.8441,-1490.2706C133.7447,-1472.8373 132.0742,-1446.3482 130.8004,-1426.1489"/>
<polygon fill="#000000" stroke="#000000" points="134.2802,-1425.7165 130.1576,-1415.9566 127.294,-1426.1571 134.2802,-1425.7165"/>
</g>
<!-- 9 -->
<g id="node10" class="node">
<title>9</title>
<ellipse fill="none" stroke="#000000" cx="127" cy="-1286.6" rx="102.4101" ry="18"/>
<text text-anchor="middle" x="127" y="-1282.4" font-family="Times,serif" font-size="14.00" fill="#000000">table_sketch_three_key</text>
</g>
<!-- 8&#45;&gt;9 -->
<g id="edge9" class="edge">
<title>8&#45;&gt;9</title>
<path fill="none" stroke="#000000" d="M128.6697,-1379.2706C128.3556,-1361.8373 127.8783,-1335.3482 127.5144,-1315.1489"/>
<polygon fill="#000000" stroke="#000000" points="131.0104,-1314.8919 127.3307,-1304.9566 124.0116,-1315.0181 131.0104,-1314.8919"/>
</g>
<!-- 10 -->
<g id="node11" class="node">
<title>10</title>
<ellipse fill="none" stroke="#000000" cx="125" cy="-1175.6" rx="109.3507" ry="18"/>
<text text-anchor="middle" x="125" y="-1171.4" font-family="Times,serif" font-size="14.00" fill="#000000">table_sketch_three_value</text>
</g>
<!-- 9&#45;&gt;10 -->
<g id="edge10" class="edge">
<title>9&#45;&gt;10</title>
<path fill="none" stroke="#000000" d="M126.6697,-1268.2706C126.3556,-1250.8373 125.8783,-1224.3482 125.5144,-1204.1489"/>
<polygon fill="#000000" stroke="#000000" points="129.0104,-1203.8919 125.3307,-1193.9566 122.0116,-1204.0181 129.0104,-1203.8919"/>
</g>
<!-- 11 -->
<g id="node12" class="node">
<title>11</title>
<ellipse fill="none" stroke="#000000" cx="123" cy="-1048.8" rx="98.982" ry="18"/>
<text text-anchor="middle" x="123" y="-1044.6" font-family="Times,serif" font-size="14.00" fill="#000000">table_sketch_four_key</text>
</g>
<!-- 10&#45;&gt;11 -->
<g id="edge11" class="edge">
<title>10&#45;&gt;11</title>
<path fill="none" stroke="#000000" d="M124.7134,-1157.4327C124.3823,-1136.4352 123.8332,-1101.6261 123.446,-1077.079"/>
<polygon fill="#000000" stroke="#000000" points="126.9434,-1076.8772 123.286,-1066.9336 119.9443,-1076.9876 126.9434,-1076.8772"/>
</g>
<!-- 12 -->
<g id="node13" class="node">
<title>12</title>
<ellipse fill="none" stroke="#000000" cx="122" cy="-937.8" rx="105.9228" ry="18"/>
<text text-anchor="middle" x="122" y="-933.6" font-family="Times,serif" font-size="14.00" fill="#000000">table_sketch_four_value</text>
</g>
<!-- 11&#45;&gt;12 -->
<g id="edge12" class="edge">
<title>11&#45;&gt;12</title>
<path fill="none" stroke="#000000" d="M122.8349,-1030.4706C122.6778,-1013.0373 122.4392,-986.5482 122.2572,-966.3489"/>
<polygon fill="#000000" stroke="#000000" points="125.7554,-966.1247 122.1654,-956.1566 118.7557,-966.1878 125.7554,-966.1247"/>
</g>
<!-- 13 -->
<g id="node14" class="node">
<title>13</title>
<ellipse fill="none" stroke="#000000" cx="122" cy="-826.8" rx="97.8363" ry="18"/>
<text text-anchor="middle" x="122" y="-822.6" font-family="Times,serif" font-size="14.00" fill="#000000">table_sketch_five_key</text>
</g>
<!-- 12&#45;&gt;13 -->
<g id="edge13" class="edge">
<title>12&#45;&gt;13</title>
<path fill="none" stroke="#000000" d="M122,-919.4706C122,-902.0373 122,-875.5482 122,-855.3489"/>
<polygon fill="#000000" stroke="#000000" points="125.5001,-855.1566 122,-845.1566 118.5001,-855.1567 125.5001,-855.1566"/>
</g>
<!-- 14 -->
<g id="node15" class="node">
<title>14</title>
<ellipse fill="none" stroke="#000000" cx="122" cy="-715.8" rx="104.7771" ry="18"/>
<text text-anchor="middle" x="122" y="-711.6" font-family="Times,serif" font-size="14.00" fill="#000000">table_sketch_five_value</text>
</g>
<!-- 13&#45;&gt;14 -->
<g id="edge14" class="edge">
<title>13&#45;&gt;14</title>
<path fill="none" stroke="#000000" d="M122,-808.4706C122,-791.0373 122,-764.5482 122,-744.3489"/>
<polygon fill="#000000" stroke="#000000" points="125.5001,-744.1566 122,-734.1566 118.5001,-744.1567 125.5001,-744.1566"/>
</g>
<!-- 14&#45;&gt;15 -->
<g id="edge15" class="edge">
<title>14&#45;&gt;15</title>
<path fill="none" stroke="#000000" d="M125.1375,-697.4706C128.1353,-679.9569 132.6975,-653.3039 136.161,-633.0701"/>
<polygon fill="#000000" stroke="#000000" points="139.6204,-633.6038 137.8579,-623.1566 132.7208,-632.4227 139.6204,-633.6038"/>
</g>
<!-- 16 -->
<g id="node17" class="node">
<title>16</title>
<ellipse fill="none" stroke="#000000" cx="141" cy="-493.8" rx="90.9129" ry="18"/>
<text text-anchor="middle" x="141" y="-489.6" font-family="Times,serif" font-size="14.00" fill="#000000">table_hash_init_four</text>
</g>
<!-- 15&#45;&gt;16 -->
<g id="edge16" class="edge">
<title>15&#45;&gt;16</title>
<path fill="none" stroke="#000000" d="M141,-586.4706C141,-569.0373 141,-542.5482 141,-522.3489"/>
<polygon fill="#000000" stroke="#000000" points="144.5001,-522.1566 141,-512.1566 137.5001,-522.1567 144.5001,-522.1566"/>
</g>
<!-- 17 -->
<g id="node18" class="node">
<title>17</title>
<ellipse fill="none" stroke="#000000" cx="141" cy="-382.8" rx="89.7672" ry="18"/>
<text text-anchor="middle" x="141" y="-378.6" font-family="Times,serif" font-size="14.00" fill="#000000">table_hash_init_five</text>
</g>
<!-- 16&#45;&gt;17 -->
<g id="edge17" class="edge">
<title>16&#45;&gt;17</title>
<path fill="none" stroke="#000000" d="M141,-475.4706C141,-458.0373 141,-431.5482 141,-411.3489"/>
<polygon fill="#000000" stroke="#000000" points="144.5001,-411.1566 141,-401.1566 137.5001,-411.1567 144.5001,-411.1566"/>
</g>
<!-- 18 -->
<g id="node19" class="node">
<title>18</title>
<polygon fill="none" stroke="#000000" points="232.9054,-289.8 49.0946,-289.8 49.0946,-253.8 232.9054,-253.8 232.9054,-289.8"/>
<text text-anchor="middle" x="141" y="-267.6" font-family="Times,serif" font-size="14.00" fill="#000000">meta.cheetah_md.prune == 1;</text>
</g>
<!-- 17&#45;&gt;18 -->
<g id="edge18" class="edge">
<title>17&#45;&gt;18</title>
<path fill="none" stroke="#000000" d="M141,-364.4706C141,-347.0373 141,-320.5482 141,-300.3489"/>
<polygon fill="#000000" stroke="#000000" points="144.5001,-300.1566 141,-290.1566 137.5001,-300.1567 144.5001,-300.1566"/>
</g>
<!-- 18&#45;&gt;1 -->
<g id="edge20" class="edge">
<title>18&#45;&gt;1</title>
<path fill="none" stroke="#000000" d="M91.166,-253.6115C73.0781,-243.5565 57,-228.8634 57,-208.4 57,-208.4 57,-208.4 57,-89.5 57,-79.1607 61.3435,-69.1223 66.9256,-60.4905"/>
<polygon fill="#000000" stroke="#000000" points="69.7765,-62.5211 72.8056,-52.3685 64.1063,-58.4162 69.7765,-62.5211"/>
<text text-anchor="middle" x="78.3885" y="-140.8" font-family="Times,serif" font-size="14.00" fill="#000000">FALSE</text>
</g>
<!-- 19 -->
<g id="node20" class="node">
<title>19</title>
<ellipse fill="none" stroke="#000000" cx="174" cy="-145" rx="56.7426" ry="18"/>
<text text-anchor="middle" x="174" y="-140.8" font-family="Times,serif" font-size="14.00" fill="#000000">table_prune</text>
</g>
<!-- 18&#45;&gt;19 -->
<g id="edge19" class="edge">
<title>18&#45;&gt;19</title>
<path fill="none" stroke="#000000" d="M145.7281,-253.6327C151.2172,-232.5411 160.3332,-197.5136 166.7261,-172.9494"/>
<polygon fill="#000000" stroke="#000000" points="170.1491,-173.6928 169.2807,-163.1336 163.3748,-171.9297 170.1491,-173.6928"/>
<text text-anchor="middle" x="177.2742" y="-204.2" font-family="Times,serif" font-size="14.00" fill="#000000">TRUE</text>
</g>
<!-- 19&#45;&gt;1 -->
<g id="edge21" class="edge">
<title>19&#45;&gt;1</title>
<path fill="none" stroke="#000000" d="M160.6646,-127.1659C147.132,-109.0682 126.0343,-80.8531 110.6003,-60.2124"/>
<polygon fill="#000000" stroke="#000000" points="113.3696,-58.0713 104.578,-52.1586 107.7635,-62.2632 113.3696,-58.0713"/>
</g>
</g>
</svg>
