<?xml version="1.0" encoding="UTF-8" standalone="no"?>
<!DOCTYPE svg PUBLIC "-//W3C//DTD SVG 1.1//EN"
 "http://www.w3.org/Graphics/SVG/1.1/DTD/svg11.dtd">
<!-- Generated by graphviz version 2.40.1 (20161225.0304)
 -->
<!-- Title: ingress Pages: 1 -->
<svg width="198pt" height="663pt"
 viewBox="0.00 0.00 197.78 662.60" xmlns="http://www.w3.org/2000/svg" xmlns:xlink="http://www.w3.org/1999/xlink">
<g id="graph0" class="graph" transform="scale(1 1) rotate(0) translate(4 658.6)">
<title>ingress</title>
<polygon fill="#ffffff" stroke="transparent" points="-4,4 -4,-658.6 193.777,-658.6 193.777,4 -4,4"/>
<g id="clust1" class="cluster">
<title>cluster</title>
<polygon fill="none" stroke="#000000" stroke-width="2" points="8,-8 8,-646.6 162,-646.6 162,-8 8,-8"/>
</g>
<!-- 0 -->
<g id="node1" class="node">
<title>0</title>
<polygon fill="none" stroke="#000000" points="129.3316,-638.6 40.6684,-638.6 40.6684,-602.6 129.3316,-602.6 129.3316,-638.6"/>
<text text-anchor="middle" x="85" y="-616.4" font-family="Times,serif" font-size="14.00" fill="#000000">__START__</text>
</g>
<!-- 2 -->
<g id="node3" class="node">
<title>2</title>
<polygon fill="none" stroke="#000000" points="145.2008,-527.6 24.7992,-527.6 24.7992,-491.6 145.2008,-491.6 145.2008,-527.6"/>
<text text-anchor="middle" x="85" y="-505.4" font-family="Times,serif" font-size="14.00" fill="#000000">hdr.ipv4.isValid();</text>
</g>
<!-- 0&#45;&gt;2 -->
<g id="edge1" class="edge">
<title>0&#45;&gt;2</title>
<path fill="none" stroke="#000000" d="M85,-602.2706C85,-584.8373 85,-558.3482 85,-538.1489"/>
<polygon fill="#000000" stroke="#000000" points="88.5001,-537.9566 85,-527.9566 81.5001,-537.9567 88.5001,-537.9566"/>
</g>
<!-- 1 -->
<g id="node2" class="node">
<title>1</title>
<polygon fill="none" stroke="#000000" points="142.8725,-52 67.1275,-52 67.1275,-16 142.8725,-16 142.8725,-52"/>
<text text-anchor="middle" x="105" y="-29.8" font-family="Times,serif" font-size="14.00" fill="#000000">__EXIT__</text>
</g>
<!-- 3 -->
<g id="node4" class="node">
<title>3</title>
<ellipse fill="none" stroke="#000000" cx="75" cy="-382.8" rx="59.116" ry="18"/>
<text text-anchor="middle" x="75" y="-378.6" font-family="Times,serif" font-size="14.00" fill="#000000">ecmp_group</text>
</g>
<!-- 2&#45;&gt;3 -->
<g id="edge2" class="edge">
<title>2&#45;&gt;3</title>
<path fill="none" stroke="#000000" d="M83.5672,-491.4327C81.9113,-470.4352 79.1661,-435.6261 77.2302,-411.079"/>
<polygon fill="#000000" stroke="#000000" points="80.7056,-410.6275 76.4301,-400.9336 73.7272,-411.1779 80.7056,-410.6275"/>
<text text-anchor="middle" x="98.2742" y="-442" font-family="Times,serif" font-size="14.00" fill="#000000">TRUE</text>
</g>
<!-- 5 -->
<g id="node6" class="node">
<title>5</title>
<ellipse fill="none" stroke="#000000" cx="105" cy="-145" rx="37.1367" ry="18"/>
<text text-anchor="middle" x="105" y="-140.8" font-family="Times,serif" font-size="14.00" fill="#000000">tbl_act</text>
</g>
<!-- 2&#45;&gt;5 -->
<g id="edge3" class="edge">
<title>2&#45;&gt;5</title>
<path fill="none" stroke="#000000" d="M99.1938,-491.2675C114.0628,-470.6356 136.1881,-435.4555 143,-400.8 149.2973,-368.7628 150.449,-308.1799 137,-238 132.6344,-215.2193 123.8914,-190.4285 116.6459,-172.1754"/>
<polygon fill="#000000" stroke="#000000" points="119.8254,-170.7029 112.812,-162.7617 113.3425,-173.3433 119.8254,-170.7029"/>
<text text-anchor="middle" x="168.3885" y="-315.2" font-family="Times,serif" font-size="14.00" fill="#000000">FALSE</text>
</g>
<!-- 4 -->
<g id="node5" class="node">
<title>4</title>
<ellipse fill="none" stroke="#000000" cx="72" cy="-256" rx="56.186" ry="18"/>
<text text-anchor="middle" x="72" y="-251.8" font-family="Times,serif" font-size="14.00" fill="#000000">ecmp_nhop</text>
</g>
<!-- 3&#45;&gt;4 -->
<g id="edge4" class="edge">
<title>3&#45;&gt;4</title>
<path fill="none" stroke="#000000" d="M74.5702,-364.6327C74.0734,-343.6352 73.2498,-308.8261 72.6691,-284.279"/>
<polygon fill="#000000" stroke="#000000" points="76.1647,-284.048 72.429,-274.1336 69.1666,-284.2137 76.1647,-284.048"/>
</g>
<!-- 4&#45;&gt;5 -->
<g id="edge5" class="edge">
<title>4&#45;&gt;5</title>
<path fill="none" stroke="#000000" d="M77.4493,-237.6706C82.7113,-219.9712 90.7483,-192.9376 96.7861,-172.6286"/>
<polygon fill="#000000" stroke="#000000" points="100.1572,-173.5711 99.6521,-162.9883 93.4475,-171.5763 100.1572,-173.5711"/>
</g>
<!-- 5&#45;&gt;1 -->
<g id="edge6" class="edge">
<title>5&#45;&gt;1</title>
<path fill="none" stroke="#000000" d="M105,-126.6706C105,-109.2373 105,-82.7482 105,-62.5489"/>
<polygon fill="#000000" stroke="#000000" points="108.5001,-62.3566 105,-52.3566 101.5001,-62.3567 108.5001,-62.3566"/>
</g>
</g>
</svg>
