<?xml version="1.0" encoding="UTF-8" standalone="no"?>
<!DOCTYPE svg PUBLIC "-//W3C//DTD SVG 1.1//EN"
 "http://www.w3.org/Graphics/SVG/1.1/DTD/svg11.dtd">
<!-- Generated by graphviz version 2.40.1 (20161225.0304)
 -->
<!-- Title: egress Pages: 1 -->
<svg width="354pt" height="647pt"
 viewBox="0.00 0.00 354.00 646.80" xmlns="http://www.w3.org/2000/svg" xmlns:xlink="http://www.w3.org/1999/xlink">
<g id="graph0" class="graph" transform="scale(1 1) rotate(0) translate(4 642.8)">
<title>egress</title>
<polygon fill="#ffffff" stroke="transparent" points="-4,4 -4,-642.8 350,-642.8 350,4 -4,4"/>
<g id="clust1" class="cluster">
<title>cluster</title>
<polygon fill="none" stroke="#000000" stroke-width="2" points="8,-8 8,-630.8 338,-630.8 338,-8 8,-8"/>
</g>
<!-- 0 -->
<g id="node1" class="node">
<title>0</title>
<polygon fill="none" stroke="#000000" points="180.3316,-622.8 91.6684,-622.8 91.6684,-586.8 180.3316,-586.8 180.3316,-622.8"/>
<text text-anchor="middle" x="136" y="-600.6" font-family="Times,serif" font-size="14.00" fill="#000000">__START__</text>
</g>
<!-- 2 -->
<g id="node3" class="node">
<title>2</title>
<polygon fill="none" stroke="#000000" points="230.7572,-511.8 41.2428,-511.8 41.2428,-475.8 230.7572,-475.8 230.7572,-511.8"/>
<text text-anchor="middle" x="136" y="-489.6" font-family="Times,serif" font-size="14.00" fill="#000000">eg_intr_md.egress_port == 40;</text>
</g>
<!-- 0&#45;&gt;2 -->
<g id="edge1" class="edge">
<title>0&#45;&gt;2</title>
<path fill="none" stroke="#000000" d="M136,-586.4706C136,-569.0373 136,-542.5482 136,-522.3489"/>
<polygon fill="#000000" stroke="#000000" points="139.5001,-522.1566 136,-512.1566 132.5001,-522.1567 139.5001,-522.1566"/>
</g>
<!-- 1 -->
<g id="node2" class="node">
<title>1</title>
<polygon fill="none" stroke="#000000" points="205.8725,-52 130.1275,-52 130.1275,-16 205.8725,-16 205.8725,-52"/>
<text text-anchor="middle" x="168" y="-29.8" font-family="Times,serif" font-size="14.00" fill="#000000">__EXIT__</text>
</g>
<!-- 3 -->
<g id="node4" class="node">
<title>3</title>
<ellipse fill="none" stroke="#000000" cx="93" cy="-367" rx="71.766" ry="18"/>
<text text-anchor="middle" x="93" y="-362.8" font-family="Times,serif" font-size="14.00" fill="#000000">teUpdateMirror</text>
</g>
<!-- 2&#45;&gt;3 -->
<g id="edge2" class="edge">
<title>2&#45;&gt;3</title>
<path fill="none" stroke="#000000" d="M129.8391,-475.6327C122.6547,-454.4469 110.7021,-419.2006 102.3668,-394.6211"/>
<polygon fill="#000000" stroke="#000000" points="105.6756,-393.4799 99.1494,-385.1336 99.0464,-395.728 105.6756,-393.4799"/>
<text text-anchor="middle" x="134.2742" y="-426.2" font-family="Times,serif" font-size="14.00" fill="#000000">TRUE</text>
</g>
<!-- 5 -->
<g id="node6" class="node">
<title>5</title>
<ellipse fill="none" stroke="#000000" cx="249" cy="-367" rx="63.6793" ry="18"/>
<text text-anchor="middle" x="249" y="-362.8" font-family="Times,serif" font-size="14.00" fill="#000000">teReadMirror</text>
</g>
<!-- 2&#45;&gt;5 -->
<g id="edge3" class="edge">
<title>2&#45;&gt;5</title>
<path fill="none" stroke="#000000" d="M152.1901,-475.6327C171.6838,-453.7584 204.5355,-416.8947 226.4898,-392.2592"/>
<polygon fill="#000000" stroke="#000000" points="229.164,-394.5191 233.2042,-384.7248 223.9381,-389.8619 229.164,-394.5191"/>
<text text-anchor="middle" x="219.3885" y="-426.2" font-family="Times,serif" font-size="14.00" fill="#000000">FALSE</text>
</g>
<!-- 4 -->
<g id="node5" class="node">
<title>4</title>
<ellipse fill="none" stroke="#000000" cx="86" cy="-256" rx="70.0596" ry="18"/>
<text text-anchor="middle" x="86" y="-251.8" font-family="Times,serif" font-size="14.00" fill="#000000">teReadOriginal</text>
</g>
<!-- 3&#45;&gt;4 -->
<g id="edge4" class="edge">
<title>3&#45;&gt;4</title>
<path fill="none" stroke="#000000" d="M91.8441,-348.6706C90.7447,-331.2373 89.0742,-304.7482 87.8004,-284.5489"/>
<polygon fill="#000000" stroke="#000000" points="91.2802,-284.1165 87.1576,-274.3566 84.294,-284.5571 91.2802,-284.1165"/>
</g>
<!-- 7 -->
<g id="node8" class="node">
<title>7</title>
<ellipse fill="none" stroke="#000000" cx="168" cy="-145" rx="48.0665" ry="18"/>
<text text-anchor="middle" x="168" y="-140.8" font-family="Times,serif" font-size="14.00" fill="#000000">teGetDiff</text>
</g>
<!-- 4&#45;&gt;7 -->
<g id="edge5" class="edge">
<title>4&#45;&gt;7</title>
<path fill="none" stroke="#000000" d="M99.1747,-238.1659C112.7034,-219.8527 133.8851,-191.1799 149.178,-170.4785"/>
<polygon fill="#000000" stroke="#000000" points="152.0016,-172.5468 155.1283,-162.4238 146.3713,-168.3875 152.0016,-172.5468"/>
</g>
<!-- 6 -->
<g id="node7" class="node">
<title>6</title>
<ellipse fill="none" stroke="#000000" cx="252" cy="-256" rx="78.1462" ry="18"/>
<text text-anchor="middle" x="252" y="-251.8" font-family="Times,serif" font-size="14.00" fill="#000000">teUpdateOriginal</text>
</g>
<!-- 5&#45;&gt;6 -->
<g id="edge6" class="edge">
<title>5&#45;&gt;6</title>
<path fill="none" stroke="#000000" d="M249.4954,-348.6706C249.9666,-331.2373 250.6825,-304.7482 251.2284,-284.5489"/>
<polygon fill="#000000" stroke="#000000" points="254.7323,-284.4476 251.5039,-274.3566 247.7349,-284.2584 254.7323,-284.4476"/>
</g>
<!-- 6&#45;&gt;7 -->
<g id="edge7" class="edge">
<title>6&#45;&gt;7</title>
<path fill="none" stroke="#000000" d="M238.5039,-238.1659C224.6453,-219.8527 202.9469,-191.1799 187.281,-170.4785"/>
<polygon fill="#000000" stroke="#000000" points="190.011,-168.2859 181.1856,-162.4238 184.4292,-172.51 190.011,-168.2859"/>
</g>
<!-- 7&#45;&gt;1 -->
<g id="edge8" class="edge">
<title>7&#45;&gt;1</title>
<path fill="none" stroke="#000000" d="M168,-126.6706C168,-109.2373 168,-82.7482 168,-62.5489"/>
<polygon fill="#000000" stroke="#000000" points="171.5001,-62.3566 168,-52.3566 164.5001,-62.3567 171.5001,-62.3566"/>
</g>
</g>
</svg>
