<?xml version="1.0" encoding="UTF-8" standalone="no"?>
<!DOCTYPE svg PUBLIC "-//W3C//DTD SVG 1.1//EN"
 "http://www.w3.org/Graphics/SVG/1.1/DTD/svg11.dtd">
<!-- Generated by graphviz version 2.40.1 (20161225.0304)
 -->
<!-- Title: ingress Pages: 1 -->
<svg width="184pt" height="292pt"
 viewBox="0.00 0.00 184.00 292.00" xmlns="http://www.w3.org/2000/svg" xmlns:xlink="http://www.w3.org/1999/xlink">
<g id="graph0" class="graph" transform="scale(1 1) rotate(0) translate(4 288)">
<title>ingress</title>
<polygon fill="#ffffff" stroke="transparent" points="-4,4 -4,-288 180,-288 180,4 -4,4"/>
<g id="clust1" class="cluster">
<title>cluster</title>
<polygon fill="none" stroke="#000000" stroke-width="2" points="8,-8 8,-276 168,-276 168,-8 8,-8"/>
</g>
<!-- 0 -->
<g id="node1" class="node">
<title>0</title>
<polygon fill="none" stroke="#000000" points="132.3316,-268 43.6684,-268 43.6684,-232 132.3316,-232 132.3316,-268"/>
<text text-anchor="middle" x="88" y="-245.8" font-family="Times,serif" font-size="14.00" fill="#000000">__START__</text>
</g>
<!-- 2 -->
<g id="node3" class="node">
<title>2</title>
<ellipse fill="none" stroke="#000000" cx="88" cy="-178" rx="58.5675" ry="18"/>
<text text-anchor="middle" x="88" y="-173.8" font-family="Times,serif" font-size="14.00" fill="#000000">tiSendClone</text>
</g>
<!-- 0&#45;&gt;2 -->
<g id="edge1" class="edge">
<title>0&#45;&gt;2</title>
<path fill="none" stroke="#000000" d="M88,-231.8314C88,-224.131 88,-214.9743 88,-206.4166"/>
<polygon fill="#000000" stroke="#000000" points="91.5001,-206.4132 88,-196.4133 84.5001,-206.4133 91.5001,-206.4132"/>
</g>
<!-- 1 -->
<g id="node2" class="node">
<title>1</title>
<polygon fill="none" stroke="#000000" points="125.8725,-52 50.1275,-52 50.1275,-16 125.8725,-16 125.8725,-52"/>
<text text-anchor="middle" x="88" y="-29.8" font-family="Times,serif" font-size="14.00" fill="#000000">__EXIT__</text>
</g>
<!-- 3 -->
<g id="node4" class="node">
<title>3</title>
<ellipse fill="none" stroke="#000000" cx="88" cy="-106" rx="71.824" ry="18"/>
<text text-anchor="middle" x="88" y="-101.8" font-family="Times,serif" font-size="14.00" fill="#000000">tiSetOutputPort</text>
</g>
<!-- 2&#45;&gt;3 -->
<g id="edge2" class="edge">
<title>2&#45;&gt;3</title>
<path fill="none" stroke="#000000" d="M88,-159.8314C88,-152.131 88,-142.9743 88,-134.4166"/>
<polygon fill="#000000" stroke="#000000" points="91.5001,-134.4132 88,-124.4133 84.5001,-134.4133 91.5001,-134.4132"/>
</g>
<!-- 3&#45;&gt;1 -->
<g id="edge3" class="edge">
<title>3&#45;&gt;1</title>
<path fill="none" stroke="#000000" d="M88,-87.8314C88,-80.131 88,-70.9743 88,-62.4166"/>
<polygon fill="#000000" stroke="#000000" points="91.5001,-62.4132 88,-52.4133 84.5001,-62.4133 91.5001,-62.4132"/>
</g>
</g>
</svg>
