<?xml version="1.0" encoding="UTF-8" standalone="no"?>
<!DOCTYPE svg PUBLIC "-//W3C//DTD SVG 1.1//EN"
 "http://www.w3.org/Graphics/SVG/1.1/DTD/svg11.dtd">
<!-- Generated by graphviz version 2.40.1 (20161225.0304)
 -->
<!-- Title: ingress Pages: 1 -->
<svg width="162pt" height="364pt"
 viewBox="0.00 0.00 162.00 364.00" xmlns="http://www.w3.org/2000/svg" xmlns:xlink="http://www.w3.org/1999/xlink">
<g id="graph0" class="graph" transform="scale(1 1) rotate(0) translate(4 360)">
<title>ingress</title>
<polygon fill="#ffffff" stroke="transparent" points="-4,4 -4,-360 158,-360 158,4 -4,4"/>
<g id="clust1" class="cluster">
<title>cluster</title>
<polygon fill="none" stroke="#000000" stroke-width="2" points="8,-8 8,-348 146,-348 146,-8 8,-8"/>
</g>
<!-- 0 -->
<g id="node1" class="node">
<title>0</title>
<polygon fill="none" stroke="#000000" points="121.3316,-340 32.6684,-340 32.6684,-304 121.3316,-304 121.3316,-340"/>
<text text-anchor="middle" x="77" y="-317.8" font-family="Times,serif" font-size="14.00" fill="#000000">__START__</text>
</g>
<!-- 2 -->
<g id="node3" class="node">
<title>2</title>
<ellipse fill="none" stroke="#000000" cx="77" cy="-250" rx="60.8313" ry="18"/>
<text text-anchor="middle" x="77" y="-245.8" font-family="Times,serif" font-size="14.00" fill="#000000">tiLearnMAC</text>
</g>
<!-- 0&#45;&gt;2 -->
<g id="edge1" class="edge">
<title>0&#45;&gt;2</title>
<path fill="none" stroke="#000000" d="M77,-303.8314C77,-296.131 77,-286.9743 77,-278.4166"/>
<polygon fill="#000000" stroke="#000000" points="80.5001,-278.4132 77,-268.4133 73.5001,-278.4133 80.5001,-278.4132"/>
</g>
<!-- 1 -->
<g id="node2" class="node">
<title>1</title>
<polygon fill="none" stroke="#000000" points="114.8725,-52 39.1275,-52 39.1275,-16 114.8725,-16 114.8725,-52"/>
<text text-anchor="middle" x="77" y="-29.8" font-family="Times,serif" font-size="14.00" fill="#000000">__EXIT__</text>
</g>
<!-- 3 -->
<g id="node4" class="node">
<title>3</title>
<ellipse fill="none" stroke="#000000" cx="77" cy="-178" rx="49.2338" ry="18"/>
<text text-anchor="middle" x="77" y="-173.8" font-family="Times,serif" font-size="14.00" fill="#000000">tiForward</text>
</g>
<!-- 2&#45;&gt;3 -->
<g id="edge2" class="edge">
<title>2&#45;&gt;3</title>
<path fill="none" stroke="#000000" d="M77,-231.8314C77,-224.131 77,-214.9743 77,-206.4166"/>
<polygon fill="#000000" stroke="#000000" points="80.5001,-206.4132 77,-196.4133 73.5001,-206.4133 80.5001,-206.4132"/>
</g>
<!-- 4 -->
<g id="node5" class="node">
<title>4</title>
<ellipse fill="none" stroke="#000000" cx="77" cy="-106" rx="37.1501" ry="18"/>
<text text-anchor="middle" x="77" y="-101.8" font-family="Times,serif" font-size="14.00" fill="#000000">tiFilter</text>
</g>
<!-- 3&#45;&gt;4 -->
<g id="edge3" class="edge">
<title>3&#45;&gt;4</title>
<path fill="none" stroke="#000000" d="M77,-159.8314C77,-152.131 77,-142.9743 77,-134.4166"/>
<polygon fill="#000000" stroke="#000000" points="80.5001,-134.4132 77,-124.4133 73.5001,-134.4133 80.5001,-134.4132"/>
</g>
<!-- 4&#45;&gt;1 -->
<g id="edge4" class="edge">
<title>4&#45;&gt;1</title>
<path fill="none" stroke="#000000" d="M77,-87.8314C77,-80.131 77,-70.9743 77,-62.4166"/>
<polygon fill="#000000" stroke="#000000" points="80.5001,-62.4132 77,-52.4133 73.5001,-62.4133 80.5001,-62.4132"/>
</g>
</g>
</svg>
