<?xml version="1.0" encoding="UTF-8" standalone="no"?>
<!DOCTYPE svg PUBLIC "-//W3C//DTD SVG 1.1//EN"
 "http://www.w3.org/Graphics/SVG/1.1/DTD/svg11.dtd">
<!-- Generated by graphviz version 2.40.1 (20161225.0304)
 -->
<!-- Title: ingress Pages: 1 -->
<svg width="528pt" height="1573pt"
 viewBox="0.00 0.00 528.00 1572.80" xmlns="http://www.w3.org/2000/svg" xmlns:xlink="http://www.w3.org/1999/xlink">
<g id="graph0" class="graph" transform="scale(1 1) rotate(0) translate(4 1568.8)">
<title>ingress</title>
<polygon fill="#ffffff" stroke="transparent" points="-4,4 -4,-1568.8 524,-1568.8 524,4 -4,4"/>
<g id="clust1" class="cluster">
<title>cluster</title>
<polygon fill="none" stroke="#000000" stroke-width="2" points="8,-8 8,-1556.8 512,-1556.8 512,-8 8,-8"/>
</g>
<!-- 0 -->
<g id="node1" class="node">
<title>0</title>
<polygon fill="none" stroke="#000000" points="132.3316,-1548.8 43.6684,-1548.8 43.6684,-1512.8 132.3316,-1512.8 132.3316,-1548.8"/>
<text text-anchor="middle" x="88" y="-1526.6" font-family="Times,serif" font-size="14.00" fill="#000000">__START__</text>
</g>
<!-- 2 -->
<g id="node3" class="node">
<title>2</title>
<polygon fill="none" stroke="#000000" points="148.2008,-1437.8 27.7992,-1437.8 27.7992,-1401.8 148.2008,-1401.8 148.2008,-1437.8"/>
<text text-anchor="middle" x="88" y="-1415.6" font-family="Times,serif" font-size="14.00" fill="#000000">hdr.ipv4.isValid();</text>
</g>
<!-- 0&#45;&gt;2 -->
<g id="edge1" class="edge">
<title>0&#45;&gt;2</title>
<path fill="none" stroke="#000000" d="M88,-1512.4706C88,-1495.0373 88,-1468.5482 88,-1448.3489"/>
<polygon fill="#000000" stroke="#000000" points="91.5001,-1448.1566 88,-1438.1566 84.5001,-1448.1567 91.5001,-1448.1566"/>
</g>
<!-- 1 -->
<g id="node2" class="node">
<title>1</title>
<polygon fill="none" stroke="#000000" points="129.8725,-52 54.1275,-52 54.1275,-16 129.8725,-16 129.8725,-52"/>
<text text-anchor="middle" x="92" y="-29.8" font-family="Times,serif" font-size="14.00" fill="#000000">__EXIT__</text>
</g>
<!-- 2&#45;&gt;1 -->
<g id="edge3" class="edge">
<title>2&#45;&gt;1</title>
<path fill="none" stroke="#000000" d="M60.6836,-1401.7161C47.2899,-1390.5089 34,-1374.7621 34,-1356.4 34,-1356.4 34,-1356.4 34,-692.1 34,-521.355 17,-479.045 17,-308.3 17,-308.3 17,-308.3 17,-89.5 17,-72.3033 29.8984,-59.8248 44.9972,-51.1087"/>
<polygon fill="#000000" stroke="#000000" points="46.7974,-54.1178 54.0606,-46.4043 43.5725,-47.9048 46.7974,-54.1178"/>
<text text-anchor="middle" x="55.3885" y="-714.8" font-family="Times,serif" font-size="14.00" fill="#000000">FALSE</text>
</g>
<!-- 3 -->
<g id="node4" class="node">
<title>3</title>
<ellipse fill="none" stroke="#000000" cx="106" cy="-1293" rx="48.1167" ry="18"/>
<text text-anchor="middle" x="106" y="-1288.8" font-family="Times,serif" font-size="14.00" fill="#000000">ipv4_lpm</text>
</g>
<!-- 2&#45;&gt;3 -->
<g id="edge2" class="edge">
<title>2&#45;&gt;3</title>
<path fill="none" stroke="#000000" d="M90.579,-1401.6327C93.5597,-1380.6352 98.501,-1345.8261 101.9856,-1321.279"/>
<polygon fill="#000000" stroke="#000000" points="105.4855,-1321.5263 103.4258,-1311.1336 98.555,-1320.5424 105.4855,-1321.5263"/>
<text text-anchor="middle" x="115.2742" y="-1352.2" font-family="Times,serif" font-size="14.00" fill="#000000">TRUE</text>
</g>
<!-- 4 -->
<g id="node5" class="node">
<title>4</title>
<ellipse fill="none" stroke="#000000" cx="132" cy="-1182" rx="57.8868" ry="18"/>
<text text-anchor="middle" x="132" y="-1177.8" font-family="Times,serif" font-size="14.00" fill="#000000">check_ports</text>
</g>
<!-- 3&#45;&gt;4 -->
<g id="edge4" class="edge">
<title>3&#45;&gt;4</title>
<path fill="none" stroke="#000000" d="M110.2934,-1274.6706C114.4202,-1257.0521 120.7136,-1230.1843 125.4632,-1209.9073"/>
<polygon fill="#000000" stroke="#000000" points="128.9136,-1210.523 127.7865,-1199.9883 122.0981,-1208.9266 128.9136,-1210.523"/>
</g>
<!-- 5 -->
<g id="node6" class="node">
<title>5</title>
<polygon fill="none" stroke="#000000" points="253.022,-1089 52.978,-1089 52.978,-1053 253.022,-1053 253.022,-1089"/>
<text text-anchor="middle" x="153" y="-1066.8" font-family="Times,serif" font-size="14.00" fill="#000000">meta.meta.check_ports_hit == 1;</text>
</g>
<!-- 4&#45;&gt;5 -->
<g id="edge5" class="edge">
<title>4&#45;&gt;5</title>
<path fill="none" stroke="#000000" d="M135.4677,-1163.6706C138.7811,-1146.1569 143.8236,-1119.5039 147.6516,-1099.2701"/>
<polygon fill="#000000" stroke="#000000" points="151.1071,-1099.833 149.5271,-1089.3566 144.2291,-1098.5317 151.1071,-1099.833"/>
</g>
<!-- 5&#45;&gt;1 -->
<g id="edge7" class="edge">
<title>5&#45;&gt;1</title>
<path fill="none" stroke="#000000" d="M123.8321,-1052.9849C109.8082,-1041.8997 96,-1026.2497 96,-1007.6 96,-1007.6 96,-1007.6 96,-763.4 96,-559.4407 37,-512.2593 37,-308.3 37,-308.3 37,-308.3 37,-89.5 37,-77.4184 43.6569,-67.0258 52.3388,-58.6092"/>
<polygon fill="#000000" stroke="#000000" points="54.7099,-61.1864 60.0063,-52.0104 50.1437,-55.8807 54.7099,-61.1864"/>
<text text-anchor="middle" x="85.3885" y="-505.4" font-family="Times,serif" font-size="14.00" fill="#000000">FALSE</text>
</g>
<!-- 6 -->
<g id="node7" class="node">
<title>6</title>
<polygon fill="none" stroke="#000000" points="275.3623,-962.2 114.6377,-962.2 114.6377,-926.2 275.3623,-926.2 275.3623,-962.2"/>
<text text-anchor="middle" x="195" y="-940" font-family="Times,serif" font-size="14.00" fill="#000000">meta.meta.direction == 0;</text>
</g>
<!-- 5&#45;&gt;6 -->
<g id="edge6" class="edge">
<title>5&#45;&gt;6</title>
<path fill="none" stroke="#000000" d="M159.0176,-1052.8327C166.0037,-1031.7411 177.6059,-996.7136 185.7423,-972.1494"/>
<polygon fill="#000000" stroke="#000000" points="189.1717,-972.927 188.9936,-962.3336 182.5267,-970.7259 189.1717,-972.927"/>
<text text-anchor="middle" x="194.2742" y="-1003.4" font-family="Times,serif" font-size="14.00" fill="#000000">TRUE</text>
</g>
<!-- 7 -->
<g id="node8" class="node">
<title>7</title>
<ellipse fill="none" stroke="#000000" cx="195" cy="-763.4" rx="92.6615" ry="18"/>
<text text-anchor="middle" x="195" y="-759.2" font-family="Times,serif" font-size="14.00" fill="#000000">ti_get_incoming_pos</text>
</g>
<!-- 6&#45;&gt;7 -->
<g id="edge8" class="edge">
<title>6&#45;&gt;7</title>
<path fill="none" stroke="#000000" d="M195,-925.869C195,-894.2476 195,-829.2415 195,-791.7504"/>
<polygon fill="#000000" stroke="#000000" points="198.5001,-791.5107 195,-781.5108 191.5001,-791.5108 198.5001,-791.5107"/>
<text text-anchor="middle" x="213.2742" y="-876.6" font-family="Times,serif" font-size="14.00" fill="#000000">TRUE</text>
</g>
<!-- 12 -->
<g id="node13" class="node">
<title>12</title>
<polygon fill="none" stroke="#000000" points="374.3623,-835.4 213.6377,-835.4 213.6377,-799.4 374.3623,-799.4 374.3623,-835.4"/>
<text text-anchor="middle" x="294" y="-813.2" font-family="Times,serif" font-size="14.00" fill="#000000">meta.meta.direction == 1;</text>
</g>
<!-- 6&#45;&gt;12 -->
<g id="edge9" class="edge">
<title>6&#45;&gt;12</title>
<path fill="none" stroke="#000000" d="M209.1843,-926.0327C226.0193,-904.4703 254.226,-868.3429 273.4502,-843.7204"/>
<polygon fill="#000000" stroke="#000000" points="276.4467,-845.5697 279.842,-835.5336 270.9292,-841.2619 276.4467,-845.5697"/>
<text text-anchor="middle" x="270.3885" y="-876.6" font-family="Times,serif" font-size="14.00" fill="#000000">FALSE</text>
</g>
<!-- 8 -->
<g id="node9" class="node">
<title>8</title>
<ellipse fill="none" stroke="#000000" cx="187" cy="-601.6" rx="82.8032" ry="18"/>
<text text-anchor="middle" x="187" y="-597.4" font-family="Times,serif" font-size="14.00" fill="#000000">ti_calculate_hash1</text>
</g>
<!-- 7&#45;&gt;8 -->
<g id="edge10" class="edge">
<title>7&#45;&gt;8</title>
<path fill="none" stroke="#000000" d="M194.0978,-745.154C192.7174,-717.2351 190.0687,-663.6651 188.4263,-630.4464"/>
<polygon fill="#000000" stroke="#000000" points="191.9008,-629.8425 187.9111,-620.0276 184.9093,-630.1882 191.9008,-629.8425"/>
</g>
<!-- 9 -->
<g id="node10" class="node">
<title>9</title>
<polygon fill="none" stroke="#000000" points="214.8903,-416.6 103.1097,-416.6 103.1097,-380.6 214.8903,-380.6 214.8903,-416.6"/>
<text text-anchor="middle" x="159" y="-394.4" font-family="Times,serif" font-size="14.00" fill="#000000">hdr.tcp.syn == 1;</text>
</g>
<!-- 8&#45;&gt;9 -->
<g id="edge11" class="edge">
<title>8&#45;&gt;9</title>
<path fill="none" stroke="#000000" d="M180,-583.3898C176.5,-572.6947 173,-558.8197 173,-546.1 173,-546.1 173,-546.1 173,-454.1 173,-444.9577 171.1919,-435.2186 168.8753,-426.4924"/>
<polygon fill="#000000" stroke="#000000" points="172.202,-425.4001 166,-416.8102 165.4917,-427.3929 172.202,-425.4001"/>
</g>
<!-- 9&#45;&gt;1 -->
<g id="edge13" class="edge">
<title>9&#45;&gt;1</title>
<path fill="none" stroke="#000000" d="M136.4697,-380.586C113.9593,-361.0041 80.7773,-327.4306 67,-289.8 38.1297,-210.9454 65.2159,-109.7907 81.5906,-61.736"/>
<polygon fill="#000000" stroke="#000000" points="84.9826,-62.6402 84.9957,-52.0454 78.3784,-60.3196 84.9826,-62.6402"/>
<text text-anchor="middle" x="75.3885" y="-204.2" font-family="Times,serif" font-size="14.00" fill="#000000">FALSE</text>
</g>
<!-- 10 -->
<g id="node11" class="node">
<title>10</title>
<ellipse fill="none" stroke="#000000" cx="175" cy="-271.8" rx="99.0129" ry="18"/>
<text text-anchor="middle" x="175" y="-267.6" font-family="Times,serif" font-size="14.00" fill="#000000">ti_write_bloom_filter1</text>
</g>
<!-- 9&#45;&gt;10 -->
<g id="edge12" class="edge">
<title>9&#45;&gt;10</title>
<path fill="none" stroke="#000000" d="M161.2924,-380.4327C163.9419,-359.4352 168.3343,-324.6261 171.4317,-300.079"/>
<polygon fill="#000000" stroke="#000000" points="174.9323,-300.2932 172.7118,-289.9336 167.9874,-299.4168 174.9323,-300.2932"/>
<text text-anchor="middle" x="185.2742" y="-331" font-family="Times,serif" font-size="14.00" fill="#000000">TRUE</text>
</g>
<!-- 11 -->
<g id="node12" class="node">
<title>11</title>
<ellipse fill="none" stroke="#000000" cx="175" cy="-145" rx="99.0129" ry="18"/>
<text text-anchor="middle" x="175" y="-140.8" font-family="Times,serif" font-size="14.00" fill="#000000">ti_write_bloom_filter2</text>
</g>
<!-- 10&#45;&gt;11 -->
<g id="edge14" class="edge">
<title>10&#45;&gt;11</title>
<path fill="none" stroke="#000000" d="M175,-253.6327C175,-232.6352 175,-197.8261 175,-173.279"/>
<polygon fill="#000000" stroke="#000000" points="178.5001,-173.1336 175,-163.1336 171.5001,-173.1337 178.5001,-173.1336"/>
</g>
<!-- 11&#45;&gt;1 -->
<g id="edge15" class="edge">
<title>11&#45;&gt;1</title>
<path fill="none" stroke="#000000" d="M161.2942,-126.6706C147.838,-108.6749 127.1664,-81.0298 111.9008,-60.6143"/>
<polygon fill="#000000" stroke="#000000" points="114.5176,-58.2693 105.7261,-52.3566 108.9116,-62.4613 114.5176,-58.2693"/>
</g>
<!-- 12&#45;&gt;1 -->
<g id="edge17" class="edge">
<title>12&#45;&gt;1</title>
<path fill="none" stroke="#000000" d="M292.8363,-799.3437C291.8758,-784.7774 290.441,-763.7628 289,-745.4 286.1309,-708.8394 261.8232,-453.2381 260.223,-416.6 259.5248,-400.6152 258.2617,-396.4793 260.223,-380.6 268.3378,-314.8988 293,-301.5005 293,-235.3 293,-235.3 293,-235.3 293,-89.5 293,-57.9303 199.7047,-43.6162 140.2364,-37.6988"/>
<polygon fill="#000000" stroke="#000000" points="140.5655,-34.2144 130.2797,-36.7544 139.9045,-41.1831 140.5655,-34.2144"/>
<text text-anchor="middle" x="281.3885" y="-394.4" font-family="Times,serif" font-size="14.00" fill="#000000">FALSE</text>
</g>
<!-- 13 -->
<g id="node14" class="node">
<title>13</title>
<ellipse fill="none" stroke="#000000" cx="394" cy="-655.6" rx="90.3776" ry="18"/>
<text text-anchor="middle" x="394" y="-651.4" font-family="Times,serif" font-size="14.00" fill="#000000">ti_get_outgoing_pos</text>
</g>
<!-- 12&#45;&gt;13 -->
<g id="edge16" class="edge">
<title>12&#45;&gt;13</title>
<path fill="none" stroke="#000000" d="M305.2769,-799.154C322.9255,-770.5985 357.1591,-715.2086 377.5561,-682.2062"/>
<polygon fill="#000000" stroke="#000000" points="380.6368,-683.879 382.9169,-673.5324 374.6822,-680.1988 380.6368,-683.879"/>
<text text-anchor="middle" x="377.2742" y="-714.8" font-family="Times,serif" font-size="14.00" fill="#000000">TRUE</text>
</g>
<!-- 14 -->
<g id="node15" class="node">
<title>14</title>
<ellipse fill="none" stroke="#000000" cx="406" cy="-509.6" rx="82.8032" ry="18"/>
<text text-anchor="middle" x="406" y="-505.4" font-family="Times,serif" font-size="14.00" fill="#000000">ti_calculate_hash2</text>
</g>
<!-- 13&#45;&gt;14 -->
<g id="edge18" class="edge">
<title>13&#45;&gt;14</title>
<path fill="none" stroke="#000000" d="M395.4955,-637.4042C397.5436,-612.4868 401.2416,-567.4938 403.6585,-538.0877"/>
<polygon fill="#000000" stroke="#000000" points="407.1546,-538.2782 404.4856,-528.0251 400.1781,-537.7048 407.1546,-538.2782"/>
</g>
<!-- 15 -->
<g id="node16" class="node">
<title>15</title>
<ellipse fill="none" stroke="#000000" cx="408" cy="-398.6" rx="95.5664" ry="18"/>
<text text-anchor="middle" x="408" y="-394.4" font-family="Times,serif" font-size="14.00" fill="#000000">ti_read_bloom_filter1</text>
</g>
<!-- 14&#45;&gt;15 -->
<g id="edge19" class="edge">
<title>14&#45;&gt;15</title>
<path fill="none" stroke="#000000" d="M406.3303,-491.2706C406.6444,-473.8373 407.1217,-447.3482 407.4856,-427.1489"/>
<polygon fill="#000000" stroke="#000000" points="410.9884,-427.0181 407.6693,-416.9566 403.9896,-426.8919 410.9884,-427.0181"/>
</g>
<!-- 16 -->
<g id="node17" class="node">
<title>16</title>
<ellipse fill="none" stroke="#000000" cx="408" cy="-271.8" rx="95.5664" ry="18"/>
<text text-anchor="middle" x="408" y="-267.6" font-family="Times,serif" font-size="14.00" fill="#000000">ti_read_bloom_filter2</text>
</g>
<!-- 15&#45;&gt;16 -->
<g id="edge20" class="edge">
<title>15&#45;&gt;16</title>
<path fill="none" stroke="#000000" d="M408,-380.4327C408,-359.4352 408,-324.6261 408,-300.079"/>
<polygon fill="#000000" stroke="#000000" points="411.5001,-299.9336 408,-289.9336 404.5001,-299.9337 411.5001,-299.9336"/>
</g>
<!-- 17 -->
<g id="node18" class="node">
<title>17</title>
<ellipse fill="none" stroke="#000000" cx="393" cy="-145" rx="66.0685" ry="18"/>
<text text-anchor="middle" x="393" y="-140.8" font-family="Times,serif" font-size="14.00" fill="#000000">ti_apply_filter</text>
</g>
<!-- 16&#45;&gt;17 -->
<g id="edge21" class="edge">
<title>16&#45;&gt;17</title>
<path fill="none" stroke="#000000" d="M405.8509,-253.6327C403.3669,-232.6352 399.2491,-197.8261 396.3453,-173.279"/>
<polygon fill="#000000" stroke="#000000" points="399.7958,-172.6532 395.1451,-163.1336 392.8442,-173.4756 399.7958,-172.6532"/>
</g>
<!-- 17&#45;&gt;1 -->
<g id="edge22" class="edge">
<title>17&#45;&gt;1</title>
<path fill="none" stroke="#000000" d="M376.2206,-127.3882C358.4951,-109.9177 328.8823,-83.8152 298,-70 270.4257,-57.6646 191.6578,-46.1547 139.9015,-39.6092"/>
<polygon fill="#000000" stroke="#000000" points="140.2896,-36.1305 129.9336,-38.3675 139.4242,-43.0769 140.2896,-36.1305"/>
</g>
</g>
</svg>
