<?xml version="1.0" encoding="UTF-8" standalone="no"?>
<!DOCTYPE svg PUBLIC "-//W3C//DTD SVG 1.1//EN"
 "http://www.w3.org/Graphics/SVG/1.1/DTD/svg11.dtd">
<!-- Generated by graphviz version 2.40.1 (20161225.0304)
 -->
<!-- Title: ingress Pages: 1 -->
<svg width="523pt" height="1392pt"
 viewBox="0.00 0.00 523.00 1391.80" xmlns="http://www.w3.org/2000/svg" xmlns:xlink="http://www.w3.org/1999/xlink">
<g id="graph0" class="graph" transform="scale(1 1) rotate(0) translate(4 1387.8)">
<title>ingress</title>
<polygon fill="#ffffff" stroke="transparent" points="-4,4 -4,-1387.8 519,-1387.8 519,4 -4,4"/>
<g id="clust1" class="cluster">
<title>cluster</title>
<polygon fill="none" stroke="#000000" stroke-width="2" points="8,-8 8,-1375.8 507,-1375.8 507,-8 8,-8"/>
</g>
<!-- 0 -->
<g id="node1" class="node">
<title>0</title>
<polygon fill="none" stroke="#000000" points="132.3316,-1367.8 43.6684,-1367.8 43.6684,-1331.8 132.3316,-1331.8 132.3316,-1367.8"/>
<text text-anchor="middle" x="88" y="-1345.6" font-family="Times,serif" font-size="14.00" fill="#000000">__START__</text>
</g>
<!-- 2 -->
<g id="node3" class="node">
<title>2</title>
<polygon fill="none" stroke="#000000" points="148.2008,-1256.8 27.7992,-1256.8 27.7992,-1220.8 148.2008,-1220.8 148.2008,-1256.8"/>
<text text-anchor="middle" x="88" y="-1234.6" font-family="Times,serif" font-size="14.00" fill="#000000">hdr.ipv4.isValid();</text>
</g>
<!-- 0&#45;&gt;2 -->
<g id="edge1" class="edge">
<title>0&#45;&gt;2</title>
<path fill="none" stroke="#000000" d="M88,-1331.4706C88,-1314.0373 88,-1287.5482 88,-1267.3489"/>
<polygon fill="#000000" stroke="#000000" points="91.5001,-1267.1566 88,-1257.1566 84.5001,-1267.1567 91.5001,-1267.1566"/>
</g>
<!-- 1 -->
<g id="node2" class="node">
<title>1</title>
<polygon fill="none" stroke="#000000" points="126.8725,-52 51.1275,-52 51.1275,-16 126.8725,-16 126.8725,-52"/>
<text text-anchor="middle" x="89" y="-29.8" font-family="Times,serif" font-size="14.00" fill="#000000">__EXIT__</text>
</g>
<!-- 2&#45;&gt;1 -->
<g id="edge3" class="edge">
<title>2&#45;&gt;1</title>
<path fill="none" stroke="#000000" d="M60.6836,-1220.7161C47.2899,-1209.5089 34,-1193.7621 34,-1175.4 34,-1175.4 34,-1175.4 34,-672.9 34,-632.0087 33,-621.7913 33,-580.9 33,-580.9 33,-580.9 33,-398.6 33,-358.4642 32,-348.4358 32,-308.3 32,-308.3 32,-308.3 32,-89.5 32,-77.4146 38.659,-67.1069 47.425,-58.7736"/>
<polygon fill="#000000" stroke="#000000" points="49.7876,-61.3598 55.1841,-52.2422 45.2797,-56.0045 49.7876,-61.3598"/>
<text text-anchor="middle" x="54.3885" y="-632.2" font-family="Times,serif" font-size="14.00" fill="#000000">FALSE</text>
</g>
<!-- 3 -->
<g id="node4" class="node">
<title>3</title>
<ellipse fill="none" stroke="#000000" cx="106" cy="-1112" rx="48.1167" ry="18"/>
<text text-anchor="middle" x="106" y="-1107.8" font-family="Times,serif" font-size="14.00" fill="#000000">ipv4_lpm</text>
</g>
<!-- 2&#45;&gt;3 -->
<g id="edge2" class="edge">
<title>2&#45;&gt;3</title>
<path fill="none" stroke="#000000" d="M90.579,-1220.6327C93.5597,-1199.6352 98.501,-1164.8261 101.9856,-1140.279"/>
<polygon fill="#000000" stroke="#000000" points="105.4855,-1140.5263 103.4258,-1130.1336 98.555,-1139.5424 105.4855,-1140.5263"/>
<text text-anchor="middle" x="115.2742" y="-1171.2" font-family="Times,serif" font-size="14.00" fill="#000000">TRUE</text>
</g>
<!-- 4 -->
<g id="node5" class="node">
<title>4</title>
<ellipse fill="none" stroke="#000000" cx="132" cy="-1001" rx="57.8868" ry="18"/>
<text text-anchor="middle" x="132" y="-996.8" font-family="Times,serif" font-size="14.00" fill="#000000">check_ports</text>
</g>
<!-- 3&#45;&gt;4 -->
<g id="edge4" class="edge">
<title>3&#45;&gt;4</title>
<path fill="none" stroke="#000000" d="M110.2934,-1093.6706C114.4202,-1076.0521 120.7136,-1049.1843 125.4632,-1028.9073"/>
<polygon fill="#000000" stroke="#000000" points="128.9136,-1029.523 127.7865,-1018.9883 122.0981,-1027.9266 128.9136,-1029.523"/>
</g>
<!-- 5 -->
<g id="node6" class="node">
<title>5</title>
<polygon fill="none" stroke="#000000" points="253.022,-908 52.978,-908 52.978,-872 253.022,-872 253.022,-908"/>
<text text-anchor="middle" x="153" y="-885.8" font-family="Times,serif" font-size="14.00" fill="#000000">meta.meta.check_ports_hit == 1;</text>
</g>
<!-- 4&#45;&gt;5 -->
<g id="edge5" class="edge">
<title>4&#45;&gt;5</title>
<path fill="none" stroke="#000000" d="M135.4677,-982.6706C138.7811,-965.1569 143.8236,-938.5039 147.6516,-918.2701"/>
<polygon fill="#000000" stroke="#000000" points="151.1071,-918.833 149.5271,-908.3566 144.2291,-917.5317 151.1071,-918.833"/>
</g>
<!-- 5&#45;&gt;1 -->
<g id="edge7" class="edge">
<title>5&#45;&gt;1</title>
<path fill="none" stroke="#000000" d="M123.8321,-871.9849C109.8082,-860.8997 96,-845.2497 96,-826.6 96,-826.6 96,-826.6 96,-672.9 96,-509.6798 52,-471.5202 52,-308.3 52,-308.3 52,-308.3 52,-89.5 52,-78.904 56.7268,-68.7923 62.8014,-60.1724"/>
<polygon fill="#000000" stroke="#000000" points="65.7389,-62.1006 69.2002,-52.0871 60.2499,-57.7565 65.7389,-62.1006"/>
<text text-anchor="middle" x="90.3885" y="-457.8" font-family="Times,serif" font-size="14.00" fill="#000000">FALSE</text>
</g>
<!-- 6 -->
<g id="node7" class="node">
<title>6</title>
<polygon fill="none" stroke="#000000" points="288.3623,-781.2 127.6377,-781.2 127.6377,-745.2 288.3623,-745.2 288.3623,-781.2"/>
<text text-anchor="middle" x="208" y="-759" font-family="Times,serif" font-size="14.00" fill="#000000">meta.meta.direction == 0;</text>
</g>
<!-- 5&#45;&gt;6 -->
<g id="edge6" class="edge">
<title>5&#45;&gt;6</title>
<path fill="none" stroke="#000000" d="M160.8802,-871.8327C170.0696,-850.6469 185.3578,-815.4006 196.0193,-790.8211"/>
<polygon fill="#000000" stroke="#000000" points="199.366,-791.9006 200.1345,-781.3336 192.9441,-789.115 199.366,-791.9006"/>
<text text-anchor="middle" x="201.2742" y="-822.4" font-family="Times,serif" font-size="14.00" fill="#000000">TRUE</text>
</g>
<!-- 7 -->
<g id="node8" class="node">
<title>7</title>
<ellipse fill="none" stroke="#000000" cx="208" cy="-636.4" rx="92.6615" ry="18"/>
<text text-anchor="middle" x="208" y="-632.2" font-family="Times,serif" font-size="14.00" fill="#000000">ti_get_incoming_pos</text>
</g>
<!-- 6&#45;&gt;7 -->
<g id="edge8" class="edge">
<title>6&#45;&gt;7</title>
<path fill="none" stroke="#000000" d="M208,-745.0327C208,-724.0352 208,-689.2261 208,-664.679"/>
<polygon fill="#000000" stroke="#000000" points="211.5001,-664.5336 208,-654.5336 204.5001,-664.5337 211.5001,-664.5336"/>
<text text-anchor="middle" x="226.2742" y="-695.6" font-family="Times,serif" font-size="14.00" fill="#000000">TRUE</text>
</g>
<!-- 12 -->
<g id="node13" class="node">
<title>12</title>
<ellipse fill="none" stroke="#000000" cx="409" cy="-636.4" rx="90.3776" ry="18"/>
<text text-anchor="middle" x="409" y="-632.2" font-family="Times,serif" font-size="14.00" fill="#000000">ti_get_outgoing_pos</text>
</g>
<!-- 6&#45;&gt;12 -->
<g id="edge9" class="edge">
<title>6&#45;&gt;12</title>
<path fill="none" stroke="#000000" d="M236.7984,-745.0327C272.5746,-722.4634 333.6453,-683.9372 372.6218,-659.3491"/>
<polygon fill="#000000" stroke="#000000" points="374.9552,-662.0153 381.5454,-653.7196 371.2203,-656.0949 374.9552,-662.0153"/>
<text text-anchor="middle" x="339.3885" y="-695.6" font-family="Times,serif" font-size="14.00" fill="#000000">FALSE</text>
</g>
<!-- 8 -->
<g id="node9" class="node">
<title>8</title>
<ellipse fill="none" stroke="#000000" cx="197" cy="-525.4" rx="82.8032" ry="18"/>
<text text-anchor="middle" x="197" y="-521.2" font-family="Times,serif" font-size="14.00" fill="#000000">ti_calculate_hash1</text>
</g>
<!-- 7&#45;&gt;8 -->
<g id="edge10" class="edge">
<title>7&#45;&gt;8</title>
<path fill="none" stroke="#000000" d="M206.1836,-618.0706C204.4559,-600.6373 201.8309,-574.1482 199.8292,-553.9489"/>
<polygon fill="#000000" stroke="#000000" points="203.2883,-553.3627 198.8191,-543.7566 196.3224,-554.0531 203.2883,-553.3627"/>
</g>
<!-- 9 -->
<g id="node10" class="node">
<title>9</title>
<polygon fill="none" stroke="#000000" points="245.8903,-416.6 134.1097,-416.6 134.1097,-380.6 245.8903,-380.6 245.8903,-416.6"/>
<text text-anchor="middle" x="190" y="-394.4" font-family="Times,serif" font-size="14.00" fill="#000000">hdr.tcp.syn == 1;</text>
</g>
<!-- 8&#45;&gt;9 -->
<g id="edge11" class="edge">
<title>8&#45;&gt;9</title>
<path fill="none" stroke="#000000" d="M195.9971,-507.2327C194.8379,-486.2352 192.9163,-451.4261 191.5611,-426.879"/>
<polygon fill="#000000" stroke="#000000" points="195.0471,-426.5255 191.0011,-416.7336 188.0577,-426.9114 195.0471,-426.5255"/>
</g>
<!-- 9&#45;&gt;1 -->
<g id="edge13" class="edge">
<title>9&#45;&gt;1</title>
<path fill="none" stroke="#000000" d="M162.1776,-380.4282C135.8793,-361.4208 98.1221,-328.9263 82,-289.8 75.9043,-275.0067 81.2282,-269.7814 82,-253.8 83.5574,-221.554 89,-213.7836 89,-181.5 89,-181.5 89,-181.5 89,-89.5 89,-80.7318 89,-71.1843 89,-62.5196"/>
<polygon fill="#000000" stroke="#000000" points="92.5001,-62.5 89,-52.5 85.5001,-62.5 92.5001,-62.5"/>
<text text-anchor="middle" x="109.3885" y="-204.2" font-family="Times,serif" font-size="14.00" fill="#000000">FALSE</text>
</g>
<!-- 10 -->
<g id="node11" class="node">
<title>10</title>
<ellipse fill="none" stroke="#000000" cx="190" cy="-271.8" rx="99.0129" ry="18"/>
<text text-anchor="middle" x="190" y="-267.6" font-family="Times,serif" font-size="14.00" fill="#000000">ti_write_bloom_filter1</text>
</g>
<!-- 9&#45;&gt;10 -->
<g id="edge12" class="edge">
<title>9&#45;&gt;10</title>
<path fill="none" stroke="#000000" d="M190,-380.4327C190,-359.4352 190,-324.6261 190,-300.079"/>
<polygon fill="#000000" stroke="#000000" points="193.5001,-299.9336 190,-289.9336 186.5001,-299.9337 193.5001,-299.9336"/>
<text text-anchor="middle" x="208.2742" y="-331" font-family="Times,serif" font-size="14.00" fill="#000000">TRUE</text>
</g>
<!-- 11 -->
<g id="node12" class="node">
<title>11</title>
<ellipse fill="none" stroke="#000000" cx="207" cy="-145" rx="99.0129" ry="18"/>
<text text-anchor="middle" x="207" y="-140.8" font-family="Times,serif" font-size="14.00" fill="#000000">ti_write_bloom_filter2</text>
</g>
<!-- 10&#45;&gt;11 -->
<g id="edge14" class="edge">
<title>10&#45;&gt;11</title>
<path fill="none" stroke="#000000" d="M192.4357,-253.6327C195.2508,-232.6352 199.9176,-197.8261 203.2086,-173.279"/>
<polygon fill="#000000" stroke="#000000" points="206.7089,-173.5101 204.5688,-163.1336 199.771,-172.5799 206.7089,-173.5101"/>
</g>
<!-- 11&#45;&gt;1 -->
<g id="edge15" class="edge">
<title>11&#45;&gt;1</title>
<path fill="none" stroke="#000000" d="M188.0413,-127.1659C168.4602,-108.7464 137.7379,-79.8467 115.7029,-59.1189"/>
<polygon fill="#000000" stroke="#000000" points="117.9857,-56.461 108.3037,-52.1586 113.1894,-61.5597 117.9857,-56.461"/>
</g>
<!-- 13 -->
<g id="node14" class="node">
<title>13</title>
<ellipse fill="none" stroke="#000000" cx="407" cy="-525.4" rx="82.8032" ry="18"/>
<text text-anchor="middle" x="407" y="-521.2" font-family="Times,serif" font-size="14.00" fill="#000000">ti_calculate_hash2</text>
</g>
<!-- 12&#45;&gt;13 -->
<g id="edge16" class="edge">
<title>12&#45;&gt;13</title>
<path fill="none" stroke="#000000" d="M408.6697,-618.0706C408.3556,-600.6373 407.8783,-574.1482 407.5144,-553.9489"/>
<polygon fill="#000000" stroke="#000000" points="411.0104,-553.6919 407.3307,-543.7566 404.0116,-553.8181 411.0104,-553.6919"/>
</g>
<!-- 14 -->
<g id="node15" class="node">
<title>14</title>
<ellipse fill="none" stroke="#000000" cx="403" cy="-398.6" rx="95.5664" ry="18"/>
<text text-anchor="middle" x="403" y="-394.4" font-family="Times,serif" font-size="14.00" fill="#000000">ti_read_bloom_filter1</text>
</g>
<!-- 13&#45;&gt;14 -->
<g id="edge17" class="edge">
<title>13&#45;&gt;14</title>
<path fill="none" stroke="#000000" d="M406.4269,-507.2327C405.7645,-486.2352 404.6664,-451.4261 403.8921,-426.879"/>
<polygon fill="#000000" stroke="#000000" points="407.3857,-426.6183 403.572,-416.7336 400.3892,-426.8391 407.3857,-426.6183"/>
</g>
<!-- 15 -->
<g id="node16" class="node">
<title>15</title>
<ellipse fill="none" stroke="#000000" cx="403" cy="-271.8" rx="95.5664" ry="18"/>
<text text-anchor="middle" x="403" y="-267.6" font-family="Times,serif" font-size="14.00" fill="#000000">ti_read_bloom_filter2</text>
</g>
<!-- 14&#45;&gt;15 -->
<g id="edge18" class="edge">
<title>14&#45;&gt;15</title>
<path fill="none" stroke="#000000" d="M403,-380.4327C403,-359.4352 403,-324.6261 403,-300.079"/>
<polygon fill="#000000" stroke="#000000" points="406.5001,-299.9336 403,-289.9336 399.5001,-299.9337 406.5001,-299.9336"/>
</g>
<!-- 16 -->
<g id="node17" class="node">
<title>16</title>
<ellipse fill="none" stroke="#000000" cx="396" cy="-145" rx="66.0685" ry="18"/>
<text text-anchor="middle" x="396" y="-140.8" font-family="Times,serif" font-size="14.00" fill="#000000">ti_apply_filter</text>
</g>
<!-- 15&#45;&gt;16 -->
<g id="edge19" class="edge">
<title>15&#45;&gt;16</title>
<path fill="none" stroke="#000000" d="M401.9971,-253.6327C400.8379,-232.6352 398.9163,-197.8261 397.5611,-173.279"/>
<polygon fill="#000000" stroke="#000000" points="401.0471,-172.9255 397.0011,-163.1336 394.0577,-173.3114 401.0471,-172.9255"/>
</g>
<!-- 16&#45;&gt;1 -->
<g id="edge20" class="edge">
<title>16&#45;&gt;1</title>
<path fill="none" stroke="#000000" d="M356.1798,-130.6025C299.9315,-110.2651 197.3505,-73.1756 136.9763,-51.3465"/>
<polygon fill="#000000" stroke="#000000" points="137.8952,-47.957 127.3009,-47.8482 135.515,-54.54 137.8952,-47.957"/>
</g>
</g>
</svg>
