<?xml version="1.0" encoding="UTF-8" standalone="no"?>
<!DOCTYPE svg PUBLIC "-//W3C//DTD SVG 1.1//EN"
 "http://www.w3.org/Graphics/SVG/1.1/DTD/svg11.dtd">
<!-- Generated by graphviz version 2.40.1 (20161225.0304)
 -->
<!-- Title: egress Pages: 1 -->
<svg width="158pt" height="220pt"
 viewBox="0.00 0.00 158.00 220.00" xmlns="http://www.w3.org/2000/svg" xmlns:xlink="http://www.w3.org/1999/xlink">
<g id="graph0" class="graph" transform="scale(1 1) rotate(0) translate(4 216)">
<title>egress</title>
<polygon fill="#ffffff" stroke="transparent" points="-4,4 -4,-216 154,-216 154,4 -4,4"/>
<g id="clust1" class="cluster">
<title>cluster</title>
<polygon fill="none" stroke="#000000" stroke-width="2" points="8,-8 8,-204 142,-204 142,-8 8,-8"/>
</g>
<!-- 0 -->
<g id="node1" class="node">
<title>0</title>
<polygon fill="none" stroke="#000000" points="119.3316,-196 30.6684,-196 30.6684,-160 119.3316,-160 119.3316,-196"/>
<text text-anchor="middle" x="75" y="-173.8" font-family="Times,serif" font-size="14.00" fill="#000000">__START__</text>
</g>
<!-- 2 -->
<g id="node3" class="node">
<title>2</title>
<ellipse fill="none" stroke="#000000" cx="75" cy="-106" rx="59.0852" ry="18"/>
<text text-anchor="middle" x="75" y="-101.8" font-family="Times,serif" font-size="14.00" fill="#000000">rewrite_mac</text>
</g>
<!-- 0&#45;&gt;2 -->
<g id="edge1" class="edge">
<title>0&#45;&gt;2</title>
<path fill="none" stroke="#000000" d="M75,-159.8314C75,-152.131 75,-142.9743 75,-134.4166"/>
<polygon fill="#000000" stroke="#000000" points="78.5001,-134.4132 75,-124.4133 71.5001,-134.4133 78.5001,-134.4132"/>
</g>
<!-- 1 -->
<g id="node2" class="node">
<title>1</title>
<polygon fill="none" stroke="#000000" points="112.8725,-52 37.1275,-52 37.1275,-16 112.8725,-16 112.8725,-52"/>
<text text-anchor="middle" x="75" y="-29.8" font-family="Times,serif" font-size="14.00" fill="#000000">__EXIT__</text>
</g>
<!-- 2&#45;&gt;1 -->
<g id="edge2" class="edge">
<title>2&#45;&gt;1</title>
<path fill="none" stroke="#000000" d="M75,-87.8314C75,-80.131 75,-70.9743 75,-62.4166"/>
<polygon fill="#000000" stroke="#000000" points="78.5001,-62.4132 75,-52.4133 71.5001,-62.4133 78.5001,-62.4132"/>
</g>
</g>
</svg>
