<?xml version="1.0" encoding="UTF-8" standalone="no"?>
<!DOCTYPE svg PUBLIC "-//W3C//DTD SVG 1.1//EN"
 "http://www.w3.org/Graphics/SVG/1.1/DTD/svg11.dtd">
<!-- Generated by graphviz version 2.40.1 (20161225.0304)
 -->
<!-- Title: egress Pages: 1 -->
<svg width="126pt" height="148pt"
 viewBox="0.00 0.00 126.00 148.00" xmlns="http://www.w3.org/2000/svg" xmlns:xlink="http://www.w3.org/1999/xlink">
<g id="graph0" class="graph" transform="scale(1 1) rotate(0) translate(4 144)">
<title>egress</title>
<polygon fill="#ffffff" stroke="transparent" points="-4,4 -4,-144 122,-144 122,4 -4,4"/>
<g id="clust1" class="cluster">
<title>cluster</title>
<polygon fill="none" stroke="#000000" stroke-width="2" points="8,-8 8,-132 110,-132 110,-8 8,-8"/>
</g>
<!-- 0 -->
<g id="node1" class="node">
<title>0</title>
<polygon fill="none" stroke="#000000" points="102,-124 16,-124 16,-88 102,-88 102,-124"/>
<text text-anchor="middle" x="59" y="-102.3" font-family="Times,serif" font-size="14.00" fill="#000000">__START__</text>
</g>
<!-- 1 -->
<g id="node2" class="node">
<title>1</title>
<polygon fill="none" stroke="#000000" points="96,-52 22,-52 22,-16 96,-16 96,-52"/>
<text text-anchor="middle" x="59" y="-30.3" font-family="Times,serif" font-size="14.00" fill="#000000">__EXIT__</text>
</g>
<!-- 0&#45;&gt;1 -->
<g id="edge1" class="edge">
<title>0&#45;&gt;1</title>
<path fill="none" stroke="#000000" d="M59,-87.8314C59,-80.131 59,-70.9743 59,-62.4166"/>
<polygon fill="#000000" stroke="#000000" points="62.5001,-62.4132 59,-52.4133 55.5001,-62.4133 62.5001,-62.4132"/>
</g>
</g>
</svg>
