<?xml version="1.0" encoding="UTF-8" standalone="no"?>
<!DOCTYPE svg PUBLIC "-//W3C//DTD SVG 1.1//EN"
 "http://www.w3.org/Graphics/SVG/1.1/DTD/svg11.dtd">
<!-- Generated by graphviz version 2.40.1 (20161225.0304)
 -->
<!-- Title: egress Pages: 1 -->
<svg width="128pt" height="148pt"
 viewBox="0.00 0.00 128.00 148.00" xmlns="http://www.w3.org/2000/svg" xmlns:xlink="http://www.w3.org/1999/xlink">
<g id="graph0" class="graph" transform="scale(1 1) rotate(0) translate(4 144)">
<title>egress</title>
<polygon fill="#ffffff" stroke="transparent" points="-4,4 -4,-144 124,-144 124,4 -4,4"/>
<g id="clust1" class="cluster">
<title>cluster</title>
<polygon fill="none" stroke="#000000" stroke-width="2" points="8,-8 8,-132 112,-132 112,-8 8,-8"/>
</g>
<!-- 0 -->
<g id="node1" class="node">
<title>0</title>
<polygon fill="none" stroke="#000000" points="104.3316,-124 15.6684,-124 15.6684,-88 104.3316,-88 104.3316,-124"/>
<text text-anchor="middle" x="60" y="-101.8" font-family="Times,serif" font-size="14.00" fill="#000000">__START__</text>
</g>
<!-- 1 -->
<g id="node2" class="node">
<title>1</title>
<polygon fill="none" stroke="#000000" points="97.8725,-52 22.1275,-52 22.1275,-16 97.8725,-16 97.8725,-52"/>
<text text-anchor="middle" x="60" y="-29.8" font-family="Times,serif" font-size="14.00" fill="#000000">__EXIT__</text>
</g>
<!-- 0&#45;&gt;1 -->
<g id="edge1" class="edge">
<title>0&#45;&gt;1</title>
<path fill="none" stroke="#000000" d="M60,-87.8314C60,-80.131 60,-70.9743 60,-62.4166"/>
<polygon fill="#000000" stroke="#000000" points="63.5001,-62.4132 60,-52.4133 56.5001,-62.4133 63.5001,-62.4132"/>
</g>
</g>
</svg>
