<?xml version="1.0" encoding="UTF-8" standalone="no"?>
<!DOCTYPE svg PUBLIC "-//W3C//DTD SVG 1.1//EN"
 "http://www.w3.org/Graphics/SVG/1.1/DTD/svg11.dtd">
<!-- Generated by graphviz version 2.40.1 (20161225.0304)
 -->
<!-- Title: ingress Pages: 1 -->
<svg width="512pt" height="1131pt"
 viewBox="0.00 0.00 512.00 1131.00" xmlns="http://www.w3.org/2000/svg" xmlns:xlink="http://www.w3.org/1999/xlink">
<g id="graph0" class="graph" transform="scale(1 1) rotate(0) translate(4 1127)">
<title>ingress</title>
<polygon fill="#ffffff" stroke="transparent" points="-4,4 -4,-1127 508,-1127 508,4 -4,4"/>
<g id="clust1" class="cluster">
<title>cluster</title>
<polygon fill="none" stroke="#000000" stroke-width="2" points="8,-8 8,-1115 496,-1115 496,-8 8,-8"/>
</g>
<!-- 0 -->
<g id="node1" class="node">
<title>0</title>
<polygon fill="none" stroke="#000000" points="443,-1107 357,-1107 357,-1071 443,-1071 443,-1107"/>
<text text-anchor="middle" x="400" y="-1085.3" font-family="Times,serif" font-size="14.00" fill="#000000">__START__</text>
</g>
<!-- 2 -->
<g id="node3" class="node">
<title>2</title>
<polygon fill="none" stroke="#000000" points="465.5,-996 334.5,-996 334.5,-960 465.5,-960 465.5,-996"/>
<text text-anchor="middle" x="400" y="-974.3" font-family="Times,serif" font-size="14.00" fill="#000000">hdr.nc_hdr.isValid();</text>
</g>
<!-- 0&#45;&gt;2 -->
<g id="edge1" class="edge">
<title>0&#45;&gt;2</title>
<path fill="none" stroke="#000000" d="M400,-1070.6706C400,-1053.2373 400,-1026.7482 400,-1006.5489"/>
<polygon fill="#000000" stroke="#000000" points="403.5001,-1006.3566 400,-996.3566 396.5001,-1006.3567 403.5001,-1006.3566"/>
</g>
<!-- 1 -->
<g id="node2" class="node">
<title>1</title>
<polygon fill="none" stroke="#000000" points="444,-52 370,-52 370,-16 444,-16 444,-52"/>
<text text-anchor="middle" x="407" y="-30.3" font-family="Times,serif" font-size="14.00" fill="#000000">__EXIT__</text>
</g>
<!-- 3 -->
<g id="node4" class="node">
<title>3</title>
<ellipse fill="none" stroke="#000000" cx="366" cy="-853" rx="57.3905" ry="18"/>
<text text-anchor="middle" x="366" y="-849.3" font-family="Times,serif" font-size="14.00" fill="#000000">decode_table</text>
</g>
<!-- 2&#45;&gt;3 -->
<g id="edge2" class="edge">
<title>2&#45;&gt;3</title>
<path fill="none" stroke="#000000" d="M395.0561,-959.8239C389.4409,-939.1798 380.2101,-905.2431 373.6608,-881.1648"/>
<polygon fill="#000000" stroke="#000000" points="376.9519,-879.9288 370.9499,-871.198 370.1973,-881.7661 376.9519,-879.9288"/>
<text text-anchor="middle" x="402" y="-911.8" font-family="Times,serif" font-size="14.00" fill="#000000">TRUE</text>
</g>
<!-- 11 -->
<g id="node12" class="node">
<title>11</title>
<ellipse fill="none" stroke="#000000" cx="407" cy="-145" rx="48.9926" ry="18"/>
<text text-anchor="middle" x="407" y="-141.3" font-family="Times,serif" font-size="14.00" fill="#000000">ipv4_route</text>
</g>
<!-- 2&#45;&gt;11 -->
<g id="edge3" class="edge">
<title>2&#45;&gt;11</title>
<path fill="none" stroke="#000000" d="M422.7305,-959.9482C434.3196,-948.6142 446,-932.8799 446,-915.5 446,-915.5 446,-915.5 446,-580.5 446,-467.9046 487,-443.0954 487,-330.5 487,-330.5 487,-330.5 487,-200.5 487,-181.9585 472.3133,-169.1169 455.5254,-160.4948"/>
<polygon fill="#000000" stroke="#000000" points="456.6091,-157.1402 446.0626,-156.1294 453.6768,-163.4965 456.6091,-157.1402"/>
<text text-anchor="middle" x="468" y="-550.8" font-family="Times,serif" font-size="14.00" fill="#000000">FALSE</text>
</g>
<!-- 4 -->
<g id="node5" class="node">
<title>4</title>
<polygon fill="none" stroke="#000000" points="411,-760 283,-760 283,-724 411,-724 411,-760"/>
<text text-anchor="middle" x="347" y="-738.3" font-family="Times,serif" font-size="14.00" fill="#000000">hdr.nc_hdr.op == 0;</text>
</g>
<!-- 3&#45;&gt;4 -->
<g id="edge4" class="edge">
<title>3&#45;&gt;4</title>
<path fill="none" stroke="#000000" d="M362.8625,-834.6706C359.8647,-817.1569 355.3025,-790.5039 351.839,-770.2701"/>
<polygon fill="#000000" stroke="#000000" points="355.2792,-769.6227 350.1421,-760.3566 348.3796,-770.8038 355.2792,-769.6227"/>
</g>
<!-- 5 -->
<g id="node6" class="node">
<title>5</title>
<ellipse fill="none" stroke="#000000" cx="210" cy="-617" rx="77.1866" ry="18"/>
<text text-anchor="middle" x="210" y="-613.3" font-family="Times,serif" font-size="14.00" fill="#000000">acquire_lock_table</text>
</g>
<!-- 4&#45;&gt;5 -->
<g id="edge5" class="edge">
<title>4&#45;&gt;5</title>
<path fill="none" stroke="#000000" d="M327.079,-723.8239C303.3033,-702.1308 263.4408,-665.7599 236.9328,-641.5737"/>
<polygon fill="#000000" stroke="#000000" points="239.2477,-638.9479 229.5014,-634.7933 234.5296,-644.119 239.2477,-638.9479"/>
<text text-anchor="middle" x="303" y="-675.8" font-family="Times,serif" font-size="14.00" fill="#000000">TRUE</text>
</g>
<!-- 8 -->
<g id="node9" class="node">
<title>8</title>
<polygon fill="none" stroke="#000000" points="411,-510 283,-510 283,-474 411,-474 411,-510"/>
<text text-anchor="middle" x="347" y="-488.3" font-family="Times,serif" font-size="14.00" fill="#000000">hdr.nc_hdr.op == 1;</text>
</g>
<!-- 4&#45;&gt;8 -->
<g id="edge6" class="edge">
<title>4&#45;&gt;8</title>
<path fill="none" stroke="#000000" d="M347,-723.9489C347,-711.4659 347,-694.474 347,-679.5 347,-679.5 347,-679.5 347,-554.5 347,-543.2695 347,-530.904 347,-520.1568"/>
<polygon fill="#000000" stroke="#000000" points="350.5001,-520.0511 347,-510.0511 343.5001,-520.0511 350.5001,-520.0511"/>
<text text-anchor="middle" x="368" y="-613.3" font-family="Times,serif" font-size="14.00" fill="#000000">FALSE</text>
</g>
<!-- 6 -->
<g id="node7" class="node">
<title>6</title>
<polygon fill="none" stroke="#000000" points="257,-510 99,-510 99,-474 257,-474 257,-510"/>
<text text-anchor="middle" x="178" y="-488.3" font-family="Times,serif" font-size="14.00" fill="#000000">meta.meta.available != 0;</text>
</g>
<!-- 5&#45;&gt;6 -->
<g id="edge7" class="edge">
<title>5&#45;&gt;6</title>
<path fill="none" stroke="#000000" d="M205.3469,-598.8239C200.062,-578.1798 191.3742,-544.2431 185.2102,-520.1648"/>
<polygon fill="#000000" stroke="#000000" points="188.5294,-519.0176 182.6587,-510.198 181.7481,-520.7536 188.5294,-519.0176"/>
</g>
<!-- 7 -->
<g id="node8" class="node">
<title>7</title>
<ellipse fill="none" stroke="#000000" cx="79" cy="-367" rx="63.0888" ry="18"/>
<text text-anchor="middle" x="79" y="-363.3" font-family="Times,serif" font-size="14.00" fill="#000000">set_retry_table</text>
</g>
<!-- 6&#45;&gt;7 -->
<g id="edge8" class="edge">
<title>6&#45;&gt;7</title>
<path fill="none" stroke="#000000" d="M163.6046,-473.8239C146.7185,-452.5032 118.6034,-417.0043 99.4573,-392.83"/>
<polygon fill="#000000" stroke="#000000" points="102.0447,-390.4594 93.0923,-384.7933 96.5572,-394.8055 102.0447,-390.4594"/>
<text text-anchor="middle" x="151" y="-425.8" font-family="Times,serif" font-size="14.00" fill="#000000">TRUE</text>
</g>
<!-- 10 -->
<g id="node11" class="node">
<title>10</title>
<ellipse fill="none" stroke="#000000" cx="314" cy="-256" rx="85.2851" ry="18"/>
<text text-anchor="middle" x="314" y="-252.3" font-family="Times,serif" font-size="14.00" fill="#000000">reply_to_client_table</text>
</g>
<!-- 6&#45;&gt;10 -->
<g id="edge9" class="edge">
<title>6&#45;&gt;10</title>
<path fill="none" stroke="#000000" d="M178,-473.9489C178,-461.4659 178,-444.474 178,-429.5 178,-429.5 178,-429.5 178,-311.5 178,-295.3688 211.2139,-281.627 244.8141,-271.8526"/>
<polygon fill="#000000" stroke="#000000" points="246.0563,-275.1396 254.744,-269.0755 244.1709,-268.3982 246.0563,-275.1396"/>
<text text-anchor="middle" x="199" y="-363.3" font-family="Times,serif" font-size="14.00" fill="#000000">FALSE</text>
</g>
<!-- 7&#45;&gt;10 -->
<g id="edge10" class="edge">
<title>7&#45;&gt;10</title>
<path fill="none" stroke="#000000" d="M96.1255,-349.5473C113.8516,-332.4574 143.0938,-306.8808 173,-292 192.7219,-282.1868 215.3659,-274.8821 236.6538,-269.5155"/>
<polygon fill="#000000" stroke="#000000" points="237.7458,-272.8526 246.6489,-267.1093 236.1074,-266.0471 237.7458,-272.8526"/>
</g>
<!-- 9 -->
<g id="node10" class="node">
<title>9</title>
<ellipse fill="none" stroke="#000000" cx="314" cy="-367" rx="76.0865" ry="18"/>
<text text-anchor="middle" x="314" y="-363.3" font-family="Times,serif" font-size="14.00" fill="#000000">release_lock_table</text>
</g>
<!-- 8&#45;&gt;9 -->
<g id="edge11" class="edge">
<title>8&#45;&gt;9</title>
<path fill="none" stroke="#000000" d="M342.2015,-473.8239C336.7515,-453.1798 327.7922,-419.2431 321.4355,-395.1648"/>
<polygon fill="#000000" stroke="#000000" points="324.741,-393.9733 318.8043,-385.198 317.9728,-395.7602 324.741,-393.9733"/>
<text text-anchor="middle" x="350" y="-425.8" font-family="Times,serif" font-size="14.00" fill="#000000">TRUE</text>
</g>
<!-- 8&#45;&gt;10 -->
<g id="edge12" class="edge">
<title>8&#45;&gt;10</title>
<path fill="none" stroke="#000000" d="M393.4116,-473.7808C410.6077,-463.7553 426,-449.262 426,-429.5 426,-429.5 426,-429.5 426,-311.5 426,-298.0571 399.7682,-284.6269 372.6946,-274.3457"/>
<polygon fill="#000000" stroke="#000000" points="373.7186,-270.9935 363.1248,-270.8455 371.3141,-277.5676 373.7186,-270.9935"/>
<text text-anchor="middle" x="447" y="-363.3" font-family="Times,serif" font-size="14.00" fill="#000000">FALSE</text>
</g>
<!-- 9&#45;&gt;10 -->
<g id="edge13" class="edge">
<title>9&#45;&gt;10</title>
<path fill="none" stroke="#000000" d="M314,-348.6706C314,-331.2373 314,-304.7482 314,-284.5489"/>
<polygon fill="#000000" stroke="#000000" points="317.5001,-284.3566 314,-274.3566 310.5001,-284.3567 317.5001,-284.3566"/>
</g>
<!-- 10&#45;&gt;11 -->
<g id="edge14" class="edge">
<title>10&#45;&gt;11</title>
<path fill="none" stroke="#000000" d="M328.9421,-238.1659C344.3538,-219.7713 368.5225,-190.9248 385.884,-170.203"/>
<polygon fill="#000000" stroke="#000000" points="388.6622,-172.3369 392.4016,-162.4238 383.2966,-167.8413 388.6622,-172.3369"/>
</g>
<!-- 11&#45;&gt;1 -->
<g id="edge15" class="edge">
<title>11&#45;&gt;1</title>
<path fill="none" stroke="#000000" d="M407,-126.6706C407,-109.2373 407,-82.7482 407,-62.5489"/>
<polygon fill="#000000" stroke="#000000" points="410.5001,-62.3566 407,-52.3566 403.5001,-62.3567 410.5001,-62.3566"/>
</g>
</g>
</svg>
