<?xml version="1.0" encoding="UTF-8" standalone="no"?>
<!DOCTYPE svg PUBLIC "-//W3C//DTD SVG 1.1//EN"
 "http://www.w3.org/Graphics/SVG/1.1/DTD/svg11.dtd">
<!-- Generated by graphviz version 2.40.1 (20161225.0304)
 -->
<!-- Title: ingress Pages: 1 -->
<svg width="538pt" height="1138pt"
 viewBox="0.00 0.00 538.00 1138.20" xmlns="http://www.w3.org/2000/svg" xmlns:xlink="http://www.w3.org/1999/xlink">
<g id="graph0" class="graph" transform="scale(1 1) rotate(0) translate(4 1134.2)">
<title>ingress</title>
<polygon fill="#ffffff" stroke="transparent" points="-4,4 -4,-1134.2 534,-1134.2 534,4 -4,4"/>
<g id="clust1" class="cluster">
<title>cluster</title>
<polygon fill="none" stroke="#000000" stroke-width="2" points="8,-8 8,-1122.2 522,-1122.2 522,-8 8,-8"/>
</g>
<!-- 0 -->
<g id="node1" class="node">
<title>0</title>
<polygon fill="none" stroke="#000000" points="484.3316,-1114.2 395.6684,-1114.2 395.6684,-1078.2 484.3316,-1078.2 484.3316,-1114.2"/>
<text text-anchor="middle" x="440" y="-1092" font-family="Times,serif" font-size="14.00" fill="#000000">__START__</text>
</g>
<!-- 2 -->
<g id="node3" class="node">
<title>2</title>
<polygon fill="none" stroke="#000000" points="507.1853,-1003.2 372.8147,-1003.2 372.8147,-967.2 507.1853,-967.2 507.1853,-1003.2"/>
<text text-anchor="middle" x="440" y="-981" font-family="Times,serif" font-size="14.00" fill="#000000">hdr.nc_hdr.isValid();</text>
</g>
<!-- 0&#45;&gt;2 -->
<g id="edge1" class="edge">
<title>0&#45;&gt;2</title>
<path fill="none" stroke="#000000" d="M440,-1077.8706C440,-1060.4373 440,-1033.9482 440,-1013.7489"/>
<polygon fill="#000000" stroke="#000000" points="443.5001,-1013.5566 440,-1003.5566 436.5001,-1013.5567 443.5001,-1013.5566"/>
</g>
<!-- 1 -->
<g id="node2" class="node">
<title>1</title>
<polygon fill="none" stroke="#000000" points="465.8725,-52 390.1275,-52 390.1275,-16 465.8725,-16 465.8725,-52"/>
<text text-anchor="middle" x="428" y="-29.8" font-family="Times,serif" font-size="14.00" fill="#000000">__EXIT__</text>
</g>
<!-- 3 -->
<g id="node4" class="node">
<title>3</title>
<ellipse fill="none" stroke="#000000" cx="384" cy="-858.4" rx="61.9596" ry="18"/>
<text text-anchor="middle" x="384" y="-854.2" font-family="Times,serif" font-size="14.00" fill="#000000">decode_table</text>
</g>
<!-- 2&#45;&gt;3 -->
<g id="edge2" class="edge">
<title>2&#45;&gt;3</title>
<path fill="none" stroke="#000000" d="M431.9766,-967.0327C422.5785,-945.7528 406.9154,-910.287 396.0541,-885.694"/>
<polygon fill="#000000" stroke="#000000" points="399.2502,-884.2673 392.0086,-876.5336 392.8469,-887.0953 399.2502,-884.2673"/>
<text text-anchor="middle" x="432.2742" y="-917.6" font-family="Times,serif" font-size="14.00" fill="#000000">TRUE</text>
</g>
<!-- 11 -->
<g id="node12" class="node">
<title>11</title>
<ellipse fill="none" stroke="#000000" cx="428" cy="-145" rx="52.7527" ry="18"/>
<text text-anchor="middle" x="428" y="-140.8" font-family="Times,serif" font-size="14.00" fill="#000000">ipv4_route</text>
</g>
<!-- 2&#45;&gt;11 -->
<g id="edge3" class="edge">
<title>2&#45;&gt;11</title>
<path fill="none" stroke="#000000" d="M454.2298,-967.1835C462.3792,-955.067 471,-938.3406 471,-921.8 471,-921.8 471,-921.8 471,-584.1 471,-469.8536 513,-444.7464 513,-330.5 513,-330.5 513,-330.5 513,-200.5 513,-181.2897 497.5904,-168.3766 479.8934,-159.8809"/>
<polygon fill="#000000" stroke="#000000" points="481.0686,-156.5762 470.5,-155.8309 478.2971,-163.0042 481.0686,-156.5762"/>
<text text-anchor="middle" x="493.3885" y="-553" font-family="Times,serif" font-size="14.00" fill="#000000">FALSE</text>
</g>
<!-- 4 -->
<g id="node5" class="node">
<title>4</title>
<polygon fill="none" stroke="#000000" points="423.2158,-765.4 294.7842,-765.4 294.7842,-729.4 423.2158,-729.4 423.2158,-765.4"/>
<text text-anchor="middle" x="359" y="-743.2" font-family="Times,serif" font-size="14.00" fill="#000000">hdr.nc_hdr.op == 0;</text>
</g>
<!-- 3&#45;&gt;4 -->
<g id="edge4" class="edge">
<title>3&#45;&gt;4</title>
<path fill="none" stroke="#000000" d="M379.8718,-840.0706C375.9272,-822.5569 369.9243,-795.9039 365.3671,-775.6701"/>
<polygon fill="#000000" stroke="#000000" points="368.7461,-774.7432 363.1344,-765.7566 361.9172,-776.2813 368.7461,-774.7432"/>
</g>
<!-- 5 -->
<g id="node6" class="node">
<title>5</title>
<ellipse fill="none" stroke="#000000" cx="218" cy="-620.6" rx="84.5112" ry="18"/>
<text text-anchor="middle" x="218" y="-616.4" font-family="Times,serif" font-size="14.00" fill="#000000">acquire_lock_table</text>
</g>
<!-- 4&#45;&gt;5 -->
<g id="edge5" class="edge">
<title>4&#45;&gt;5</title>
<path fill="none" stroke="#000000" d="M338.7981,-729.2327C314.2636,-707.169 272.7712,-669.8552 245.3794,-645.2221"/>
<polygon fill="#000000" stroke="#000000" points="247.4857,-642.4091 237.7098,-638.3248 242.805,-647.6141 247.4857,-642.4091"/>
<text text-anchor="middle" x="313.2742" y="-679.8" font-family="Times,serif" font-size="14.00" fill="#000000">TRUE</text>
</g>
<!-- 8 -->
<g id="node9" class="node">
<title>8</title>
<polygon fill="none" stroke="#000000" points="423.2158,-511.8 294.7842,-511.8 294.7842,-475.8 423.2158,-475.8 423.2158,-511.8"/>
<text text-anchor="middle" x="359" y="-489.6" font-family="Times,serif" font-size="14.00" fill="#000000">hdr.nc_hdr.op == 1;</text>
</g>
<!-- 4&#45;&gt;8 -->
<g id="edge6" class="edge">
<title>4&#45;&gt;8</title>
<path fill="none" stroke="#000000" d="M359,-729.3635C359,-716.6761 359,-699.2997 359,-684 359,-684 359,-684 359,-557.2 359,-545.7253 359,-533.0823 359,-522.1255"/>
<polygon fill="#000000" stroke="#000000" points="362.5001,-521.8364 359,-511.8365 355.5001,-521.8365 362.5001,-521.8364"/>
<text text-anchor="middle" x="380.3885" y="-616.4" font-family="Times,serif" font-size="14.00" fill="#000000">FALSE</text>
</g>
<!-- 6 -->
<g id="node7" class="node">
<title>6</title>
<polygon fill="none" stroke="#000000" points="267.3973,-511.8 108.6027,-511.8 108.6027,-475.8 267.3973,-475.8 267.3973,-511.8"/>
<text text-anchor="middle" x="188" y="-489.6" font-family="Times,serif" font-size="14.00" fill="#000000">meta.meta.available != 0;</text>
</g>
<!-- 5&#45;&gt;6 -->
<g id="edge7" class="edge">
<title>5&#45;&gt;6</title>
<path fill="none" stroke="#000000" d="M213.7017,-602.4327C208.7116,-581.3411 200.4244,-546.3136 194.6126,-521.7494"/>
<polygon fill="#000000" stroke="#000000" points="197.9987,-520.8591 192.2903,-511.9336 191.1868,-522.4709 197.9987,-520.8591"/>
</g>
<!-- 7 -->
<g id="node8" class="node">
<title>7</title>
<ellipse fill="none" stroke="#000000" cx="84" cy="-367" rx="68.3343" ry="18"/>
<text text-anchor="middle" x="84" y="-362.8" font-family="Times,serif" font-size="14.00" fill="#000000">set_retry_table</text>
</g>
<!-- 6&#45;&gt;7 -->
<g id="edge8" class="edge">
<title>6&#45;&gt;7</title>
<path fill="none" stroke="#000000" d="M173.0993,-475.6327C155.236,-453.8531 125.1846,-417.2136 104.9803,-392.5798"/>
<polygon fill="#000000" stroke="#000000" points="107.5856,-390.2372 98.5377,-384.7248 102.1732,-394.6764 107.5856,-390.2372"/>
<text text-anchor="middle" x="159.2742" y="-426.2" font-family="Times,serif" font-size="14.00" fill="#000000">TRUE</text>
</g>
<!-- 10 -->
<g id="node11" class="node">
<title>10</title>
<ellipse fill="none" stroke="#000000" cx="332" cy="-256" rx="93.1968" ry="18"/>
<text text-anchor="middle" x="332" y="-251.8" font-family="Times,serif" font-size="14.00" fill="#000000">reply_to_client_table</text>
</g>
<!-- 6&#45;&gt;10 -->
<g id="edge9" class="edge">
<title>6&#45;&gt;10</title>
<path fill="none" stroke="#000000" d="M188,-475.7635C188,-463.0761 188,-445.6997 188,-430.4 188,-430.4 188,-430.4 188,-311.5 188,-294.7855 222.2058,-281.1802 257.2749,-271.6237"/>
<polygon fill="#000000" stroke="#000000" points="258.3732,-274.9542 267.1613,-269.0364 256.601,-268.1823 258.3732,-274.9542"/>
<text text-anchor="middle" x="209.3885" y="-362.8" font-family="Times,serif" font-size="14.00" fill="#000000">FALSE</text>
</g>
<!-- 7&#45;&gt;10 -->
<g id="edge10" class="edge">
<title>7&#45;&gt;10</title>
<path fill="none" stroke="#000000" d="M102.1725,-349.5045C120.9472,-332.3813 151.8255,-306.7793 183,-292 203.5404,-282.2622 226.962,-275.0147 249.0553,-269.6799"/>
<polygon fill="#000000" stroke="#000000" points="250.1415,-273.0213 259.0977,-267.3613 248.5667,-266.2007 250.1415,-273.0213"/>
</g>
<!-- 9 -->
<g id="node10" class="node">
<title>9</title>
<ellipse fill="none" stroke="#000000" cx="332" cy="-367" rx="82.782" ry="18"/>
<text text-anchor="middle" x="332" y="-362.8" font-family="Times,serif" font-size="14.00" fill="#000000">release_lock_table</text>
</g>
<!-- 8&#45;&gt;9 -->
<g id="edge11" class="edge">
<title>8&#45;&gt;9</title>
<path fill="none" stroke="#000000" d="M355.1316,-475.6327C350.6404,-454.5411 343.1819,-419.5136 337.9514,-394.9494"/>
<polygon fill="#000000" stroke="#000000" points="341.3672,-394.1854 335.8613,-385.1336 334.5207,-395.6433 341.3672,-394.1854"/>
<text text-anchor="middle" x="364.2742" y="-426.2" font-family="Times,serif" font-size="14.00" fill="#000000">TRUE</text>
</g>
<!-- 8&#45;&gt;10 -->
<g id="edge12" class="edge">
<title>8&#45;&gt;10</title>
<path fill="none" stroke="#000000" d="M415.6935,-475.7364C434.626,-465.9065 451,-451.3493 451,-430.4 451,-430.4 451,-430.4 451,-311.5 451,-297.5218 423.6909,-284.1994 395.2374,-274.1125"/>
<polygon fill="#000000" stroke="#000000" points="396.1765,-270.7348 385.582,-270.8194 393.9168,-277.3601 396.1765,-270.7348"/>
<text text-anchor="middle" x="472.3885" y="-362.8" font-family="Times,serif" font-size="14.00" fill="#000000">FALSE</text>
</g>
<!-- 9&#45;&gt;10 -->
<g id="edge13" class="edge">
<title>9&#45;&gt;10</title>
<path fill="none" stroke="#000000" d="M332,-348.6706C332,-331.2373 332,-304.7482 332,-284.5489"/>
<polygon fill="#000000" stroke="#000000" points="335.5001,-284.3566 332,-274.3566 328.5001,-284.3567 335.5001,-284.3566"/>
</g>
<!-- 10&#45;&gt;11 -->
<g id="edge14" class="edge">
<title>10&#45;&gt;11</title>
<path fill="none" stroke="#000000" d="M347.4241,-238.1659C363.3329,-219.7713 388.2812,-190.9248 406.2028,-170.203"/>
<polygon fill="#000000" stroke="#000000" points="409.0365,-172.277 412.9307,-162.4238 403.7419,-167.698 409.0365,-172.277"/>
</g>
<!-- 11&#45;&gt;1 -->
<g id="edge15" class="edge">
<title>11&#45;&gt;1</title>
<path fill="none" stroke="#000000" d="M428,-126.6706C428,-109.2373 428,-82.7482 428,-62.5489"/>
<polygon fill="#000000" stroke="#000000" points="431.5001,-62.3566 428,-52.3566 424.5001,-62.3567 431.5001,-62.3566"/>
</g>
</g>
</svg>
