<?xml version="1.0" encoding="UTF-8" standalone="no"?>
<!DOCTYPE svg PUBLIC "-//W3C//DTD SVG 1.1//EN"
 "http://www.w3.org/Graphics/SVG/1.1/DTD/svg11.dtd">
<!-- Generated by graphviz version 2.40.1 (20161225.0304)
 -->
<!-- Title: ingress Pages: 1 -->
<svg width="263pt" height="996pt"
 viewBox="0.00 0.00 263.00 995.60" xmlns="http://www.w3.org/2000/svg" xmlns:xlink="http://www.w3.org/1999/xlink">
<g id="graph0" class="graph" transform="scale(1 1) rotate(0) translate(4 991.6)">
<title>ingress</title>
<polygon fill="#ffffff" stroke="transparent" points="-4,4 -4,-991.6 259,-991.6 259,4 -4,4"/>
<g id="clust1" class="cluster">
<title>cluster</title>
<polygon fill="none" stroke="#000000" stroke-width="2" points="8,-8 8,-979.6 247,-979.6 247,-8 8,-8"/>
</g>
<!-- 0 -->
<g id="node1" class="node">
<title>0</title>
<polygon fill="none" stroke="#000000" points="196.3316,-971.6 107.6684,-971.6 107.6684,-935.6 196.3316,-935.6 196.3316,-971.6"/>
<text text-anchor="middle" x="152" y="-949.4" font-family="Times,serif" font-size="14.00" fill="#000000">__START__</text>
</g>
<!-- 2 -->
<g id="node3" class="node">
<title>2</title>
<polygon fill="none" stroke="#000000" points="212.2008,-860.6 91.7992,-860.6 91.7992,-824.6 212.2008,-824.6 212.2008,-860.6"/>
<text text-anchor="middle" x="152" y="-838.4" font-family="Times,serif" font-size="14.00" fill="#000000">hdr.ipv4.isValid();</text>
</g>
<!-- 0&#45;&gt;2 -->
<g id="edge1" class="edge">
<title>0&#45;&gt;2</title>
<path fill="none" stroke="#000000" d="M152,-935.2706C152,-917.8373 152,-891.3482 152,-871.1489"/>
<polygon fill="#000000" stroke="#000000" points="155.5001,-870.9566 152,-860.9566 148.5001,-870.9567 155.5001,-870.9566"/>
</g>
<!-- 1 -->
<g id="node2" class="node">
<title>1</title>
<polygon fill="none" stroke="#000000" points="232.8725,-52 157.1275,-52 157.1275,-16 232.8725,-16 232.8725,-52"/>
<text text-anchor="middle" x="195" y="-29.8" font-family="Times,serif" font-size="14.00" fill="#000000">__EXIT__</text>
</g>
<!-- 3 -->
<g id="node4" class="node">
<title>3</title>
<ellipse fill="none" stroke="#000000" cx="112" cy="-715.8" rx="65.4343" ry="18"/>
<text text-anchor="middle" x="112" y="-711.6" font-family="Times,serif" font-size="14.00" fill="#000000">port_mapping</text>
</g>
<!-- 2&#45;&gt;3 -->
<g id="edge2" class="edge">
<title>2&#45;&gt;3</title>
<path fill="none" stroke="#000000" d="M146.269,-824.4327C139.6155,-803.3411 128.5658,-768.3136 120.8168,-743.7494"/>
<polygon fill="#000000" stroke="#000000" points="124.0668,-742.4174 117.7204,-733.9336 117.391,-744.5234 124.0668,-742.4174"/>
<text text-anchor="middle" x="151.2742" y="-775" font-family="Times,serif" font-size="14.00" fill="#000000">TRUE</text>
</g>
<!-- 8 -->
<g id="node9" class="node">
<title>8</title>
<ellipse fill="none" stroke="#000000" cx="195" cy="-145" rx="37.1367" ry="18"/>
<text text-anchor="middle" x="195" y="-140.8" font-family="Times,serif" font-size="14.00" fill="#000000">tbl_act</text>
</g>
<!-- 2&#45;&gt;8 -->
<g id="edge3" class="edge">
<title>2&#45;&gt;8</title>
<path fill="none" stroke="#000000" d="M173.2267,-824.5679C184.4783,-812.9416 196,-796.7513 196,-779.2 196,-779.2 196,-779.2 196,-530.3 196,-439.5592 238,-421.2408 238,-330.5 238,-330.5 238,-330.5 238,-200.5 238,-187.9301 231.0222,-176.4811 222.6884,-167.2898"/>
<polygon fill="#000000" stroke="#000000" points="225.0484,-164.7005 215.4925,-160.1249 220.1094,-169.6609 225.0484,-164.7005"/>
<text text-anchor="middle" x="222.3885" y="-489.6" font-family="Times,serif" font-size="14.00" fill="#000000">FALSE</text>
</g>
<!-- 4 -->
<g id="node5" class="node">
<title>4</title>
<ellipse fill="none" stroke="#000000" cx="112" cy="-604.8" rx="27" ry="18"/>
<text text-anchor="middle" x="112" y="-600.6" font-family="Times,serif" font-size="14.00" fill="#000000">bd</text>
</g>
<!-- 3&#45;&gt;4 -->
<g id="edge4" class="edge">
<title>3&#45;&gt;4</title>
<path fill="none" stroke="#000000" d="M112,-697.4706C112,-680.0373 112,-653.5482 112,-633.3489"/>
<polygon fill="#000000" stroke="#000000" points="115.5001,-633.1566 112,-623.1566 108.5001,-633.1567 115.5001,-633.1566"/>
</g>
<!-- 5 -->
<g id="node6" class="node">
<title>5</title>
<ellipse fill="none" stroke="#000000" cx="112" cy="-493.8" rx="43.5233" ry="18"/>
<text text-anchor="middle" x="112" y="-489.6" font-family="Times,serif" font-size="14.00" fill="#000000">ipv4_fib</text>
</g>
<!-- 4&#45;&gt;5 -->
<g id="edge5" class="edge">
<title>4&#45;&gt;5</title>
<path fill="none" stroke="#000000" d="M112,-586.4706C112,-569.0373 112,-542.5482 112,-522.3489"/>
<polygon fill="#000000" stroke="#000000" points="115.5001,-522.1566 112,-512.1566 108.5001,-522.1567 115.5001,-522.1566"/>
</g>
<!-- 6 -->
<g id="node7" class="node">
<title>6</title>
<ellipse fill="none" stroke="#000000" cx="80" cy="-367" rx="63.7277" ry="18"/>
<text text-anchor="middle" x="80" y="-362.8" font-family="Times,serif" font-size="14.00" fill="#000000">ipv4_fib_lpm</text>
</g>
<!-- 5&#45;&gt;6 -->
<g id="edge6" class="edge">
<title>5&#45;&gt;6</title>
<path fill="none" stroke="#000000" d="M90.6148,-478.0315C79.1429,-468.192 66.1124,-454.442 59.878,-438.8 54.1313,-424.3815 58.1814,-407.7193 64.1122,-394.0777"/>
<polygon fill="#000000" stroke="#000000" points="67.421,-395.2771 68.6499,-384.7537 61.1268,-392.2138 67.421,-395.2771"/>
<text text-anchor="middle" x="116.561" y="-426.2" font-family="Times,serif" font-size="14.00" fill="#000000">on_miss_2/on_miss;</text>
</g>
<!-- 7 -->
<g id="node8" class="node">
<title>7</title>
<ellipse fill="none" stroke="#000000" cx="177" cy="-256" rx="42.299" ry="18"/>
<text text-anchor="middle" x="177" y="-251.8" font-family="Times,serif" font-size="14.00" fill="#000000">nexthop</text>
</g>
<!-- 5&#45;&gt;7 -->
<g id="edge7" class="edge">
<title>5&#45;&gt;7</title>
<path fill="none" stroke="#000000" d="M141.628,-480.2352C159.9526,-469.5989 180,-452.8356 180,-430.4 180,-430.4 180,-430.4 180,-311.5 180,-302.719 179.6209,-293.1678 179.1323,-284.5036"/>
<polygon fill="#000000" stroke="#000000" points="182.6231,-284.2461 178.5,-274.4865 175.637,-284.6871 182.6231,-284.2461"/>
<text text-anchor="middle" x="199.4355" y="-362.8" font-family="Times,serif" font-size="14.00" fill="#000000">default</text>
</g>
<!-- 6&#45;&gt;7 -->
<g id="edge8" class="edge">
<title>6&#45;&gt;7</title>
<path fill="none" stroke="#000000" d="M95.5847,-349.1659C111.7539,-330.6631 137.1644,-301.5851 155.2946,-280.8381"/>
<polygon fill="#000000" stroke="#000000" points="158.1463,-282.8938 162.0911,-273.0607 152.8753,-278.2876 158.1463,-282.8938"/>
</g>
<!-- 7&#45;&gt;8 -->
<g id="edge9" class="edge">
<title>7&#45;&gt;8</title>
<path fill="none" stroke="#000000" d="M179.9723,-237.6706C182.8294,-220.0521 187.1863,-193.1843 190.4745,-172.9073"/>
<polygon fill="#000000" stroke="#000000" points="193.937,-173.4197 192.083,-162.9883 187.0273,-172.2991 193.937,-173.4197"/>
</g>
<!-- 8&#45;&gt;1 -->
<g id="edge10" class="edge">
<title>8&#45;&gt;1</title>
<path fill="none" stroke="#000000" d="M195,-126.6706C195,-109.2373 195,-82.7482 195,-62.5489"/>
<polygon fill="#000000" stroke="#000000" points="198.5001,-62.3566 195,-52.3566 191.5001,-62.3567 198.5001,-62.3566"/>
</g>
</g>
</svg>
