<?xml version="1.0" encoding="UTF-8" standalone="no"?>
<!DOCTYPE svg PUBLIC "-//W3C//DTD SVG 1.1//EN"
 "http://www.w3.org/Graphics/SVG/1.1/DTD/svg11.dtd">
<!-- Generated by graphviz version 2.40.1 (20161225.0304)
 -->
<!-- Title: egress Pages: 1 -->
<svg width="240pt" height="869pt"
 viewBox="0.00 0.00 240.00 868.80" xmlns="http://www.w3.org/2000/svg" xmlns:xlink="http://www.w3.org/1999/xlink">
<g id="graph0" class="graph" transform="scale(1 1) rotate(0) translate(4 864.8)">
<title>egress</title>
<polygon fill="#ffffff" stroke="transparent" points="-4,4 -4,-864.8 236,-864.8 236,4 -4,4"/>
<g id="clust1" class="cluster">
<title>cluster</title>
<polygon fill="none" stroke="#000000" stroke-width="2" points="8,-8 8,-852.8 224,-852.8 224,-8 8,-8"/>
</g>
<!-- 0 -->
<g id="node1" class="node">
<title>0</title>
<polygon fill="none" stroke="#000000" points="160.3316,-844.8 71.6684,-844.8 71.6684,-808.8 160.3316,-808.8 160.3316,-844.8"/>
<text text-anchor="middle" x="116" y="-822.6" font-family="Times,serif" font-size="14.00" fill="#000000">__START__</text>
</g>
<!-- 2 -->
<g id="node3" class="node">
<title>2</title>
<ellipse fill="none" stroke="#000000" cx="116" cy="-715.8" rx="73.4862" ry="18"/>
<text text-anchor="middle" x="116" y="-711.6" font-family="Times,serif" font-size="14.00" fill="#000000">teInitializeWma</text>
</g>
<!-- 0&#45;&gt;2 -->
<g id="edge1" class="edge">
<title>0&#45;&gt;2</title>
<path fill="none" stroke="#000000" d="M116,-808.4706C116,-791.0373 116,-764.5482 116,-744.3489"/>
<polygon fill="#000000" stroke="#000000" points="119.5001,-744.1566 116,-734.1566 112.5001,-744.1567 119.5001,-744.1566"/>
</g>
<!-- 1 -->
<g id="node2" class="node">
<title>1</title>
<polygon fill="none" stroke="#000000" points="121.8725,-52 46.1275,-52 46.1275,-16 121.8725,-16 121.8725,-52"/>
<text text-anchor="middle" x="84" y="-29.8" font-family="Times,serif" font-size="14.00" fill="#000000">__EXIT__</text>
</g>
<!-- 3 -->
<g id="node4" class="node">
<title>3</title>
<ellipse fill="none" stroke="#000000" cx="116" cy="-604.8" rx="66.0512" ry="18"/>
<text text-anchor="middle" x="116" y="-600.6" font-family="Times,serif" font-size="14.00" fill="#000000">teWmaPhase1</text>
</g>
<!-- 2&#45;&gt;3 -->
<g id="edge2" class="edge">
<title>2&#45;&gt;3</title>
<path fill="none" stroke="#000000" d="M116,-697.4706C116,-680.0373 116,-653.5482 116,-633.3489"/>
<polygon fill="#000000" stroke="#000000" points="119.5001,-633.1566 116,-623.1566 112.5001,-633.1567 119.5001,-633.1566"/>
</g>
<!-- 4 -->
<g id="node5" class="node">
<title>4</title>
<ellipse fill="none" stroke="#000000" cx="116" cy="-493.8" rx="66.0512" ry="18"/>
<text text-anchor="middle" x="116" y="-489.6" font-family="Times,serif" font-size="14.00" fill="#000000">teWmaPhase2</text>
</g>
<!-- 3&#45;&gt;4 -->
<g id="edge3" class="edge">
<title>3&#45;&gt;4</title>
<path fill="none" stroke="#000000" d="M116,-586.4706C116,-569.0373 116,-542.5482 116,-522.3489"/>
<polygon fill="#000000" stroke="#000000" points="119.5001,-522.1566 116,-512.1566 112.5001,-522.1567 119.5001,-522.1566"/>
</g>
<!-- 5 -->
<g id="node6" class="node">
<title>5</title>
<ellipse fill="none" stroke="#000000" cx="116" cy="-382.8" rx="60.2653" ry="18"/>
<text text-anchor="middle" x="116" y="-378.6" font-family="Times,serif" font-size="14.00" fill="#000000">te_rate_limit</text>
</g>
<!-- 4&#45;&gt;5 -->
<g id="edge4" class="edge">
<title>4&#45;&gt;5</title>
<path fill="none" stroke="#000000" d="M116,-475.4706C116,-458.0373 116,-431.5482 116,-411.3489"/>
<polygon fill="#000000" stroke="#000000" points="119.5001,-411.1566 116,-401.1566 112.5001,-411.1567 119.5001,-411.1566"/>
</g>
<!-- 6 -->
<g id="node7" class="node">
<title>6</title>
<polygon fill="none" stroke="#000000" points="215.7222,-289.8 16.2778,-289.8 16.2778,-253.8 215.7222,-253.8 215.7222,-289.8"/>
<text text-anchor="middle" x="116" y="-267.6" font-family="Times,serif" font-size="14.00" fill="#000000">meta.meta.current_reading == 0;</text>
</g>
<!-- 5&#45;&gt;6 -->
<g id="edge5" class="edge">
<title>5&#45;&gt;6</title>
<path fill="none" stroke="#000000" d="M116,-364.4706C116,-347.0373 116,-320.5482 116,-300.3489"/>
<polygon fill="#000000" stroke="#000000" points="119.5001,-300.1566 116,-290.1566 112.5001,-300.1567 119.5001,-300.1566"/>
</g>
<!-- 6&#45;&gt;1 -->
<g id="edge7" class="edge">
<title>6&#45;&gt;1</title>
<path fill="none" stroke="#000000" d="M83.1845,-253.5769C68.3127,-242.7118 54,-227.3362 54,-208.4 54,-208.4 54,-208.4 54,-89.5 54,-79.4198 57.8771,-69.4145 62.8438,-60.733"/>
<polygon fill="#000000" stroke="#000000" points="65.8516,-62.5262 68.2971,-52.2175 59.9567,-58.7512 65.8516,-62.5262"/>
<text text-anchor="middle" x="75.3885" y="-140.8" font-family="Times,serif" font-size="14.00" fill="#000000">FALSE</text>
</g>
<!-- 7 -->
<g id="node8" class="node">
<title>7</title>
<ellipse fill="none" stroke="#000000" cx="155" cy="-145" rx="40.5712" ry="18"/>
<text text-anchor="middle" x="155" y="-140.8" font-family="Times,serif" font-size="14.00" fill="#000000">te_drop</text>
</g>
<!-- 6&#45;&gt;7 -->
<g id="edge6" class="edge">
<title>6&#45;&gt;7</title>
<path fill="none" stroke="#000000" d="M121.5877,-253.6327C128.0749,-232.5411 138.8483,-197.5136 146.4036,-172.9494"/>
<polygon fill="#000000" stroke="#000000" points="149.8281,-173.7207 149.4226,-163.1336 143.1374,-171.6628 149.8281,-173.7207"/>
<text text-anchor="middle" x="155.2742" y="-204.2" font-family="Times,serif" font-size="14.00" fill="#000000">TRUE</text>
</g>
<!-- 7&#45;&gt;1 -->
<g id="edge8" class="edge">
<title>7&#45;&gt;1</title>
<path fill="none" stroke="#000000" d="M143.9063,-127.6563C132.491,-109.8099 114.5502,-81.7616 101.2749,-61.0073"/>
<polygon fill="#000000" stroke="#000000" points="104.0611,-58.8675 95.7242,-52.3294 98.1642,-62.6394 104.0611,-58.8675"/>
</g>
</g>
</svg>
