<?xml version="1.0" encoding="UTF-8" standalone="no"?>
<!DOCTYPE svg PUBLIC "-//W3C//DTD SVG 1.1//EN"
 "http://www.w3.org/Graphics/SVG/1.1/DTD/svg11.dtd">
<!-- Generated by graphviz version 2.40.1 (20161225.0304)
 -->
<!-- Title: ingress Pages: 1 -->
<svg width="215pt" height="536pt"
 viewBox="0.00 0.00 215.00 535.80" xmlns="http://www.w3.org/2000/svg" xmlns:xlink="http://www.w3.org/1999/xlink">
<g id="graph0" class="graph" transform="scale(1 1) rotate(0) translate(4 531.8)">
<title>ingress</title>
<polygon fill="#ffffff" stroke="transparent" points="-4,4 -4,-531.8 211,-531.8 211,4 -4,4"/>
<g id="clust1" class="cluster">
<title>cluster</title>
<polygon fill="none" stroke="#000000" stroke-width="2" points="8,-8 8,-519.8 199,-519.8 199,-8 8,-8"/>
</g>
<!-- 0 -->
<g id="node1" class="node">
<title>0</title>
<polygon fill="none" stroke="#000000" points="147.3316,-511.8 58.6684,-511.8 58.6684,-475.8 147.3316,-475.8 147.3316,-511.8"/>
<text text-anchor="middle" x="103" y="-489.6" font-family="Times,serif" font-size="14.00" fill="#000000">__START__</text>
</g>
<!-- 2 -->
<g id="node3" class="node">
<title>2</title>
<polygon fill="none" stroke="#000000" points="163.2008,-400.8 42.7992,-400.8 42.7992,-364.8 163.2008,-364.8 163.2008,-400.8"/>
<text text-anchor="middle" x="103" y="-378.6" font-family="Times,serif" font-size="14.00" fill="#000000">hdr.ipv4.isValid();</text>
</g>
<!-- 0&#45;&gt;2 -->
<g id="edge1" class="edge">
<title>0&#45;&gt;2</title>
<path fill="none" stroke="#000000" d="M103,-475.4706C103,-458.0373 103,-431.5482 103,-411.3489"/>
<polygon fill="#000000" stroke="#000000" points="106.5001,-411.1566 103,-401.1566 99.5001,-411.1567 106.5001,-411.1566"/>
</g>
<!-- 1 -->
<g id="node2" class="node">
<title>1</title>
<polygon fill="none" stroke="#000000" points="164.8725,-52 89.1275,-52 89.1275,-16 164.8725,-16 164.8725,-52"/>
<text text-anchor="middle" x="127" y="-29.8" font-family="Times,serif" font-size="14.00" fill="#000000">__EXIT__</text>
</g>
<!-- 3 -->
<g id="node4" class="node">
<title>3</title>
<ellipse fill="none" stroke="#000000" cx="64" cy="-256" rx="48.1167" ry="18"/>
<text text-anchor="middle" x="64" y="-251.8" font-family="Times,serif" font-size="14.00" fill="#000000">ipv4_lpm</text>
</g>
<!-- 2&#45;&gt;3 -->
<g id="edge2" class="edge">
<title>2&#45;&gt;3</title>
<path fill="none" stroke="#000000" d="M97.4123,-364.6327C90.9251,-343.5411 80.1517,-308.5136 72.5964,-283.9494"/>
<polygon fill="#000000" stroke="#000000" points="75.8626,-282.6628 69.5774,-274.1336 69.1719,-284.7207 75.8626,-282.6628"/>
<text text-anchor="middle" x="103.2742" y="-315.2" font-family="Times,serif" font-size="14.00" fill="#000000">TRUE</text>
</g>
<!-- 4 -->
<g id="node5" class="node">
<title>4</title>
<ellipse fill="none" stroke="#000000" cx="127" cy="-145" rx="37.1367" ry="18"/>
<text text-anchor="middle" x="127" y="-140.8" font-family="Times,serif" font-size="14.00" fill="#000000">tbl_act</text>
</g>
<!-- 2&#45;&gt;4 -->
<g id="edge3" class="edge">
<title>2&#45;&gt;4</title>
<path fill="none" stroke="#000000" d="M124.9727,-364.5951C136.3957,-353.022 148,-336.947 148,-319.4 148,-319.4 148,-319.4 148,-200.5 148,-190.6647 145.0795,-180.4465 141.4167,-171.4988"/>
<polygon fill="#000000" stroke="#000000" points="144.5864,-170.0141 137.2539,-162.3666 138.2169,-172.9175 144.5864,-170.0141"/>
<text text-anchor="middle" x="169.3885" y="-251.8" font-family="Times,serif" font-size="14.00" fill="#000000">FALSE</text>
</g>
<!-- 3&#45;&gt;4 -->
<g id="edge4" class="edge">
<title>3&#45;&gt;4</title>
<path fill="none" stroke="#000000" d="M74.122,-238.1659C84.3774,-220.0969 100.3569,-191.9427 112.0669,-171.3108"/>
<polygon fill="#000000" stroke="#000000" points="115.2186,-172.8484 117.1108,-162.4238 109.1308,-169.3931 115.2186,-172.8484"/>
</g>
<!-- 4&#45;&gt;1 -->
<g id="edge5" class="edge">
<title>4&#45;&gt;1</title>
<path fill="none" stroke="#000000" d="M127,-126.6706C127,-109.2373 127,-82.7482 127,-62.5489"/>
<polygon fill="#000000" stroke="#000000" points="130.5001,-62.3566 127,-52.3566 123.5001,-62.3567 130.5001,-62.3566"/>
</g>
</g>
</svg>
