<?xml version="1.0" encoding="UTF-8" standalone="no"?>
<!DOCTYPE svg PUBLIC "-//W3C//DTD SVG 1.1//EN"
 "http://www.w3.org/Graphics/SVG/1.1/DTD/svg11.dtd">
<!-- Generated by graphviz version 2.40.1 (20161225.0304)
 -->
<!-- Title: ingress Pages: 1 -->
<svg width="342pt" height="1122pt"
 viewBox="0.00 0.00 342.00 1122.40" xmlns="http://www.w3.org/2000/svg" xmlns:xlink="http://www.w3.org/1999/xlink">
<g id="graph0" class="graph" transform="scale(1 1) rotate(0) translate(4 1118.4)">
<title>ingress</title>
<polygon fill="#ffffff" stroke="transparent" points="-4,4 -4,-1118.4 338,-1118.4 338,4 -4,4"/>
<g id="clust1" class="cluster">
<title>cluster</title>
<polygon fill="none" stroke="#000000" stroke-width="2" points="8,-8 8,-1106.4 326,-1106.4 326,-8 8,-8"/>
</g>
<!-- 0 -->
<g id="node1" class="node">
<title>0</title>
<polygon fill="none" stroke="#000000" points="275.3316,-1098.4 186.6684,-1098.4 186.6684,-1062.4 275.3316,-1062.4 275.3316,-1098.4"/>
<text text-anchor="middle" x="231" y="-1076.2" font-family="Times,serif" font-size="14.00" fill="#000000">__START__</text>
</g>
<!-- 2 -->
<g id="node3" class="node">
<title>2</title>
<polygon fill="none" stroke="#000000" points="291.2008,-987.4 170.7992,-987.4 170.7992,-951.4 291.2008,-951.4 291.2008,-987.4"/>
<text text-anchor="middle" x="231" y="-965.2" font-family="Times,serif" font-size="14.00" fill="#000000">hdr.ipv4.isValid();</text>
</g>
<!-- 0&#45;&gt;2 -->
<g id="edge1" class="edge">
<title>0&#45;&gt;2</title>
<path fill="none" stroke="#000000" d="M231,-1062.0706C231,-1044.6373 231,-1018.1482 231,-997.9489"/>
<polygon fill="#000000" stroke="#000000" points="234.5001,-997.7566 231,-987.7566 227.5001,-997.7567 234.5001,-997.7566"/>
</g>
<!-- 1 -->
<g id="node2" class="node">
<title>1</title>
<polygon fill="none" stroke="#000000" points="310.8725,-52 235.1275,-52 235.1275,-16 310.8725,-16 310.8725,-52"/>
<text text-anchor="middle" x="273" y="-29.8" font-family="Times,serif" font-size="14.00" fill="#000000">__EXIT__</text>
</g>
<!-- 3 -->
<g id="node4" class="node">
<title>3</title>
<ellipse fill="none" stroke="#000000" cx="190" cy="-842.6" rx="65.4343" ry="18"/>
<text text-anchor="middle" x="190" y="-838.4" font-family="Times,serif" font-size="14.00" fill="#000000">port_mapping</text>
</g>
<!-- 2&#45;&gt;3 -->
<g id="edge2" class="edge">
<title>2&#45;&gt;3</title>
<path fill="none" stroke="#000000" d="M225.1257,-951.2327C218.3059,-930.1411 206.9799,-895.1136 199.0373,-870.5494"/>
<polygon fill="#000000" stroke="#000000" points="202.2703,-869.1718 195.8634,-860.7336 195.6098,-871.3254 202.2703,-869.1718"/>
<text text-anchor="middle" x="230.2742" y="-901.8" font-family="Times,serif" font-size="14.00" fill="#000000">TRUE</text>
</g>
<!-- 9 -->
<g id="node10" class="node">
<title>9</title>
<ellipse fill="none" stroke="#000000" cx="273" cy="-145" rx="37.1367" ry="18"/>
<text text-anchor="middle" x="273" y="-140.8" font-family="Times,serif" font-size="14.00" fill="#000000">tbl_act</text>
</g>
<!-- 2&#45;&gt;9 -->
<g id="edge3" class="edge">
<title>2&#45;&gt;9</title>
<path fill="none" stroke="#000000" d="M252.2267,-951.3679C263.4783,-939.7416 275,-923.5513 275,-906 275,-906 275,-906 275,-584.1 275,-548.96 296.6464,-545.3802 307,-511.8 314.2559,-488.2666 317,-481.9266 317,-457.3 317,-457.3 317,-457.3 317,-200.5 317,-187.8197 309.86,-176.3492 301.3324,-167.1716"/>
<polygon fill="#000000" stroke="#000000" points="303.5828,-164.4783 293.9691,-160.0254 298.7076,-169.5016 303.5828,-164.4783"/>
<text text-anchor="middle" x="306.3885" y="-553" font-family="Times,serif" font-size="14.00" fill="#000000">FALSE</text>
</g>
<!-- 4 -->
<g id="node5" class="node">
<title>4</title>
<ellipse fill="none" stroke="#000000" cx="171" cy="-731.6" rx="27" ry="18"/>
<text text-anchor="middle" x="171" y="-727.4" font-family="Times,serif" font-size="14.00" fill="#000000">bd</text>
</g>
<!-- 3&#45;&gt;4 -->
<g id="edge4" class="edge">
<title>3&#45;&gt;4</title>
<path fill="none" stroke="#000000" d="M186.8625,-824.2706C183.8467,-806.6521 179.2478,-779.7843 175.7769,-759.5073"/>
<polygon fill="#000000" stroke="#000000" points="179.2162,-758.8544 174.0791,-749.5883 172.3165,-760.0355 179.2162,-758.8544"/>
</g>
<!-- 5 -->
<g id="node6" class="node">
<title>5</title>
<ellipse fill="none" stroke="#000000" cx="159" cy="-620.6" rx="43.5233" ry="18"/>
<text text-anchor="middle" x="159" y="-616.4" font-family="Times,serif" font-size="14.00" fill="#000000">ipv4_fib</text>
</g>
<!-- 4&#45;&gt;5 -->
<g id="edge5" class="edge">
<title>4&#45;&gt;5</title>
<path fill="none" stroke="#000000" d="M169.0184,-713.2706C167.1225,-695.7329 164.2357,-669.0306 162.0472,-648.7867"/>
<polygon fill="#000000" stroke="#000000" points="165.4993,-648.1542 160.9447,-638.5883 158.5399,-648.9066 165.4993,-648.1542"/>
</g>
<!-- 6 -->
<g id="node7" class="node">
<title>6</title>
<polygon fill="none" stroke="#000000" points="298.1877,-511.8 15.8123,-511.8 15.8123,-475.8 298.1877,-475.8 298.1877,-511.8"/>
<text text-anchor="middle" x="157" y="-489.6" font-family="Times,serif" font-size="14.00" fill="#000000">meta.ingress_metadata.on_miss_ipv4_fib == 1;</text>
</g>
<!-- 5&#45;&gt;6 -->
<g id="edge6" class="edge">
<title>5&#45;&gt;6</title>
<path fill="none" stroke="#000000" d="M158.7134,-602.4327C158.3823,-581.4352 157.8332,-546.6261 157.446,-522.079"/>
<polygon fill="#000000" stroke="#000000" points="160.9434,-521.8772 157.286,-511.9336 153.9443,-521.9876 160.9434,-521.8772"/>
</g>
<!-- 7 -->
<g id="node8" class="node">
<title>7</title>
<ellipse fill="none" stroke="#000000" cx="155" cy="-367" rx="63.7277" ry="18"/>
<text text-anchor="middle" x="155" y="-362.8" font-family="Times,serif" font-size="14.00" fill="#000000">ipv4_fib_lpm</text>
</g>
<!-- 6&#45;&gt;7 -->
<g id="edge7" class="edge">
<title>6&#45;&gt;7</title>
<path fill="none" stroke="#000000" d="M156.7134,-475.6327C156.3823,-454.6352 155.8332,-419.8261 155.446,-395.279"/>
<polygon fill="#000000" stroke="#000000" points="158.9434,-395.0772 155.286,-385.1336 151.9443,-395.1876 158.9434,-395.0772"/>
<text text-anchor="middle" x="174.2742" y="-426.2" font-family="Times,serif" font-size="14.00" fill="#000000">TRUE</text>
</g>
<!-- 8 -->
<g id="node9" class="node">
<title>8</title>
<ellipse fill="none" stroke="#000000" cx="255" cy="-256" rx="42.299" ry="18"/>
<text text-anchor="middle" x="255" y="-251.8" font-family="Times,serif" font-size="14.00" fill="#000000">nexthop</text>
</g>
<!-- 6&#45;&gt;8 -->
<g id="edge8" class="edge">
<title>6&#45;&gt;8</title>
<path fill="none" stroke="#000000" d="M219.3425,-475.717C238.6703,-466.0278 255,-451.5758 255,-430.4 255,-430.4 255,-430.4 255,-311.5 255,-302.7318 255,-293.1843 255,-284.5196"/>
<polygon fill="#000000" stroke="#000000" points="258.5001,-284.5 255,-274.5 251.5001,-284.5 258.5001,-284.5"/>
<text text-anchor="middle" x="276.3885" y="-362.8" font-family="Times,serif" font-size="14.00" fill="#000000">FALSE</text>
</g>
<!-- 7&#45;&gt;8 -->
<g id="edge9" class="edge">
<title>7&#45;&gt;8</title>
<path fill="none" stroke="#000000" d="M171.0667,-349.1659C187.8097,-330.5812 214.1644,-301.3275 232.871,-280.5632"/>
<polygon fill="#000000" stroke="#000000" points="235.537,-282.833 239.63,-273.0607 230.3362,-278.1477 235.537,-282.833"/>
</g>
<!-- 8&#45;&gt;9 -->
<g id="edge10" class="edge">
<title>8&#45;&gt;9</title>
<path fill="none" stroke="#000000" d="M257.9723,-237.6706C260.8294,-220.0521 265.1863,-193.1843 268.4745,-172.9073"/>
<polygon fill="#000000" stroke="#000000" points="271.937,-173.4197 270.083,-162.9883 265.0273,-172.2991 271.937,-173.4197"/>
</g>
<!-- 9&#45;&gt;1 -->
<g id="edge11" class="edge">
<title>9&#45;&gt;1</title>
<path fill="none" stroke="#000000" d="M273,-126.6706C273,-109.2373 273,-82.7482 273,-62.5489"/>
<polygon fill="#000000" stroke="#000000" points="276.5001,-62.3566 273,-52.3566 269.5001,-62.3567 276.5001,-62.3566"/>
</g>
</g>
</svg>
