<?xml version="1.0" encoding="UTF-8" standalone="no"?>
<!DOCTYPE svg PUBLIC "-//W3C//DTD SVG 1.1//EN"
 "http://www.w3.org/Graphics/SVG/1.1/DTD/svg11.dtd">
<!-- Generated by graphviz version 2.40.1 (20161225.0304)
 -->
<!-- Title: egress Pages: 1 -->
<svg width="541pt" height="3310pt"
 viewBox="0.00 0.00 540.78 3310.00" xmlns="http://www.w3.org/2000/svg" xmlns:xlink="http://www.w3.org/1999/xlink">
<g id="graph0" class="graph" transform="scale(1 1) rotate(0) translate(4 3306)">
<title>egress</title>
<polygon fill="#ffffff" stroke="transparent" points="-4,4 -4,-3306 536.777,-3306 536.777,4 -4,4"/>
<g id="clust1" class="cluster">
<title>cluster</title>
<polygon fill="none" stroke="#000000" stroke-width="2" points="8,-8 8,-3294 522,-3294 522,-8 8,-8"/>
</g>
<!-- 0 -->
<g id="node1" class="node">
<title>0</title>
<polygon fill="none" stroke="#000000" points="437.3316,-3286 348.6684,-3286 348.6684,-3250 437.3316,-3250 437.3316,-3286"/>
<text text-anchor="middle" x="393" y="-3263.8" font-family="Times,serif" font-size="14.00" fill="#000000">__START__</text>
</g>
<!-- 2 -->
<g id="node3" class="node">
<title>2</title>
<polygon fill="none" stroke="#000000" points="500.0038,-3175 285.9962,-3175 285.9962,-3139 500.0038,-3139 500.0038,-3175"/>
<text text-anchor="middle" x="393" y="-3152.8" font-family="Times,serif" font-size="14.00" fill="#000000">meta.egress_metadata.bypass == 0;</text>
</g>
<!-- 0&#45;&gt;2 -->
<g id="edge1" class="edge">
<title>0&#45;&gt;2</title>
<path fill="none" stroke="#000000" d="M393,-3249.6706C393,-3232.2373 393,-3205.7482 393,-3185.5489"/>
<polygon fill="#000000" stroke="#000000" points="396.5001,-3185.3566 393,-3175.3566 389.5001,-3185.3567 396.5001,-3185.3566"/>
</g>
<!-- 1 -->
<g id="node2" class="node">
<title>1</title>
<polygon fill="none" stroke="#000000" points="359.8725,-52 284.1275,-52 284.1275,-16 359.8725,-16 359.8725,-52"/>
<text text-anchor="middle" x="322" y="-29.8" font-family="Times,serif" font-size="14.00" fill="#000000">__EXIT__</text>
</g>
<!-- 3 -->
<g id="node4" class="node">
<title>3</title>
<polygon fill="none" stroke="#000000" points="452.4693,-3048.2 249.5307,-3048.2 249.5307,-3012.2 452.4693,-3012.2 452.4693,-3048.2"/>
<text text-anchor="middle" x="351" y="-3026" font-family="Times,serif" font-size="14.00" fill="#000000">eg_intr_md.deflection_flag == 0;</text>
</g>
<!-- 2&#45;&gt;3 -->
<g id="edge2" class="edge">
<title>2&#45;&gt;3</title>
<path fill="none" stroke="#000000" d="M386.9824,-3138.8327C379.9963,-3117.7411 368.3941,-3082.7136 360.2577,-3058.1494"/>
<polygon fill="#000000" stroke="#000000" points="363.4733,-3056.7259 357.0064,-3048.3336 356.8283,-3058.927 363.4733,-3056.7259"/>
<text text-anchor="middle" x="392.2742" y="-3089.4" font-family="Times,serif" font-size="14.00" fill="#000000">TRUE</text>
</g>
<!-- 26 -->
<g id="node27" class="node">
<title>26</title>
<polygon fill="none" stroke="#000000" points="514.0038,-289.8 299.9962,-289.8 299.9962,-253.8 514.0038,-253.8 514.0038,-289.8"/>
<text text-anchor="middle" x="407" y="-267.6" font-family="Times,serif" font-size="14.00" fill="#000000">meta.egress_metadata.bypass == 0;</text>
</g>
<!-- 2&#45;&gt;26 -->
<g id="edge3" class="edge">
<title>2&#45;&gt;26</title>
<path fill="none" stroke="#000000" d="M437.921,-3138.7511C455.2598,-3128.5005 471,-3113.6684 471,-3093.6 471,-3093.6 471,-3093.6 471,-1735.1 471,-1691.2343 496.6175,-1685.9632 508,-1643.6 512.1117,-1628.2973 513,-1624.1455 513,-1608.3 513,-1608.3 513,-1608.3 513,-327.3 513,-313.4781 505.8389,-303.0918 495.2393,-295.2891"/>
<polygon fill="#000000" stroke="#000000" points="496.8542,-292.1702 486.5252,-289.8117 493.129,-298.0967 496.8542,-292.1702"/>
<text text-anchor="middle" x="511.3885" y="-1694.4" font-family="Times,serif" font-size="14.00" fill="#000000">FALSE</text>
</g>
<!-- 4 -->
<g id="node5" class="node">
<title>4</title>
<polygon fill="none" stroke="#000000" points="411.023,-2921.4 238.977,-2921.4 238.977,-2885.4 411.023,-2885.4 411.023,-2921.4"/>
<text text-anchor="middle" x="325" y="-2899.2" font-family="Times,serif" font-size="14.00" fill="#000000">eg_intr_md.egress_rid != 0;</text>
</g>
<!-- 3&#45;&gt;4 -->
<g id="edge4" class="edge">
<title>3&#45;&gt;4</title>
<path fill="none" stroke="#000000" d="M347.2748,-3012.0327C342.9501,-2990.9411 335.7678,-2955.9136 330.731,-2931.3494"/>
<polygon fill="#000000" stroke="#000000" points="334.1557,-2930.6268 328.7183,-2921.5336 327.2984,-2932.0329 334.1557,-2930.6268"/>
<text text-anchor="middle" x="357.2742" y="-2962.6" font-family="Times,serif" font-size="14.00" fill="#000000">TRUE</text>
</g>
<!-- 3&#45;&gt;26 -->
<g id="edge5" class="edge">
<title>3&#45;&gt;26</title>
<path fill="none" stroke="#000000" d="M399.7615,-3012.1334C417.8283,-3002.0439 434,-2987.2899 434,-2966.8 434,-2966.8 434,-2966.8 434,-1735.1 434,-1709.9771 442.0396,-1704.7395 449,-1680.6 455.9193,-1656.6031 457.9905,-1650.7044 465.223,-1626.8 477.5305,-1586.1219 493,-1577.7992 493,-1535.3 493,-1535.3 493,-1535.3 493,-327.3 493,-313.8478 485.4795,-303.4983 474.8864,-295.5928"/>
<polygon fill="#000000" stroke="#000000" points="476.5579,-292.5056 466.2605,-290.0129 472.7559,-298.3831 476.5579,-292.5056"/>
<text text-anchor="middle" x="486.3885" y="-1631" font-family="Times,serif" font-size="14.00" fill="#000000">FALSE</text>
</g>
<!-- 5 -->
<g id="node6" class="node">
<title>5</title>
<ellipse fill="none" stroke="#000000" cx="262" cy="-2776.6" rx="27" ry="18"/>
<text text-anchor="middle" x="262" y="-2772.4" font-family="Times,serif" font-size="14.00" fill="#000000">rid</text>
</g>
<!-- 4&#45;&gt;5 -->
<g id="edge6" class="edge">
<title>4&#45;&gt;5</title>
<path fill="none" stroke="#000000" d="M308.5982,-2885.1709C300.1115,-2874.9568 290.154,-2861.6391 283.4516,-2848.4 276.4745,-2834.6185 271.3549,-2818.1755 267.8706,-2804.5045"/>
<polygon fill="#000000" stroke="#000000" points="271.2512,-2803.5922 265.5212,-2794.6806 264.4431,-2805.2204 271.2512,-2803.5922"/>
<text text-anchor="middle" x="301.2742" y="-2835.8" font-family="Times,serif" font-size="14.00" fill="#000000">TRUE</text>
</g>
<!-- 6 -->
<g id="node7" class="node">
<title>6</title>
<polygon fill="none" stroke="#000000" points="414.5762,-2683.6 109.4238,-2683.6 109.4238,-2647.6 414.5762,-2647.6 414.5762,-2683.6"/>
<text text-anchor="middle" x="262" y="-2661.4" font-family="Times,serif" font-size="14.00" fill="#000000">__bfp4c_compiler_generated_meta.clone_src == 0;</text>
</g>
<!-- 4&#45;&gt;6 -->
<g id="edge7" class="edge">
<title>4&#45;&gt;6</title>
<path fill="none" stroke="#000000" d="M325,-2885.3635C325,-2872.6761 325,-2855.2997 325,-2840 325,-2840 325,-2840 325,-2721.1 325,-2708.5632 317.8889,-2698.1858 308.4449,-2689.9319"/>
<polygon fill="#000000" stroke="#000000" points="310.5161,-2687.1092 300.4622,-2683.767 306.2375,-2692.6494 310.5161,-2687.1092"/>
<text text-anchor="middle" x="346.3885" y="-2772.4" font-family="Times,serif" font-size="14.00" fill="#000000">FALSE</text>
</g>
<!-- 5&#45;&gt;6 -->
<g id="edge8" class="edge">
<title>5&#45;&gt;6</title>
<path fill="none" stroke="#000000" d="M262,-2758.2706C262,-2740.8373 262,-2714.3482 262,-2694.1489"/>
<polygon fill="#000000" stroke="#000000" points="265.5001,-2693.9566 262,-2683.9566 258.5001,-2693.9567 265.5001,-2693.9566"/>
</g>
<!-- 7 -->
<g id="node8" class="node">
<title>7</title>
<ellipse fill="none" stroke="#000000" cx="237" cy="-2538.8" rx="35.9115" ry="18"/>
<text text-anchor="middle" x="237" y="-2534.6" font-family="Times,serif" font-size="14.00" fill="#000000">mirror</text>
</g>
<!-- 6&#45;&gt;7 -->
<g id="edge9" class="edge">
<title>6&#45;&gt;7</title>
<path fill="none" stroke="#000000" d="M258.4181,-2647.4327C254.2597,-2626.3411 247.3536,-2591.3136 242.5105,-2566.7494"/>
<polygon fill="#000000" stroke="#000000" points="245.9436,-2566.0677 240.5752,-2556.9336 239.0758,-2567.4218 245.9436,-2566.0677"/>
<text text-anchor="middle" x="271.3885" y="-2598" font-family="Times,serif" font-size="14.00" fill="#000000">FALSE</text>
</g>
<!-- 8 -->
<g id="node9" class="node">
<title>8</title>
<polygon fill="none" stroke="#000000" points="377.023,-2445.8 204.977,-2445.8 204.977,-2409.8 377.023,-2409.8 377.023,-2445.8"/>
<text text-anchor="middle" x="291" y="-2423.6" font-family="Times,serif" font-size="14.00" fill="#000000">eg_intr_md.egress_rid != 0;</text>
</g>
<!-- 6&#45;&gt;8 -->
<g id="edge10" class="edge">
<title>6&#45;&gt;8</title>
<path fill="none" stroke="#000000" d="M284.9493,-2647.5878C296.8799,-2636.083 309,-2620.0121 309,-2602.2 309,-2602.2 309,-2602.2 309,-2483.3 309,-2473.8796 306.6245,-2463.9791 303.5994,-2455.1907"/>
<polygon fill="#000000" stroke="#000000" points="306.8547,-2453.9043 300,-2445.8257 300.3206,-2456.4157 306.8547,-2453.9043"/>
<text text-anchor="middle" x="327.2742" y="-2534.6" font-family="Times,serif" font-size="14.00" fill="#000000">TRUE</text>
</g>
<!-- 7&#45;&gt;8 -->
<g id="edge11" class="edge">
<title>7&#45;&gt;8</title>
<path fill="none" stroke="#000000" d="M245.676,-2520.9659C254.3238,-2503.1899 267.7201,-2475.6531 277.709,-2455.1203"/>
<polygon fill="#000000" stroke="#000000" points="280.9387,-2456.4821 282.1661,-2445.9586 274.6441,-2453.4198 280.9387,-2456.4821"/>
</g>
<!-- 9 -->
<g id="node10" class="node">
<title>9</title>
<ellipse fill="none" stroke="#000000" cx="221" cy="-2301" rx="94.9013" ry="18"/>
<text text-anchor="middle" x="221" y="-2296.8" font-family="Times,serif" font-size="14.00" fill="#000000">mcast_egress_ifindex</text>
</g>
<!-- 8&#45;&gt;9 -->
<g id="edge12" class="edge">
<title>8&#45;&gt;9</title>
<path fill="none" stroke="#000000" d="M280.9707,-2409.6327C269.1711,-2388.2586 249.4708,-2352.5729 235.8878,-2327.9681"/>
<polygon fill="#000000" stroke="#000000" points="238.9078,-2326.1967 231.0107,-2319.1336 232.7796,-2329.5798 238.9078,-2326.1967"/>
<text text-anchor="middle" x="277.2742" y="-2360.2" font-family="Times,serif" font-size="14.00" fill="#000000">TRUE</text>
</g>
<!-- 10 -->
<g id="node11" class="node">
<title>10</title>
<polygon fill="none" stroke="#000000" points="408.023,-2208 235.977,-2208 235.977,-2172 408.023,-2172 408.023,-2208"/>
<text text-anchor="middle" x="322" y="-2185.8" font-family="Times,serif" font-size="14.00" fill="#000000">eg_intr_md.egress_rid != 0;</text>
</g>
<!-- 8&#45;&gt;10 -->
<g id="edge13" class="edge">
<title>8&#45;&gt;10</title>
<path fill="none" stroke="#000000" d="M322.9292,-2409.7214C337.6882,-2398.807 352,-2383.3402 352,-2364.4 352,-2364.4 352,-2364.4 352,-2245.5 352,-2235.4198 348.1229,-2225.4145 343.1562,-2216.733"/>
<polygon fill="#000000" stroke="#000000" points="346.0433,-2214.7512 337.7029,-2208.2175 340.1484,-2218.5262 346.0433,-2214.7512"/>
<text text-anchor="middle" x="373.3885" y="-2296.8" font-family="Times,serif" font-size="14.00" fill="#000000">FALSE</text>
</g>
<!-- 9&#45;&gt;10 -->
<g id="edge14" class="edge">
<title>9&#45;&gt;10</title>
<path fill="none" stroke="#000000" d="M237.2274,-2283.1659C253.8411,-2264.9073 279.825,-2236.3507 298.6482,-2215.6638"/>
<polygon fill="#000000" stroke="#000000" points="301.336,-2217.9105 305.4773,-2208.1586 296.1585,-2213.1995 301.336,-2217.9105"/>
</g>
<!-- 11 -->
<g id="node12" class="node">
<title>11</title>
<ellipse fill="none" stroke="#000000" cx="236" cy="-2063.2" rx="58.5271" ry="18"/>
<text text-anchor="middle" x="236" y="-2059" font-family="Times,serif" font-size="14.00" fill="#000000">replica_type</text>
</g>
<!-- 10&#45;&gt;11 -->
<g id="edge15" class="edge">
<title>10&#45;&gt;11</title>
<path fill="none" stroke="#000000" d="M309.6783,-2171.8327C295.0351,-2150.2425 270.4879,-2114.0497 253.7868,-2089.4252"/>
<polygon fill="#000000" stroke="#000000" points="256.5313,-2087.2363 248.0216,-2080.9248 250.7381,-2091.1655 256.5313,-2087.2363"/>
<text text-anchor="middle" x="301.2742" y="-2122.4" font-family="Times,serif" font-size="14.00" fill="#000000">TRUE</text>
</g>
<!-- 12 -->
<g id="node13" class="node">
<title>12</title>
<ellipse fill="none" stroke="#000000" cx="304" cy="-1952.2" rx="94.3466" ry="18"/>
<text text-anchor="middle" x="304" y="-1948" font-family="Times,serif" font-size="14.00" fill="#000000">egress_port_mapping</text>
</g>
<!-- 10&#45;&gt;12 -->
<g id="edge16" class="edge">
<title>10&#45;&gt;12</title>
<path fill="none" stroke="#000000" d="M325.9737,-2171.786C328.3847,-2159.1666 331,-2141.9419 331,-2126.6 331,-2126.6 331,-2126.6 331,-2007.7 331,-1997.7852 327.4726,-1987.7869 322.9676,-1979.0609"/>
<polygon fill="#000000" stroke="#000000" points="325.8532,-1977.0592 317.8164,-1970.1556 319.794,-1980.5643 325.8532,-1977.0592"/>
<text text-anchor="middle" x="352.3885" y="-2059" font-family="Times,serif" font-size="14.00" fill="#000000">FALSE</text>
</g>
<!-- 11&#45;&gt;12 -->
<g id="edge17" class="edge">
<title>11&#45;&gt;12</title>
<path fill="none" stroke="#000000" d="M246.9254,-2045.3659C257.9137,-2027.429 274.9904,-1999.5539 287.6037,-1978.9646"/>
<polygon fill="#000000" stroke="#000000" points="290.6365,-1980.7141 292.8758,-1970.3586 284.6675,-1977.0573 290.6365,-1980.7141"/>
</g>
<!-- 13 -->
<g id="node14" class="node">
<title>13</title>
<polygon fill="none" stroke="#000000" points="356.5762,-1843.4 51.4238,-1843.4 51.4238,-1807.4 356.5762,-1807.4 356.5762,-1843.4"/>
<text text-anchor="middle" x="204" y="-1821.2" font-family="Times,serif" font-size="14.00" fill="#000000">__bfp4c_compiler_generated_meta.clone_src == 0;</text>
</g>
<!-- 12&#45;&gt;13 -->
<g id="edge18" class="edge">
<title>12&#45;&gt;13</title>
<path fill="none" stroke="#000000" d="M269.4231,-1935.2307C253.7645,-1925.9598 236.2432,-1913.1047 224.8176,-1897.2 215.7061,-1884.5165 210.5608,-1867.8936 207.6661,-1853.8366"/>
<polygon fill="#000000" stroke="#000000" points="211.0596,-1852.928 205.8629,-1843.6952 204.1677,-1854.1535 211.0596,-1852.928"/>
<text text-anchor="middle" x="297.0912" y="-1884.6" font-family="Times,serif" font-size="14.00" fill="#000000">egress_port_type_normal;</text>
</g>
<!-- 17 -->
<g id="node18" class="node">
<title>17</title>
<polygon fill="none" stroke="#000000" points="424.0558,-1352 193.9442,-1352 193.9442,-1316 424.0558,-1316 424.0558,-1352"/>
<text text-anchor="middle" x="309" y="-1329.8" font-family="Times,serif" font-size="14.00" fill="#000000">meta.egress_metadata.port_type == 0;</text>
</g>
<!-- 12&#45;&gt;17 -->
<g id="edge19" class="edge">
<title>12&#45;&gt;17</title>
<path fill="none" stroke="#000000" d="M341.687,-1935.4873C359.1074,-1924.973 376,-1909.4527 376,-1888.8 376,-1888.8 376,-1888.8 376,-1662.1 376,-1645.2011 378.7237,-1639.2697 390.129,-1626.8 414.6438,-1599.9976 441.2727,-1618.9079 463,-1589.8 477.731,-1570.0651 473,-1559.9266 473,-1535.3 473,-1535.3 473,-1535.3 473,-1389.5 473,-1374.9214 449.4536,-1363.4224 420.2049,-1354.7623"/>
<polygon fill="#000000" stroke="#000000" points="421.1044,-1351.3796 410.5308,-1352.0501 419.2147,-1358.1197 421.1044,-1351.3796"/>
<text text-anchor="middle" x="409.4355" y="-1631" font-family="Times,serif" font-size="14.00" fill="#000000">default</text>
</g>
<!-- 14 -->
<g id="node15" class="node">
<title>14</title>
<ellipse fill="none" stroke="#000000" cx="179" cy="-1698.6" rx="55.0188" ry="18"/>
<text text-anchor="middle" x="179" y="-1694.4" font-family="Times,serif" font-size="14.00" fill="#000000">vlan_decap</text>
</g>
<!-- 13&#45;&gt;14 -->
<g id="edge20" class="edge">
<title>13&#45;&gt;14</title>
<path fill="none" stroke="#000000" d="M200.4181,-1807.2327C196.2597,-1786.1411 189.3536,-1751.1136 184.5105,-1726.5494"/>
<polygon fill="#000000" stroke="#000000" points="187.9436,-1725.8677 182.5752,-1716.7336 181.0758,-1727.2218 187.9436,-1725.8677"/>
<text text-anchor="middle" x="210.2742" y="-1757.8" font-family="Times,serif" font-size="14.00" fill="#000000">TRUE</text>
</g>
<!-- 15 -->
<g id="node16" class="node">
<title>15</title>
<polygon fill="none" stroke="#000000" points="453.6592,-1589.8 16.3408,-1589.8 16.3408,-1553.8 453.6592,-1553.8 453.6592,-1589.8"/>
<text text-anchor="middle" x="235" y="-1567.6" font-family="Times,serif" font-size="14.00" fill="#000000">meta.egress_metadata.routed == 0 || meta.l3_metadata.nexthop_index != 0;</text>
</g>
<!-- 13&#45;&gt;15 -->
<g id="edge21" class="edge">
<title>13&#45;&gt;15</title>
<path fill="none" stroke="#000000" d="M239.7043,-1807.1413C255.2553,-1796.4403 270,-1781.2252 270,-1762 270,-1762 270,-1762 270,-1635.2 270,-1622.1361 264.234,-1609.2324 257.3827,-1598.5111"/>
<polygon fill="#000000" stroke="#000000" points="260.0741,-1596.2522 251.4751,-1590.0628 254.3375,-1600.2637 260.0741,-1596.2522"/>
<text text-anchor="middle" x="291.3885" y="-1694.4" font-family="Times,serif" font-size="14.00" fill="#000000">FALSE</text>
</g>
<!-- 14&#45;&gt;15 -->
<g id="edge22" class="edge">
<title>14&#45;&gt;15</title>
<path fill="none" stroke="#000000" d="M186.9047,-1680.7016C196.2736,-1659.4877 211.9867,-1623.9088 222.8917,-1599.2166"/>
<polygon fill="#000000" stroke="#000000" points="226.1159,-1600.5796 226.9542,-1590.0179 219.7125,-1597.7516 226.1159,-1600.5796"/>
</g>
<!-- 16 -->
<g id="node17" class="node">
<title>16</title>
<ellipse fill="none" stroke="#000000" cx="235" cy="-1445" rx="38.2568" ry="18"/>
<text text-anchor="middle" x="235" y="-1440.8" font-family="Times,serif" font-size="14.00" fill="#000000">rewrite</text>
</g>
<!-- 15&#45;&gt;16 -->
<g id="edge23" class="edge">
<title>15&#45;&gt;16</title>
<path fill="none" stroke="#000000" d="M235,-1553.6327C235,-1532.6352 235,-1497.8261 235,-1473.279"/>
<polygon fill="#000000" stroke="#000000" points="238.5001,-1473.1336 235,-1463.1336 231.5001,-1473.1337 238.5001,-1473.1336"/>
<text text-anchor="middle" x="253.2742" y="-1504.2" font-family="Times,serif" font-size="14.00" fill="#000000">TRUE</text>
</g>
<!-- 15&#45;&gt;17 -->
<g id="edge24" class="edge">
<title>15&#45;&gt;17</title>
<path fill="none" stroke="#000000" d="M276.3271,-1553.7955C293.2777,-1543.3925 309,-1528.3627 309,-1508.4 309,-1508.4 309,-1508.4 309,-1389.5 309,-1380.7318 309,-1371.1843 309,-1362.5196"/>
<polygon fill="#000000" stroke="#000000" points="312.5001,-1362.5 309,-1352.5 305.5001,-1362.5 312.5001,-1362.5"/>
<text text-anchor="middle" x="330.3885" y="-1440.8" font-family="Times,serif" font-size="14.00" fill="#000000">FALSE</text>
</g>
<!-- 16&#45;&gt;17 -->
<g id="edge25" class="edge">
<title>16&#45;&gt;17</title>
<path fill="none" stroke="#000000" d="M246.5625,-1427.6563C258.5134,-1409.7299 277.3268,-1381.5098 291.181,-1360.7285"/>
<polygon fill="#000000" stroke="#000000" points="294.1455,-1362.5914 296.7804,-1352.3294 288.3212,-1358.7084 294.1455,-1362.5914"/>
</g>
<!-- 18 -->
<g id="node19" class="node">
<title>18</title>
<ellipse fill="none" stroke="#000000" cx="211" cy="-1207.2" rx="71.2114" ry="18"/>
<text text-anchor="middle" x="211" y="-1203" font-family="Times,serif" font-size="14.00" fill="#000000">egress_bd_map</text>
</g>
<!-- 17&#45;&gt;18 -->
<g id="edge26" class="edge">
<title>17&#45;&gt;18</title>
<path fill="none" stroke="#000000" d="M294.959,-1315.8327C278.1994,-1294.1478 250.0546,-1257.7319 231.0188,-1233.1018"/>
<polygon fill="#000000" stroke="#000000" points="233.5835,-1230.6968 224.699,-1224.9248 228.0449,-1234.9775 233.5835,-1230.6968"/>
<text text-anchor="middle" x="282.2742" y="-1266.4" font-family="Times,serif" font-size="14.00" fill="#000000">TRUE</text>
</g>
<!-- 23 -->
<g id="node24" class="node">
<title>23</title>
<ellipse fill="none" stroke="#000000" cx="309" cy="-620.6" rx="27" ry="18"/>
<text text-anchor="middle" x="309" y="-616.4" font-family="Times,serif" font-size="14.00" fill="#000000">mtu</text>
</g>
<!-- 17&#45;&gt;23 -->
<g id="edge27" class="edge">
<title>17&#45;&gt;23</title>
<path fill="none" stroke="#000000" d="M312.9737,-1315.786C315.3847,-1303.1666 318,-1285.9419 318,-1270.6 318,-1270.6 318,-1270.6 318,-676.1 318,-667.0784 316.827,-657.3371 315.3279,-648.5716"/>
<polygon fill="#000000" stroke="#000000" points="318.7133,-647.6406 313.3945,-638.4775 311.8382,-648.9574 318.7133,-647.6406"/>
<text text-anchor="middle" x="339.3885" y="-965.2" font-family="Times,serif" font-size="14.00" fill="#000000">FALSE</text>
</g>
<!-- 19 -->
<g id="node20" class="node">
<title>19</title>
<polygon fill="none" stroke="#000000" points="299.1653,-1114.2 86.8347,-1114.2 86.8347,-1078.2 299.1653,-1078.2 299.1653,-1114.2"/>
<text text-anchor="middle" x="193" y="-1092" font-family="Times,serif" font-size="14.00" fill="#000000">meta.egress_metadata.routed == 1;</text>
</g>
<!-- 18&#45;&gt;19 -->
<g id="edge28" class="edge">
<title>18&#45;&gt;19</title>
<path fill="none" stroke="#000000" d="M208.0277,-1188.8706C205.1876,-1171.3569 200.8655,-1144.7039 197.5843,-1124.4701"/>
<polygon fill="#000000" stroke="#000000" points="201.0324,-1123.8674 195.9767,-1114.5566 194.1227,-1124.988 201.0324,-1123.8674"/>
</g>
<!-- 20 -->
<g id="node21" class="node">
<title>20</title>
<ellipse fill="none" stroke="#000000" cx="166" cy="-969.4" rx="50.9386" ry="18"/>
<text text-anchor="middle" x="166" y="-965.2" font-family="Times,serif" font-size="14.00" fill="#000000">l3_rewrite</text>
</g>
<!-- 19&#45;&gt;20 -->
<g id="edge29" class="edge">
<title>19&#45;&gt;20</title>
<path fill="none" stroke="#000000" d="M189.1316,-1078.0327C184.6404,-1056.9411 177.1819,-1021.9136 171.9514,-997.3494"/>
<polygon fill="#000000" stroke="#000000" points="175.3672,-996.5854 169.8613,-987.5336 168.5207,-998.0433 175.3672,-996.5854"/>
<text text-anchor="middle" x="198.2742" y="-1028.6" font-family="Times,serif" font-size="14.00" fill="#000000">TRUE</text>
</g>
<!-- 22 -->
<g id="node23" class="node">
<title>22</title>
<ellipse fill="none" stroke="#000000" cx="227" cy="-731.6" rx="71.7873" ry="18"/>
<text text-anchor="middle" x="227" y="-727.4" font-family="Times,serif" font-size="14.00" fill="#000000">egress_bd_stats</text>
</g>
<!-- 19&#45;&gt;22 -->
<g id="edge30" class="edge">
<title>19&#45;&gt;22</title>
<path fill="none" stroke="#000000" d="M215.461,-1078.0908C227.1378,-1066.5516 239,-1050.4786 239,-1032.8 239,-1032.8 239,-1032.8 239,-787.1 239,-778.0306 237.4502,-768.312 235.4645,-759.5821"/>
<polygon fill="#000000" stroke="#000000" points="238.8557,-758.7158 233,-749.8863 232.0714,-760.4403 238.8557,-758.7158"/>
<text text-anchor="middle" x="260.3885" y="-901.8" font-family="Times,serif" font-size="14.00" fill="#000000">FALSE</text>
</g>
<!-- 21 -->
<g id="node22" class="node">
<title>21</title>
<ellipse fill="none" stroke="#000000" cx="157" cy="-842.6" rx="63.0957" ry="18"/>
<text text-anchor="middle" x="157" y="-838.4" font-family="Times,serif" font-size="14.00" fill="#000000">smac_rewrite</text>
</g>
<!-- 20&#45;&gt;21 -->
<g id="edge31" class="edge">
<title>20&#45;&gt;21</title>
<path fill="none" stroke="#000000" d="M164.7105,-951.2327C163.2202,-930.2352 160.7495,-895.4261 159.0072,-870.879"/>
<polygon fill="#000000" stroke="#000000" points="162.4864,-870.4607 158.2871,-860.7336 155.504,-870.9564 162.4864,-870.4607"/>
</g>
<!-- 21&#45;&gt;22 -->
<g id="edge32" class="edge">
<title>21&#45;&gt;22</title>
<path fill="none" stroke="#000000" d="M168.2467,-824.7659C179.6256,-806.7223 197.3467,-778.6217 210.3528,-757.9977"/>
<polygon fill="#000000" stroke="#000000" points="213.4074,-759.7153 215.7812,-749.3898 207.4865,-755.9814 213.4074,-759.7153"/>
</g>
<!-- 22&#45;&gt;23 -->
<g id="edge33" class="edge">
<title>22&#45;&gt;23</title>
<path fill="none" stroke="#000000" d="M240.1747,-713.7659C253.9421,-695.1295 275.6351,-665.7647 290.9821,-644.9901"/>
<polygon fill="#000000" stroke="#000000" points="293.8,-647.066 296.9268,-636.943 288.1697,-642.9066 293.8,-647.066"/>
</g>
<!-- 24 -->
<g id="node25" class="node">
<title>24</title>
<polygon fill="none" stroke="#000000" points="424.0558,-527.6 193.9442,-527.6 193.9442,-491.6 424.0558,-491.6 424.0558,-527.6"/>
<text text-anchor="middle" x="309" y="-505.4" font-family="Times,serif" font-size="14.00" fill="#000000">meta.egress_metadata.port_type == 0;</text>
</g>
<!-- 23&#45;&gt;24 -->
<g id="edge34" class="edge">
<title>23&#45;&gt;24</title>
<path fill="none" stroke="#000000" d="M309,-602.2706C309,-584.8373 309,-558.3482 309,-538.1489"/>
<polygon fill="#000000" stroke="#000000" points="312.5001,-537.9566 309,-527.9566 305.5001,-537.9567 312.5001,-537.9566"/>
</g>
<!-- 25 -->
<g id="node26" class="node">
<title>25</title>
<ellipse fill="none" stroke="#000000" cx="298" cy="-382.8" rx="80.4364" ry="18"/>
<text text-anchor="middle" x="298" y="-378.6" font-family="Times,serif" font-size="14.00" fill="#000000">egress_vlan_xlate</text>
</g>
<!-- 24&#45;&gt;25 -->
<g id="edge35" class="edge">
<title>24&#45;&gt;25</title>
<path fill="none" stroke="#000000" d="M307.424,-491.4327C305.6024,-470.4352 302.5827,-435.6261 300.4532,-411.079"/>
<polygon fill="#000000" stroke="#000000" points="303.9244,-410.5937 299.5731,-400.9336 296.9506,-411.1988 303.9244,-410.5937"/>
<text text-anchor="middle" x="322.2742" y="-442" font-family="Times,serif" font-size="14.00" fill="#000000">TRUE</text>
</g>
<!-- 24&#45;&gt;26 -->
<g id="edge36" class="edge">
<title>24&#45;&gt;26</title>
<path fill="none" stroke="#000000" d="M378.1586,-491.5297C397.8177,-481.9699 414,-467.601 414,-446.2 414,-446.2 414,-446.2 414,-327.3 414,-318.4623 413.1155,-308.8948 411.9753,-300.233"/>
<polygon fill="#000000" stroke="#000000" points="415.4213,-299.6092 410.5,-290.2267 408.4961,-300.6303 415.4213,-299.6092"/>
<text text-anchor="middle" x="435.3885" y="-378.6" font-family="Times,serif" font-size="14.00" fill="#000000">FALSE</text>
</g>
<!-- 25&#45;&gt;26 -->
<g id="edge37" class="edge">
<title>25&#45;&gt;26</title>
<path fill="none" stroke="#000000" d="M315.5127,-364.9659C333.5214,-346.6269 361.7317,-317.8989 382.0666,-297.1909"/>
<polygon fill="#000000" stroke="#000000" points="384.6594,-299.5459 389.1686,-289.9586 379.6648,-294.6414 384.6594,-299.5459"/>
</g>
<!-- 26&#45;&gt;1 -->
<g id="edge39" class="edge">
<title>26&#45;&gt;1</title>
<path fill="none" stroke="#000000" d="M315.7636,-253.7258C296.0583,-244.3368 281,-230.072 281,-208.4 281,-208.4 281,-208.4 281,-89.5 281,-78.6062 286.1736,-68.4486 292.8451,-59.8789"/>
<polygon fill="#000000" stroke="#000000" points="295.6323,-62.0085 299.5806,-52.1768 290.363,-57.4004 295.6323,-62.0085"/>
<text text-anchor="middle" x="302.3885" y="-140.8" font-family="Times,serif" font-size="14.00" fill="#000000">FALSE</text>
</g>
<!-- 27 -->
<g id="node28" class="node">
<title>27</title>
<ellipse fill="none" stroke="#000000" cx="425" cy="-145" rx="82.8013" ry="18"/>
<text text-anchor="middle" x="425" y="-140.8" font-family="Times,serif" font-size="14.00" fill="#000000">egress_system_acl</text>
</g>
<!-- 26&#45;&gt;27 -->
<g id="edge38" class="edge">
<title>26&#45;&gt;27</title>
<path fill="none" stroke="#000000" d="M409.579,-253.6327C412.5597,-232.6352 417.501,-197.8261 420.9856,-173.279"/>
<polygon fill="#000000" stroke="#000000" points="424.4855,-173.5263 422.4258,-163.1336 417.555,-172.5424 424.4855,-173.5263"/>
<text text-anchor="middle" x="434.2742" y="-204.2" font-family="Times,serif" font-size="14.00" fill="#000000">TRUE</text>
</g>
<!-- 27&#45;&gt;1 -->
<g id="edge40" class="edge">
<title>27&#45;&gt;1</title>
<path fill="none" stroke="#000000" d="M408.4513,-127.1659C391.5086,-108.9073 365.0101,-80.3507 345.8142,-59.6638"/>
<polygon fill="#000000" stroke="#000000" points="348.2175,-57.1082 338.8498,-52.1586 343.0862,-61.8696 348.2175,-57.1082"/>
</g>
</g>
</svg>
