<?xml version="1.0" encoding="UTF-8" standalone="no"?>
<!DOCTYPE svg PUBLIC "-//W3C//DTD SVG 1.1//EN"
 "http://www.w3.org/Graphics/SVG/1.1/DTD/svg11.dtd">
<!-- Generated by graphviz version 2.40.1 (20161225.0304)
 -->
<!-- Title: ingress Pages: 1 -->
<svg width="348pt" height="1566pt"
 viewBox="0.00 0.00 348.00 1566.40" xmlns="http://www.w3.org/2000/svg" xmlns:xlink="http://www.w3.org/1999/xlink">
<g id="graph0" class="graph" transform="scale(1 1) rotate(0) translate(4 1562.4)">
<title>ingress</title>
<polygon fill="#ffffff" stroke="transparent" points="-4,4 -4,-1562.4 344,-1562.4 344,4 -4,4"/>
<g id="clust1" class="cluster">
<title>cluster</title>
<polygon fill="none" stroke="#000000" stroke-width="2" points="8,-8 8,-1550.4 332,-1550.4 332,-8 8,-8"/>
</g>
<!-- 0 -->
<g id="node1" class="node">
<title>0</title>
<polygon fill="none" stroke="#000000" points="124.3316,-1542.4 35.6684,-1542.4 35.6684,-1506.4 124.3316,-1506.4 124.3316,-1542.4"/>
<text text-anchor="middle" x="80" y="-1520.2" font-family="Times,serif" font-size="14.00" fill="#000000">__START__</text>
</g>
<!-- 2 -->
<g id="node3" class="node">
<title>2</title>
<polygon fill="none" stroke="#000000" points="140.2008,-1431.4 19.7992,-1431.4 19.7992,-1395.4 140.2008,-1395.4 140.2008,-1431.4"/>
<text text-anchor="middle" x="80" y="-1409.2" font-family="Times,serif" font-size="14.00" fill="#000000">hdr.ipv4.isValid();</text>
</g>
<!-- 0&#45;&gt;2 -->
<g id="edge1" class="edge">
<title>0&#45;&gt;2</title>
<path fill="none" stroke="#000000" d="M80,-1506.0706C80,-1488.6373 80,-1462.1482 80,-1441.9489"/>
<polygon fill="#000000" stroke="#000000" points="83.5001,-1441.7566 80,-1431.7566 76.5001,-1441.7567 83.5001,-1441.7566"/>
</g>
<!-- 1 -->
<g id="node2" class="node">
<title>1</title>
<polygon fill="none" stroke="#000000" points="91.8725,-52 16.1275,-52 16.1275,-16 91.8725,-16 91.8725,-52"/>
<text text-anchor="middle" x="54" y="-29.8" font-family="Times,serif" font-size="14.00" fill="#000000">__EXIT__</text>
</g>
<!-- 2&#45;&gt;1 -->
<g id="edge3" class="edge">
<title>2&#45;&gt;1</title>
<path fill="none" stroke="#000000" d="M46.6552,-1395.2983C31.5436,-1384.4675 17,-1369.0861 17,-1350 17,-1350 17,-1350 17,-879.1 17,-747.9889 17,-715.2111 17,-584.1 17,-584.1 17,-584.1 17,-89.5 17,-78.904 21.7268,-68.7923 27.8014,-60.1724"/>
<polygon fill="#000000" stroke="#000000" points="30.7389,-62.1006 34.2002,-52.0871 25.2499,-57.7565 30.7389,-62.1006"/>
<text text-anchor="middle" x="38.3885" y="-727.4" font-family="Times,serif" font-size="14.00" fill="#000000">FALSE</text>
</g>
<!-- 3 -->
<g id="node4" class="node">
<title>3</title>
<ellipse fill="none" stroke="#000000" cx="106" cy="-1286.6" rx="48.1167" ry="18"/>
<text text-anchor="middle" x="106" y="-1282.4" font-family="Times,serif" font-size="14.00" fill="#000000">ipv4_lpm</text>
</g>
<!-- 2&#45;&gt;3 -->
<g id="edge2" class="edge">
<title>2&#45;&gt;3</title>
<path fill="none" stroke="#000000" d="M83.7252,-1395.2327C88.0499,-1374.1411 95.2322,-1339.1136 100.269,-1314.5494"/>
<polygon fill="#000000" stroke="#000000" points="103.7016,-1315.2329 102.2817,-1304.7336 96.8443,-1313.8268 103.7016,-1315.2329"/>
<text text-anchor="middle" x="112.2742" y="-1345.8" font-family="Times,serif" font-size="14.00" fill="#000000">TRUE</text>
</g>
<!-- 4 -->
<g id="node5" class="node">
<title>4</title>
<ellipse fill="none" stroke="#000000" cx="136" cy="-1175.6" rx="92.6615" ry="18"/>
<text text-anchor="middle" x="136" y="-1171.4" font-family="Times,serif" font-size="14.00" fill="#000000">ti_get_incoming_pos</text>
</g>
<!-- 3&#45;&gt;4 -->
<g id="edge4" class="edge">
<title>3&#45;&gt;4</title>
<path fill="none" stroke="#000000" d="M110.9539,-1268.2706C115.7157,-1250.6521 122.9772,-1223.7843 128.4575,-1203.5073"/>
<polygon fill="#000000" stroke="#000000" points="131.9079,-1204.1552 131.1383,-1193.5883 125.1504,-1202.3288 131.9079,-1204.1552"/>
</g>
<!-- 5 -->
<g id="node6" class="node">
<title>5</title>
<ellipse fill="none" stroke="#000000" cx="144" cy="-1064.6" rx="78.1462" ry="18"/>
<text text-anchor="middle" x="144" y="-1060.4" font-family="Times,serif" font-size="14.00" fill="#000000">ti_calculate_hash</text>
</g>
<!-- 4&#45;&gt;5 -->
<g id="edge5" class="edge">
<title>4&#45;&gt;5</title>
<path fill="none" stroke="#000000" d="M137.321,-1157.2706C138.5775,-1139.8373 140.4866,-1113.3482 141.9424,-1093.1489"/>
<polygon fill="#000000" stroke="#000000" points="145.449,-1093.1824 142.677,-1082.9566 138.4671,-1092.6791 145.449,-1093.1824"/>
</g>
<!-- 6 -->
<g id="node7" class="node">
<title>6</title>
<ellipse fill="none" stroke="#000000" cx="161" cy="-953.6" rx="107.084" ry="18"/>
<text text-anchor="middle" x="161" y="-949.4" font-family="Times,serif" font-size="14.00" fill="#000000">ti_write_flow_counter_1</text>
</g>
<!-- 5&#45;&gt;6 -->
<g id="edge6" class="edge">
<title>5&#45;&gt;6</title>
<path fill="none" stroke="#000000" d="M146.8072,-1046.2706C149.4895,-1028.7569 153.5715,-1002.1039 156.6704,-981.8701"/>
<polygon fill="#000000" stroke="#000000" points="160.1343,-982.3713 158.1886,-971.9566 153.215,-981.3115 160.1343,-982.3713"/>
</g>
<!-- 7 -->
<g id="node8" class="node">
<title>7</title>
<ellipse fill="none" stroke="#000000" cx="180" cy="-842.6" rx="143.5248" ry="18"/>
<text text-anchor="middle" x="180" y="-838.4" font-family="Times,serif" font-size="14.00" fill="#000000">ti_write_flow_counter_warning_1</text>
</g>
<!-- 6&#45;&gt;7 -->
<g id="edge7" class="edge">
<title>6&#45;&gt;7</title>
<path fill="none" stroke="#000000" d="M164.1375,-935.2706C167.1353,-917.7569 171.6975,-891.1039 175.161,-870.8701"/>
<polygon fill="#000000" stroke="#000000" points="178.6204,-871.4038 176.8579,-860.9566 171.7208,-870.2227 178.6204,-871.4038"/>
</g>
<!-- 8 -->
<g id="node9" class="node">
<title>8</title>
<ellipse fill="none" stroke="#000000" cx="202" cy="-731.6" rx="107.084" ry="18"/>
<text text-anchor="middle" x="202" y="-727.4" font-family="Times,serif" font-size="14.00" fill="#000000">ti_write_flow_counter_2</text>
</g>
<!-- 7&#45;&gt;8 -->
<g id="edge8" class="edge">
<title>7&#45;&gt;8</title>
<path fill="none" stroke="#000000" d="M183.6329,-824.2706C187.104,-806.7569 192.3866,-780.1039 196.3969,-759.8701"/>
<polygon fill="#000000" stroke="#000000" points="199.8507,-760.4463 198.3618,-749.9566 192.9843,-759.0853 199.8507,-760.4463"/>
</g>
<!-- 9 -->
<g id="node10" class="node">
<title>9</title>
<ellipse fill="none" stroke="#000000" cx="180" cy="-620.6" rx="143.5248" ry="18"/>
<text text-anchor="middle" x="180" y="-616.4" font-family="Times,serif" font-size="14.00" fill="#000000">ti_write_flow_counter_warning_2</text>
</g>
<!-- 8&#45;&gt;9 -->
<g id="edge9" class="edge">
<title>8&#45;&gt;9</title>
<path fill="none" stroke="#000000" d="M198.3671,-713.2706C194.896,-695.7569 189.6134,-669.1039 185.6031,-648.8701"/>
<polygon fill="#000000" stroke="#000000" points="189.0157,-648.0853 183.6382,-638.9566 182.1493,-649.4463 189.0157,-648.0853"/>
</g>
<!-- 10 -->
<g id="node11" class="node">
<title>10</title>
<polygon fill="none" stroke="#000000" points="296.6681,-527.6 63.3319,-527.6 63.3319,-491.6 296.6681,-491.6 296.6681,-527.6"/>
<text text-anchor="middle" x="180" y="-505.4" font-family="Times,serif" font-size="14.00" fill="#000000">meta.meta.reg_val_one_warning == 1;</text>
</g>
<!-- 9&#45;&gt;10 -->
<g id="edge10" class="edge">
<title>9&#45;&gt;10</title>
<path fill="none" stroke="#000000" d="M180,-602.2706C180,-584.8373 180,-558.3482 180,-538.1489"/>
<polygon fill="#000000" stroke="#000000" points="183.5001,-537.9566 180,-527.9566 176.5001,-537.9567 183.5001,-537.9566"/>
</g>
<!-- 11 -->
<g id="node12" class="node">
<title>11</title>
<ellipse fill="none" stroke="#000000" cx="124" cy="-382.8" rx="70.6645" ry="18"/>
<text text-anchor="middle" x="124" y="-378.6" font-family="Times,serif" font-size="14.00" fill="#000000">tiSendDigest_1</text>
</g>
<!-- 10&#45;&gt;11 -->
<g id="edge11" class="edge">
<title>10&#45;&gt;11</title>
<path fill="none" stroke="#000000" d="M171.9766,-491.4327C162.5785,-470.1528 146.9154,-434.687 136.0541,-410.094"/>
<polygon fill="#000000" stroke="#000000" points="139.2502,-408.6673 132.0086,-400.9336 132.8469,-411.4953 139.2502,-408.6673"/>
<text text-anchor="middle" x="172.2742" y="-442" font-family="Times,serif" font-size="14.00" fill="#000000">TRUE</text>
</g>
<!-- 12 -->
<g id="node13" class="node">
<title>12</title>
<polygon fill="none" stroke="#000000" points="285.9506,-289.8 52.0494,-289.8 52.0494,-253.8 285.9506,-253.8 285.9506,-289.8"/>
<text text-anchor="middle" x="169" y="-267.6" font-family="Times,serif" font-size="14.00" fill="#000000">meta.meta.reg_val_two_warning == 1;</text>
</g>
<!-- 10&#45;&gt;12 -->
<g id="edge12" class="edge">
<title>10&#45;&gt;12</title>
<path fill="none" stroke="#000000" d="M205.5,-491.4611C218.25,-480.1315 231,-464.2815 231,-446.2 231,-446.2 231,-446.2 231,-327.3 231,-314.7609 223.8728,-304.3445 214.4513,-296.0529"/>
<polygon fill="#000000" stroke="#000000" points="216.5366,-293.2407 206.496,-289.8588 212.2361,-298.764 216.5366,-293.2407"/>
<text text-anchor="middle" x="252.3885" y="-378.6" font-family="Times,serif" font-size="14.00" fill="#000000">FALSE</text>
</g>
<!-- 11&#45;&gt;12 -->
<g id="edge13" class="edge">
<title>11&#45;&gt;12</title>
<path fill="none" stroke="#000000" d="M131.4308,-364.4706C138.5961,-346.7963 149.5349,-319.814 157.7643,-299.5148"/>
<polygon fill="#000000" stroke="#000000" points="161.0446,-300.739 161.5581,-290.1566 154.5574,-298.109 161.0446,-300.739"/>
</g>
<!-- 12&#45;&gt;1 -->
<g id="edge15" class="edge">
<title>12&#45;&gt;1</title>
<path fill="none" stroke="#000000" d="M89.4422,-253.6624C69.6705,-244.2222 54,-229.9444 54,-208.4 54,-208.4 54,-208.4 54,-89.5 54,-80.7318 54,-71.1843 54,-62.5196"/>
<polygon fill="#000000" stroke="#000000" points="57.5001,-62.5 54,-52.5 50.5001,-62.5 57.5001,-62.5"/>
<text text-anchor="middle" x="75.3885" y="-140.8" font-family="Times,serif" font-size="14.00" fill="#000000">FALSE</text>
</g>
<!-- 13 -->
<g id="node14" class="node">
<title>13</title>
<ellipse fill="none" stroke="#000000" cx="185" cy="-145" rx="70.6645" ry="18"/>
<text text-anchor="middle" x="185" y="-140.8" font-family="Times,serif" font-size="14.00" fill="#000000">tiSendDigest_2</text>
</g>
<!-- 12&#45;&gt;13 -->
<g id="edge14" class="edge">
<title>12&#45;&gt;13</title>
<path fill="none" stroke="#000000" d="M171.2924,-253.6327C173.9419,-232.6352 178.3343,-197.8261 181.4317,-173.279"/>
<polygon fill="#000000" stroke="#000000" points="184.9323,-173.4932 182.7118,-163.1336 177.9874,-172.6168 184.9323,-173.4932"/>
<text text-anchor="middle" x="195.2742" y="-204.2" font-family="Times,serif" font-size="14.00" fill="#000000">TRUE</text>
</g>
<!-- 13&#45;&gt;1 -->
<g id="edge16" class="edge">
<title>13&#45;&gt;1</title>
<path fill="none" stroke="#000000" d="M164.5313,-127.6563C142.7137,-109.1697 107.9767,-79.736 83.2715,-58.8026"/>
<polygon fill="#000000" stroke="#000000" points="85.5241,-56.1238 75.632,-52.3294 80.9988,-61.4644 85.5241,-56.1238"/>
</g>
</g>
</svg>
