<?xml version="1.0" encoding="UTF-8" standalone="no"?>
<!DOCTYPE svg PUBLIC "-//W3C//DTD SVG 1.1//EN"
 "http://www.w3.org/Graphics/SVG/1.1/DTD/svg11.dtd">
<!-- Generated by graphviz version 2.40.1 (20161225.0304)
 -->
<!-- Title: ingress Pages: 1 -->
<svg width="653pt" height="1233pt"
 viewBox="0.00 0.00 653.00 1233.40" xmlns="http://www.w3.org/2000/svg" xmlns:xlink="http://www.w3.org/1999/xlink">
<g id="graph0" class="graph" transform="scale(1 1) rotate(0) translate(4 1229.4)">
<title>ingress</title>
<polygon fill="#ffffff" stroke="transparent" points="-4,4 -4,-1229.4 649,-1229.4 649,4 -4,4"/>
<g id="clust1" class="cluster">
<title>cluster</title>
<polygon fill="none" stroke="#000000" stroke-width="2" points="8,-8 8,-1217.4 637,-1217.4 637,-8 8,-8"/>
</g>
<!-- 0 -->
<g id="node1" class="node">
<title>0</title>
<polygon fill="none" stroke="#000000" points="132.3316,-1209.4 43.6684,-1209.4 43.6684,-1173.4 132.3316,-1173.4 132.3316,-1209.4"/>
<text text-anchor="middle" x="88" y="-1187.2" font-family="Times,serif" font-size="14.00" fill="#000000">__START__</text>
</g>
<!-- 2 -->
<g id="node3" class="node">
<title>2</title>
<polygon fill="none" stroke="#000000" points="148.2008,-1098.4 27.7992,-1098.4 27.7992,-1062.4 148.2008,-1062.4 148.2008,-1098.4"/>
<text text-anchor="middle" x="88" y="-1076.2" font-family="Times,serif" font-size="14.00" fill="#000000">hdr.ipv4.isValid();</text>
</g>
<!-- 0&#45;&gt;2 -->
<g id="edge1" class="edge">
<title>0&#45;&gt;2</title>
<path fill="none" stroke="#000000" d="M88,-1173.0706C88,-1155.6373 88,-1129.1482 88,-1108.9489"/>
<polygon fill="#000000" stroke="#000000" points="91.5001,-1108.7566 88,-1098.7566 84.5001,-1108.7567 91.5001,-1108.7566"/>
</g>
<!-- 1 -->
<g id="node2" class="node">
<title>1</title>
<polygon fill="none" stroke="#000000" points="95.8725,-52 20.1275,-52 20.1275,-16 95.8725,-16 95.8725,-52"/>
<text text-anchor="middle" x="58" y="-29.8" font-family="Times,serif" font-size="14.00" fill="#000000">__EXIT__</text>
</g>
<!-- 2&#45;&gt;1 -->
<g id="edge3" class="edge">
<title>2&#45;&gt;1</title>
<path fill="none" stroke="#000000" d="M60.6836,-1062.3161C47.2899,-1051.1089 34,-1035.3621 34,-1017 34,-1017 34,-1017 34,-584.1 34,-478.1414 17,-452.2586 17,-346.3 17,-346.3 17,-346.3 17,-89.5 17,-78.6062 22.1736,-68.4486 28.8451,-59.8789"/>
<polygon fill="#000000" stroke="#000000" points="31.6323,-62.0085 35.5806,-52.1768 26.363,-57.4004 31.6323,-62.0085"/>
<text text-anchor="middle" x="54.3885" y="-553" font-family="Times,serif" font-size="14.00" fill="#000000">FALSE</text>
</g>
<!-- 3 -->
<g id="node4" class="node">
<title>3</title>
<ellipse fill="none" stroke="#000000" cx="123" cy="-953.6" rx="48.1167" ry="18"/>
<text text-anchor="middle" x="123" y="-949.4" font-family="Times,serif" font-size="14.00" fill="#000000">ipv4_lpm</text>
</g>
<!-- 2&#45;&gt;3 -->
<g id="edge2" class="edge">
<title>2&#45;&gt;3</title>
<path fill="none" stroke="#000000" d="M93.0146,-1062.2327C98.8365,-1041.1411 108.5049,-1006.1136 115.2853,-981.5494"/>
<polygon fill="#000000" stroke="#000000" points="118.7077,-982.3045 117.9947,-971.7336 111.96,-980.4419 118.7077,-982.3045"/>
<text text-anchor="middle" x="125.2742" y="-1012.8" font-family="Times,serif" font-size="14.00" fill="#000000">TRUE</text>
</g>
<!-- 4 -->
<g id="node5" class="node">
<title>4</title>
<ellipse fill="none" stroke="#000000" cx="163" cy="-842.6" rx="92.6615" ry="18"/>
<text text-anchor="middle" x="163" y="-838.4" font-family="Times,serif" font-size="14.00" fill="#000000">ti_get_incoming_pos</text>
</g>
<!-- 3&#45;&gt;4 -->
<g id="edge4" class="edge">
<title>3&#45;&gt;4</title>
<path fill="none" stroke="#000000" d="M129.6052,-935.2706C135.9833,-917.5712 145.7252,-890.5376 153.0437,-870.2286"/>
<polygon fill="#000000" stroke="#000000" points="156.4202,-871.1827 156.5177,-860.5883 149.8347,-868.8095 156.4202,-871.1827"/>
</g>
<!-- 5 -->
<g id="node6" class="node">
<title>5</title>
<ellipse fill="none" stroke="#000000" cx="173" cy="-731.6" rx="78.1462" ry="18"/>
<text text-anchor="middle" x="173" y="-727.4" font-family="Times,serif" font-size="14.00" fill="#000000">ti_calculate_hash</text>
</g>
<!-- 4&#45;&gt;5 -->
<g id="edge5" class="edge">
<title>4&#45;&gt;5</title>
<path fill="none" stroke="#000000" d="M164.6513,-824.2706C166.2219,-806.8373 168.6083,-780.3482 170.428,-760.1489"/>
<polygon fill="#000000" stroke="#000000" points="173.9348,-760.2304 171.3463,-749.9566 166.963,-759.6022 173.9348,-760.2304"/>
</g>
<!-- 6 -->
<g id="node7" class="node">
<title>6</title>
<polygon fill="none" stroke="#000000" points="235.8903,-638.6 124.1097,-638.6 124.1097,-602.6 235.8903,-602.6 235.8903,-638.6"/>
<text text-anchor="middle" x="180" y="-616.4" font-family="Times,serif" font-size="14.00" fill="#000000">hdr.tcp.syn == 1;</text>
</g>
<!-- 5&#45;&gt;6 -->
<g id="edge6" class="edge">
<title>5&#45;&gt;6</title>
<path fill="none" stroke="#000000" d="M174.1559,-713.2706C175.2553,-695.8373 176.9258,-669.3482 178.1996,-649.1489"/>
<polygon fill="#000000" stroke="#000000" points="181.706,-649.1571 178.8424,-638.9566 174.7198,-648.7165 181.706,-649.1571"/>
</g>
<!-- 7 -->
<g id="node8" class="node">
<title>7</title>
<ellipse fill="none" stroke="#000000" cx="180" cy="-493.8" rx="107.084" ry="18"/>
<text text-anchor="middle" x="180" y="-489.6" font-family="Times,serif" font-size="14.00" fill="#000000">ti_write_flow_counter_1</text>
</g>
<!-- 6&#45;&gt;7 -->
<g id="edge7" class="edge">
<title>6&#45;&gt;7</title>
<path fill="none" stroke="#000000" d="M180,-602.4327C180,-581.4352 180,-546.6261 180,-522.079"/>
<polygon fill="#000000" stroke="#000000" points="183.5001,-521.9336 180,-511.9336 176.5001,-521.9337 183.5001,-521.9336"/>
<text text-anchor="middle" x="198.2742" y="-553" font-family="Times,serif" font-size="14.00" fill="#000000">TRUE</text>
</g>
<!-- 9 -->
<g id="node10" class="node">
<title>9</title>
<ellipse fill="none" stroke="#000000" cx="448" cy="-493.8" rx="107.084" ry="18"/>
<text text-anchor="middle" x="448" y="-489.6" font-family="Times,serif" font-size="14.00" fill="#000000">ti_write_flow_counter_2</text>
</g>
<!-- 6&#45;&gt;9 -->
<g id="edge8" class="edge">
<title>6&#45;&gt;9</title>
<path fill="none" stroke="#000000" d="M218.1133,-602.5673C266.6811,-579.5882 350.5404,-539.9115 402.4331,-515.3592"/>
<polygon fill="#000000" stroke="#000000" points="404.1925,-518.3989 411.7349,-510.9582 401.1987,-512.0713 404.1925,-518.3989"/>
<text text-anchor="middle" x="348.3885" y="-553" font-family="Times,serif" font-size="14.00" fill="#000000">FALSE</text>
</g>
<!-- 8 -->
<g id="node9" class="node">
<title>8</title>
<ellipse fill="none" stroke="#000000" cx="180" cy="-382.8" rx="143.5248" ry="18"/>
<text text-anchor="middle" x="180" y="-378.6" font-family="Times,serif" font-size="14.00" fill="#000000">ti_write_flow_counter_warning_1</text>
</g>
<!-- 7&#45;&gt;8 -->
<g id="edge9" class="edge">
<title>7&#45;&gt;8</title>
<path fill="none" stroke="#000000" d="M180,-475.4706C180,-458.0373 180,-431.5482 180,-411.3489"/>
<polygon fill="#000000" stroke="#000000" points="183.5001,-411.1566 180,-401.1566 176.5001,-411.1567 183.5001,-411.1566"/>
</g>
<!-- 11 -->
<g id="node12" class="node">
<title>11</title>
<polygon fill="none" stroke="#000000" points="299.7736,-289.8 60.2264,-289.8 60.2264,-253.8 299.7736,-253.8 299.7736,-289.8"/>
<text text-anchor="middle" x="180" y="-267.6" font-family="Times,serif" font-size="14.00" fill="#000000">meta.meta.reg_val_one_warning &gt; 100;</text>
</g>
<!-- 8&#45;&gt;11 -->
<g id="edge10" class="edge">
<title>8&#45;&gt;11</title>
<path fill="none" stroke="#000000" d="M180,-364.4706C180,-347.0373 180,-320.5482 180,-300.3489"/>
<polygon fill="#000000" stroke="#000000" points="183.5001,-300.1566 180,-290.1566 176.5001,-300.1567 183.5001,-300.1566"/>
</g>
<!-- 10 -->
<g id="node11" class="node">
<title>10</title>
<ellipse fill="none" stroke="#000000" cx="485" cy="-382.8" rx="143.5248" ry="18"/>
<text text-anchor="middle" x="485" y="-378.6" font-family="Times,serif" font-size="14.00" fill="#000000">ti_write_flow_counter_warning_2</text>
</g>
<!-- 9&#45;&gt;10 -->
<g id="edge11" class="edge">
<title>9&#45;&gt;10</title>
<path fill="none" stroke="#000000" d="M454.1098,-475.4706C460.0096,-457.7712 469.0208,-430.7376 475.7905,-410.4286"/>
<polygon fill="#000000" stroke="#000000" points="479.1619,-411.382 479.0039,-400.7883 472.5212,-409.1683 479.1619,-411.382"/>
</g>
<!-- 10&#45;&gt;11 -->
<g id="edge12" class="edge">
<title>10&#45;&gt;11</title>
<path fill="none" stroke="#000000" d="M438.0122,-365.6995C384.511,-346.2286 297.0262,-314.3899 238.9826,-293.2658"/>
<polygon fill="#000000" stroke="#000000" points="240.1674,-289.9725 229.5734,-289.8415 237.7734,-296.5504 240.1674,-289.9725"/>
</g>
<!-- 11&#45;&gt;1 -->
<g id="edge14" class="edge">
<title>11&#45;&gt;1</title>
<path fill="none" stroke="#000000" d="M92.9603,-253.6533C73.2467,-244.2543 58,-230.0022 58,-208.4 58,-208.4 58,-208.4 58,-89.5 58,-80.7318 58,-71.1843 58,-62.5196"/>
<polygon fill="#000000" stroke="#000000" points="61.5001,-62.5 58,-52.5 54.5001,-62.5 61.5001,-62.5"/>
<text text-anchor="middle" x="79.3885" y="-140.8" font-family="Times,serif" font-size="14.00" fill="#000000">FALSE</text>
</g>
<!-- 12 -->
<g id="node13" class="node">
<title>12</title>
<ellipse fill="none" stroke="#000000" cx="180" cy="-145" rx="60.8506" ry="18"/>
<text text-anchor="middle" x="180" y="-140.8" font-family="Times,serif" font-size="14.00" fill="#000000">tiSendDigest</text>
</g>
<!-- 11&#45;&gt;12 -->
<g id="edge13" class="edge">
<title>11&#45;&gt;12</title>
<path fill="none" stroke="#000000" d="M180,-253.6327C180,-232.6352 180,-197.8261 180,-173.279"/>
<polygon fill="#000000" stroke="#000000" points="183.5001,-173.1336 180,-163.1336 176.5001,-173.1337 183.5001,-173.1336"/>
<text text-anchor="middle" x="198.2742" y="-204.2" font-family="Times,serif" font-size="14.00" fill="#000000">TRUE</text>
</g>
<!-- 12&#45;&gt;1 -->
<g id="edge15" class="edge">
<title>12&#45;&gt;1</title>
<path fill="none" stroke="#000000" d="M160.9375,-127.6563C140.7069,-109.2497 108.5483,-79.9906 85.5599,-59.0749"/>
<polygon fill="#000000" stroke="#000000" points="87.8979,-56.4703 78.1458,-52.3294 83.1871,-61.648 87.8979,-56.4703"/>
</g>
</g>
</svg>
