<?xml version="1.0" encoding="UTF-8" standalone="no"?>
<!DOCTYPE svg PUBLIC "-//W3C//DTD SVG 1.1//EN"
 "http://www.w3.org/Graphics/SVG/1.1/DTD/svg11.dtd">
<!-- Generated by graphviz version 2.40.1 (20161225.0304)
 -->
<!-- Title: ingress Pages: 1 -->
<svg width="623pt" height="1386pt"
 viewBox="0.00 0.00 622.55 1385.80" xmlns="http://www.w3.org/2000/svg" xmlns:xlink="http://www.w3.org/1999/xlink">
<g id="graph0" class="graph" transform="scale(1 1) rotate(0) translate(4 1381.8)">
<title>ingress</title>
<polygon fill="#ffffff" stroke="transparent" points="-4,4 -4,-1381.8 618.5484,-1381.8 618.5484,4 -4,4"/>
<g id="clust1" class="cluster">
<title>cluster</title>
<polygon fill="none" stroke="#000000" stroke-width="2" points="8,-8 8,-1369.8 599,-1369.8 599,-8 8,-8"/>
</g>
<!-- 0 -->
<g id="node1" class="node">
<title>0</title>
<polygon fill="none" stroke="#000000" points="265.3316,-1361.8 176.6684,-1361.8 176.6684,-1325.8 265.3316,-1325.8 265.3316,-1361.8"/>
<text text-anchor="middle" x="221" y="-1339.6" font-family="Times,serif" font-size="14.00" fill="#000000">__START__</text>
</g>
<!-- 2 -->
<g id="node3" class="node">
<title>2</title>
<polygon fill="none" stroke="#000000" points="291.3962,-1250.8 150.6038,-1250.8 150.6038,-1214.8 291.3962,-1214.8 291.3962,-1250.8"/>
<text text-anchor="middle" x="221" y="-1228.6" font-family="Times,serif" font-size="14.00" fill="#000000">hdr.ethernet.isValid();</text>
</g>
<!-- 0&#45;&gt;2 -->
<g id="edge1" class="edge">
<title>0&#45;&gt;2</title>
<path fill="none" stroke="#000000" d="M221,-1325.4706C221,-1308.0373 221,-1281.5482 221,-1261.3489"/>
<polygon fill="#000000" stroke="#000000" points="224.5001,-1261.1566 221,-1251.1566 217.5001,-1261.1567 224.5001,-1261.1566"/>
</g>
<!-- 1 -->
<g id="node2" class="node">
<title>1</title>
<polygon fill="none" stroke="#000000" points="308.8725,-52 233.1275,-52 233.1275,-16 308.8725,-16 308.8725,-52"/>
<text text-anchor="middle" x="271" y="-29.8" font-family="Times,serif" font-size="14.00" fill="#000000">__EXIT__</text>
</g>
<!-- 3 -->
<g id="node4" class="node">
<title>3</title>
<ellipse fill="none" stroke="#000000" cx="142" cy="-1106" rx="114.0247" ry="18"/>
<text text-anchor="middle" x="142" y="-1101.8" font-family="Times,serif" font-size="14.00" fill="#000000">tiHandleIncomingEthernet</text>
</g>
<!-- 2&#45;&gt;3 -->
<g id="edge2" class="edge">
<title>2&#45;&gt;3</title>
<path fill="none" stroke="#000000" d="M209.6812,-1214.6327C196.3059,-1193.1644 173.9353,-1157.2582 158.5997,-1132.6436"/>
<polygon fill="#000000" stroke="#000000" points="161.5564,-1130.7704 153.2978,-1124.1336 155.6151,-1134.472 161.5564,-1130.7704"/>
<text text-anchor="middle" x="203.2742" y="-1165.2" font-family="Times,serif" font-size="14.00" fill="#000000">TRUE</text>
</g>
<!-- 4 -->
<g id="node5" class="node">
<title>4</title>
<ellipse fill="none" stroke="#000000" cx="386" cy="-1106" rx="111.7835" ry="18"/>
<text text-anchor="middle" x="386" y="-1101.8" font-family="Times,serif" font-size="14.00" fill="#000000">tiHandleOutgoingRouting</text>
</g>
<!-- 2&#45;&gt;4 -->
<g id="edge3" class="edge">
<title>2&#45;&gt;4</title>
<path fill="none" stroke="#000000" d="M244.6405,-1214.6327C273.5975,-1192.3796 322.741,-1154.6135 354.782,-1129.9906"/>
<polygon fill="#000000" stroke="#000000" points="357.1389,-1132.5935 362.9354,-1123.7248 352.8735,-1127.0431 357.1389,-1132.5935"/>
<text text-anchor="middle" x="332.3885" y="-1165.2" font-family="Times,serif" font-size="14.00" fill="#000000">FALSE</text>
</g>
<!-- 5 -->
<g id="node6" class="node">
<title>5</title>
<polygon fill="none" stroke="#000000" points="484.4506,-1013 271.5494,-1013 271.5494,-977 484.4506,-977 484.4506,-1013"/>
<text text-anchor="middle" x="378" y="-990.8" font-family="Times,serif" font-size="14.00" fill="#000000">meta.cis553_metadata.forMe == 0;</text>
</g>
<!-- 3&#45;&gt;5 -->
<g id="edge4" class="edge">
<title>3&#45;&gt;5</title>
<path fill="none" stroke="#000000" d="M178.3578,-1088.8995C219.158,-1069.7096 285.5,-1038.5064 330.4023,-1017.3871"/>
<polygon fill="#000000" stroke="#000000" points="332.0822,-1020.4648 339.6416,-1013.0415 329.1028,-1014.1305 332.0822,-1020.4648"/>
</g>
<!-- 4&#45;&gt;5 -->
<g id="edge5" class="edge">
<title>4&#45;&gt;5</title>
<path fill="none" stroke="#000000" d="M384.679,-1087.6706C383.4225,-1070.2373 381.5134,-1043.7482 380.0576,-1023.5489"/>
<polygon fill="#000000" stroke="#000000" points="383.5329,-1023.0791 379.323,-1013.3566 376.551,-1023.5824 383.5329,-1023.0791"/>
</g>
<!-- 6 -->
<g id="node7" class="node">
<title>6</title>
<polygon fill="none" stroke="#000000" points="432.2008,-886.2 311.7992,-886.2 311.7992,-850.2 432.2008,-850.2 432.2008,-886.2"/>
<text text-anchor="middle" x="372" y="-864" font-family="Times,serif" font-size="14.00" fill="#000000">hdr.ipv4.isValid();</text>
</g>
<!-- 5&#45;&gt;6 -->
<g id="edge6" class="edge">
<title>5&#45;&gt;6</title>
<path fill="none" stroke="#000000" d="M377.1403,-976.8327C376.1468,-955.8352 374.4997,-921.0261 373.3381,-896.479"/>
<polygon fill="#000000" stroke="#000000" points="376.8269,-896.157 372.8581,-886.3336 369.8347,-896.4879 376.8269,-896.157"/>
<text text-anchor="middle" x="396.3885" y="-927.4" font-family="Times,serif" font-size="14.00" fill="#000000">FALSE</text>
</g>
<!-- 17 -->
<g id="node18" class="node">
<title>17</title>
<ellipse fill="none" stroke="#000000" cx="271" cy="-145" rx="37.1367" ry="18"/>
<text text-anchor="middle" x="271" y="-140.8" font-family="Times,serif" font-size="14.00" fill="#000000">tbl_act</text>
</g>
<!-- 5&#45;&gt;17 -->
<g id="edge7" class="edge">
<title>5&#45;&gt;17</title>
<path fill="none" stroke="#000000" d="M473.7255,-976.9631C515.0052,-966.3613 554,-951.1678 554,-931.6 554,-931.6 554,-931.6 554,-651.1 554,-616.0558 576.6015,-612.623 585,-578.6 591.6677,-551.5886 590,-544.0222 590,-516.2 590,-516.2 590,-516.2 590,-200.5 590,-173.2608 407.1338,-155.4536 318.309,-148.4107"/>
<polygon fill="#000000" stroke="#000000" points="318.4593,-144.9119 308.2177,-147.6249 317.9157,-151.8908 318.4593,-144.9119"/>
<text text-anchor="middle" x="596.2742" y="-610.4" font-family="Times,serif" font-size="14.00" fill="#000000">TRUE</text>
</g>
<!-- 7 -->
<g id="node8" class="node">
<title>7</title>
<ellipse fill="none" stroke="#000000" cx="144" cy="-741.4" rx="61.9789" ry="18"/>
<text text-anchor="middle" x="144" y="-737.2" font-family="Times,serif" font-size="14.00" fill="#000000">tiHandleIpv4</text>
</g>
<!-- 6&#45;&gt;7 -->
<g id="edge8" class="edge">
<title>6&#45;&gt;7</title>
<path fill="none" stroke="#000000" d="M339.3332,-850.0327C297.7191,-826.8894 225.9345,-786.9671 181.9408,-762.5004"/>
<polygon fill="#000000" stroke="#000000" points="183.4362,-759.3273 172.9957,-757.5257 180.034,-765.4448 183.4362,-759.3273"/>
<text text-anchor="middle" x="287.2742" y="-800.6" font-family="Times,serif" font-size="14.00" fill="#000000">TRUE</text>
</g>
<!-- 9 -->
<g id="node10" class="node">
<title>9</title>
<polygon fill="none" stroke="#000000" points="492.1667,-759.4 251.8333,-759.4 251.8333,-723.4 492.1667,-723.4 492.1667,-759.4"/>
<text text-anchor="middle" x="372" y="-737.2" font-family="Times,serif" font-size="14.00" fill="#000000">hdr.arp.isValid() &amp;&amp; hdr.arp.oper == 1;</text>
</g>
<!-- 6&#45;&gt;9 -->
<g id="edge9" class="edge">
<title>6&#45;&gt;9</title>
<path fill="none" stroke="#000000" d="M372,-850.0327C372,-829.0352 372,-794.2261 372,-769.679"/>
<polygon fill="#000000" stroke="#000000" points="375.5001,-769.5336 372,-759.5336 368.5001,-769.5337 375.5001,-769.5336"/>
<text text-anchor="middle" x="393.3885" y="-800.6" font-family="Times,serif" font-size="14.00" fill="#000000">FALSE</text>
</g>
<!-- 8 -->
<g id="node9" class="node">
<title>8</title>
<ellipse fill="none" stroke="#000000" cx="129" cy="-560.6" rx="113.4644" ry="18"/>
<text text-anchor="middle" x="129" y="-556.4" font-family="Times,serif" font-size="14.00" fill="#000000">tiHandleOutgoingEthernet</text>
</g>
<!-- 7&#45;&gt;8 -->
<g id="edge10" class="edge">
<title>7&#45;&gt;8</title>
<path fill="none" stroke="#000000" d="M142.5069,-723.4032C139.8968,-691.9424 134.4854,-626.7178 131.3624,-589.0746"/>
<polygon fill="#000000" stroke="#000000" points="134.8242,-588.4687 130.5093,-578.7923 127.8482,-589.0475 134.8242,-588.4687"/>
</g>
<!-- 8&#45;&gt;17 -->
<g id="edge11" class="edge">
<title>8&#45;&gt;17</title>
<path fill="none" stroke="#000000" d="M93.7079,-543.223C71.88,-529.738 48,-508.738 48,-481.4 48,-481.4 48,-481.4 48,-200.5 48,-164.6179 158.0971,-151.7596 223.5731,-147.2854"/>
<polygon fill="#000000" stroke="#000000" points="223.9196,-150.7705 233.6748,-146.6371 223.4711,-143.7849 223.9196,-150.7705"/>
</g>
<!-- 10 -->
<g id="node11" class="node">
<title>10</title>
<ellipse fill="none" stroke="#000000" cx="409" cy="-560.6" rx="161.4217" ry="18"/>
<text text-anchor="middle" x="409" y="-556.4" font-family="Times,serif" font-size="14.00" fill="#000000">tiHandleIncomingArpReqest_part_one</text>
</g>
<!-- 9&#45;&gt;10 -->
<g id="edge12" class="edge">
<title>9&#45;&gt;10</title>
<path fill="none" stroke="#000000" d="M342.5321,-723.2201C301.1692,-695.4387 234.5951,-640.9712 269,-596.6 274.7416,-589.1953 289.045,-583.0473 306.4271,-578.053"/>
<polygon fill="#000000" stroke="#000000" points="307.6087,-581.3601 316.3657,-575.3964 305.801,-574.5976 307.6087,-581.3601"/>
<text text-anchor="middle" x="313.2742" y="-673.8" font-family="Times,serif" font-size="14.00" fill="#000000">TRUE</text>
</g>
<!-- 12 -->
<g id="node13" class="node">
<title>12</title>
<polygon fill="none" stroke="#000000" points="518.1667,-632.6 277.8333,-632.6 277.8333,-596.6 518.1667,-596.6 518.1667,-632.6"/>
<text text-anchor="middle" x="398" y="-610.4" font-family="Times,serif" font-size="14.00" fill="#000000">hdr.arp.isValid() &amp;&amp; hdr.arp.oper == 2;</text>
</g>
<!-- 9&#45;&gt;12 -->
<g id="edge13" class="edge">
<title>9&#45;&gt;12</title>
<path fill="none" stroke="#000000" d="M375.7252,-723.2327C380.0499,-702.1411 387.2322,-667.1136 392.269,-642.5494"/>
<polygon fill="#000000" stroke="#000000" points="395.7016,-643.2329 394.2817,-632.7336 388.8443,-641.8268 395.7016,-643.2329"/>
<text text-anchor="middle" x="407.3885" y="-673.8" font-family="Times,serif" font-size="14.00" fill="#000000">FALSE</text>
</g>
<!-- 11 -->
<g id="node12" class="node">
<title>11</title>
<ellipse fill="none" stroke="#000000" cx="216" cy="-383" rx="161.5014" ry="18"/>
<text text-anchor="middle" x="216" y="-378.8" font-family="Times,serif" font-size="14.00" fill="#000000">tiHandleIncomingArpReqest_part_two</text>
</g>
<!-- 10&#45;&gt;11 -->
<g id="edge14" class="edge">
<title>10&#45;&gt;11</title>
<path fill="none" stroke="#000000" d="M389.432,-542.5934C354.7527,-510.6812 282.4575,-444.1547 243.0433,-407.8855"/>
<polygon fill="#000000" stroke="#000000" points="245.3483,-405.2502 235.6198,-401.0543 240.6083,-410.4012 245.3483,-405.2502"/>
</g>
<!-- 11&#45;&gt;17 -->
<g id="edge15" class="edge">
<title>11&#45;&gt;17</title>
<path fill="none" stroke="#000000" d="M166.1438,-365.7775C157.6924,-360.8788 149.7921,-354.7098 144,-347 129.2081,-327.3107 134,-317.1266 134,-292.5 134,-292.5 134,-292.5 134,-200.5 134,-180.1546 186.5583,-163.7206 226.5673,-154.1579"/>
<polygon fill="#000000" stroke="#000000" points="227.4753,-157.5404 236.4291,-151.8766 225.8975,-150.7205 227.4753,-157.5404"/>
</g>
<!-- 13 -->
<g id="node14" class="node">
<title>13</title>
<ellipse fill="none" stroke="#000000" cx="286" cy="-329" rx="133.1508" ry="18"/>
<text text-anchor="middle" x="286" y="-324.8" font-family="Times,serif" font-size="14.00" fill="#000000">tiHandleIncomingArpResponse</text>
</g>
<!-- 12&#45;&gt;13 -->
<g id="edge16" class="edge">
<title>12&#45;&gt;13</title>
<path fill="none" stroke="#000000" d="M511.2866,-596.5924C541.1296,-590.7349 566.3784,-584.2823 571,-578.6 581.0957,-566.1872 580.1135,-555.7508 571,-542.6 558.0223,-523.8732 543.7404,-534.0311 523,-524.6 463.6973,-497.6339 431.8831,-507.9986 394,-455 370.4187,-422.0096 404.6028,-396.4475 379,-365 374.0042,-358.8638 367.8281,-353.7711 361.0523,-349.545"/>
<polygon fill="#000000" stroke="#000000" points="362.6369,-346.4218 352.1927,-344.642 359.2475,-352.5465 362.6369,-346.4218"/>
<text text-anchor="middle" x="447.2742" y="-477.2" font-family="Times,serif" font-size="14.00" fill="#000000">TRUE</text>
</g>
<!-- 14 -->
<g id="node15" class="node">
<title>14</title>
<polygon fill="none" stroke="#000000" points="570.6093,-455 403.3907,-455 403.3907,-419 570.6093,-419 570.6093,-455"/>
<text text-anchor="middle" x="487" y="-432.8" font-family="Times,serif" font-size="14.00" fill="#000000">hdr.distance_vec.isValid();</text>
</g>
<!-- 12&#45;&gt;14 -->
<g id="edge17" class="edge">
<title>12&#45;&gt;14</title>
<path fill="none" stroke="#000000" d="M517.3119,-596.5547C547.7219,-590.7839 573.2519,-584.3917 578,-578.6 588.1438,-566.2265 586.3947,-556.2209 578,-542.6 568.6609,-527.4468 555.4009,-536.5658 542.223,-524.6 523.5498,-507.6443 508.758,-482.9633 499.2016,-464.1169"/>
<polygon fill="#000000" stroke="#000000" points="502.346,-462.5796 494.8128,-455.1297 496.0559,-465.6513 502.346,-462.5796"/>
<text text-anchor="middle" x="563.3885" y="-512" font-family="Times,serif" font-size="14.00" fill="#000000">FALSE</text>
</g>
<!-- 13&#45;&gt;17 -->
<g id="edge18" class="edge">
<title>13&#45;&gt;17</title>
<path fill="none" stroke="#000000" d="M266.9484,-311.0593C257.8081,-301.1271 247.8165,-287.9806 243,-274 231.1518,-239.6087 244.7592,-198.2741 256.8113,-171.8264"/>
<polygon fill="#000000" stroke="#000000" points="260.1323,-172.9951 261.2979,-162.4646 253.8198,-169.9698 260.1323,-172.9951"/>
</g>
<!-- 15 -->
<g id="node16" class="node">
<title>15</title>
<ellipse fill="none" stroke="#000000" cx="364" cy="-256" rx="112.3438" ry="18"/>
<text text-anchor="middle" x="364" y="-251.8" font-family="Times,serif" font-size="14.00" fill="#000000">tiHandleIncomingRouting</text>
</g>
<!-- 14&#45;&gt;15 -->
<g id="edge19" class="edge">
<title>14&#45;&gt;15</title>
<path fill="none" stroke="#000000" d="M481.147,-418.5733C472.3676,-392.7827 453.9996,-345.2429 428,-311 419.3871,-299.6564 408.0859,-288.9965 397.3804,-280.1369"/>
<polygon fill="#000000" stroke="#000000" points="399.3615,-277.2398 389.3643,-273.7314 394.9916,-282.7083 399.3615,-277.2398"/>
<text text-anchor="middle" x="468.2742" y="-324.8" font-family="Times,serif" font-size="14.00" fill="#000000">TRUE</text>
</g>
<!-- 16 -->
<g id="node17" class="node">
<title>16</title>
<ellipse fill="none" stroke="#000000" cx="531" cy="-256" rx="36.4955" ry="18"/>
<text text-anchor="middle" x="531" y="-251.8" font-family="Times,serif" font-size="14.00" fill="#000000">tiDrop</text>
</g>
<!-- 14&#45;&gt;16 -->
<g id="edge20" class="edge">
<title>14&#45;&gt;16</title>
<path fill="none" stroke="#000000" d="M491.3797,-418.9833C499.0889,-387.2708 515.1284,-321.2899 524.2587,-283.7315"/>
<polygon fill="#000000" stroke="#000000" points="527.6767,-284.4876 526.638,-273.9438 520.8748,-282.8341 527.6767,-284.4876"/>
<text text-anchor="middle" x="538.3885" y="-324.8" font-family="Times,serif" font-size="14.00" fill="#000000">FALSE</text>
</g>
<!-- 15&#45;&gt;17 -->
<g id="edge21" class="edge">
<title>15&#45;&gt;17</title>
<path fill="none" stroke="#000000" d="M348.6429,-237.6706C333.0665,-219.0793 308.8614,-190.1894 291.6206,-169.6117"/>
<polygon fill="#000000" stroke="#000000" points="294.2645,-167.3175 285.1595,-161.9 288.8989,-171.813 294.2645,-167.3175"/>
</g>
<!-- 16&#45;&gt;17 -->
<g id="edge22" class="edge">
<title>16&#45;&gt;17</title>
<path fill="none" stroke="#000000" d="M503.1754,-244.1211C456.1883,-224.0612 361.0926,-183.4626 308.3514,-160.9462"/>
<polygon fill="#000000" stroke="#000000" points="309.5887,-157.6688 299.0175,-156.9613 306.8402,-164.1067 309.5887,-157.6688"/>
</g>
<!-- 17&#45;&gt;1 -->
<g id="edge23" class="edge">
<title>17&#45;&gt;1</title>
<path fill="none" stroke="#000000" d="M271,-126.6706C271,-109.2373 271,-82.7482 271,-62.5489"/>
<polygon fill="#000000" stroke="#000000" points="274.5001,-62.3566 271,-52.3566 267.5001,-62.3567 274.5001,-62.3566"/>
</g>
</g>
</svg>
