<?xml version="1.0" encoding="UTF-8" standalone="no"?>
<!DOCTYPE svg PUBLIC "-//W3C//DTD SVG 1.1//EN"
 "http://www.w3.org/Graphics/SVG/1.1/DTD/svg11.dtd">
<!-- Generated by graphviz version 2.40.1 (20161225.0304)
 -->
<!-- Title: ingress Pages: 1 -->
<svg width="769pt" height="1351pt"
 viewBox="0.00 0.00 769.36 1350.80" xmlns="http://www.w3.org/2000/svg" xmlns:xlink="http://www.w3.org/1999/xlink">
<g id="graph0" class="graph" transform="scale(1 1) rotate(0) translate(4 1346.8)">
<title>ingress</title>
<polygon fill="#ffffff" stroke="transparent" points="-4,4 -4,-1346.8 765.3582,-1346.8 765.3582,4 -4,4"/>
<g id="clust1" class="cluster">
<title>cluster</title>
<polygon fill="none" stroke="#000000" stroke-width="2" points="8,-8 8,-1334.8 741,-1334.8 741,-8 8,-8"/>
</g>
<!-- 0 -->
<g id="node1" class="node">
<title>0</title>
<polygon fill="none" stroke="#000000" points="492.3316,-1326.8 403.6684,-1326.8 403.6684,-1290.8 492.3316,-1290.8 492.3316,-1326.8"/>
<text text-anchor="middle" x="448" y="-1304.6" font-family="Times,serif" font-size="14.00" fill="#000000">__START__</text>
</g>
<!-- 2 -->
<g id="node3" class="node">
<title>2</title>
<polygon fill="none" stroke="#000000" points="518.3962,-1215.8 377.6038,-1215.8 377.6038,-1179.8 518.3962,-1179.8 518.3962,-1215.8"/>
<text text-anchor="middle" x="448" y="-1193.6" font-family="Times,serif" font-size="14.00" fill="#000000">hdr.ethernet.isValid();</text>
</g>
<!-- 0&#45;&gt;2 -->
<g id="edge1" class="edge">
<title>0&#45;&gt;2</title>
<path fill="none" stroke="#000000" d="M448,-1290.4706C448,-1273.0373 448,-1246.5482 448,-1226.3489"/>
<polygon fill="#000000" stroke="#000000" points="451.5001,-1226.1566 448,-1216.1566 444.5001,-1226.1567 451.5001,-1226.1566"/>
</g>
<!-- 1 -->
<g id="node2" class="node">
<title>1</title>
<polygon fill="none" stroke="#000000" points="454.8725,-52 379.1275,-52 379.1275,-16 454.8725,-16 454.8725,-52"/>
<text text-anchor="middle" x="417" y="-29.8" font-family="Times,serif" font-size="14.00" fill="#000000">__EXIT__</text>
</g>
<!-- 3 -->
<g id="node4" class="node">
<title>3</title>
<ellipse fill="none" stroke="#000000" cx="369" cy="-1071" rx="114.0247" ry="18"/>
<text text-anchor="middle" x="369" y="-1066.8" font-family="Times,serif" font-size="14.00" fill="#000000">tiHandleIncomingEthernet</text>
</g>
<!-- 2&#45;&gt;3 -->
<g id="edge2" class="edge">
<title>2&#45;&gt;3</title>
<path fill="none" stroke="#000000" d="M436.6812,-1179.6327C423.3059,-1158.1644 400.9353,-1122.2582 385.5997,-1097.6436"/>
<polygon fill="#000000" stroke="#000000" points="388.5564,-1095.7704 380.2978,-1089.1336 382.6151,-1099.472 388.5564,-1095.7704"/>
<text text-anchor="middle" x="430.2742" y="-1130.2" font-family="Times,serif" font-size="14.00" fill="#000000">TRUE</text>
</g>
<!-- 4 -->
<g id="node5" class="node">
<title>4</title>
<ellipse fill="none" stroke="#000000" cx="613" cy="-1071" rx="111.7835" ry="18"/>
<text text-anchor="middle" x="613" y="-1066.8" font-family="Times,serif" font-size="14.00" fill="#000000">tiHandleOutgoingRouting</text>
</g>
<!-- 2&#45;&gt;4 -->
<g id="edge3" class="edge">
<title>2&#45;&gt;4</title>
<path fill="none" stroke="#000000" d="M471.6405,-1179.6327C500.5975,-1157.3796 549.741,-1119.6135 581.782,-1094.9906"/>
<polygon fill="#000000" stroke="#000000" points="584.1389,-1097.5935 589.9354,-1088.7248 579.8735,-1092.0431 584.1389,-1097.5935"/>
<text text-anchor="middle" x="559.3885" y="-1130.2" font-family="Times,serif" font-size="14.00" fill="#000000">FALSE</text>
</g>
<!-- 5 -->
<g id="node6" class="node">
<title>5</title>
<polygon fill="none" stroke="#000000" points="599.4506,-978 386.5494,-978 386.5494,-942 599.4506,-942 599.4506,-978"/>
<text text-anchor="middle" x="493" y="-955.8" font-family="Times,serif" font-size="14.00" fill="#000000">meta.cis553_metadata.forMe == 0;</text>
</g>
<!-- 3&#45;&gt;5 -->
<g id="edge4" class="edge">
<title>3&#45;&gt;5</title>
<path fill="none" stroke="#000000" d="M388.9227,-1053.1659C409.5893,-1034.666 442.066,-1005.5941 465.2421,-984.8478"/>
<polygon fill="#000000" stroke="#000000" points="467.5983,-987.4361 472.7148,-978.1586 462.9295,-982.2205 467.5983,-987.4361"/>
</g>
<!-- 4&#45;&gt;5 -->
<g id="edge5" class="edge">
<title>4&#45;&gt;5</title>
<path fill="none" stroke="#000000" d="M593.7199,-1053.1659C573.8069,-1034.7464 542.564,-1005.8467 520.1555,-985.1189"/>
<polygon fill="#000000" stroke="#000000" points="522.3486,-982.3797 512.6309,-978.1586 517.5952,-987.5184 522.3486,-982.3797"/>
</g>
<!-- 6 -->
<g id="node7" class="node">
<title>6</title>
<polygon fill="none" stroke="#000000" points="506.2008,-851.2 385.7992,-851.2 385.7992,-815.2 506.2008,-815.2 506.2008,-851.2"/>
<text text-anchor="middle" x="446" y="-829" font-family="Times,serif" font-size="14.00" fill="#000000">hdr.ipv4.isValid();</text>
</g>
<!-- 5&#45;&gt;6 -->
<g id="edge6" class="edge">
<title>5&#45;&gt;6</title>
<path fill="none" stroke="#000000" d="M486.266,-941.8327C478.4133,-920.6469 465.3488,-885.4006 456.2381,-860.8211"/>
<polygon fill="#000000" stroke="#000000" points="459.4789,-859.4938 452.7215,-851.3336 452.9153,-861.9267 459.4789,-859.4938"/>
<text text-anchor="middle" x="492.3885" y="-892.4" font-family="Times,serif" font-size="14.00" fill="#000000">FALSE</text>
</g>
<!-- 17 -->
<g id="node18" class="node">
<title>17</title>
<ellipse fill="none" stroke="#000000" cx="417" cy="-145" rx="37.1367" ry="18"/>
<text text-anchor="middle" x="417" y="-140.8" font-family="Times,serif" font-size="14.00" fill="#000000">tbl_act</text>
</g>
<!-- 5&#45;&gt;17 -->
<g id="edge7" class="edge">
<title>5&#45;&gt;17</title>
<path fill="none" stroke="#000000" d="M599.5533,-945.0125C648.5642,-935.0189 696,-919.4454 696,-896.6 696,-896.6 696,-896.6 696,-616.1 696,-447.6587 822.243,-373.3654 722,-238 690.9042,-196.0091 539.8221,-165.3768 462.618,-152.1844"/>
<polygon fill="#000000" stroke="#000000" points="463.1255,-148.7207 452.6835,-150.5135 461.9644,-155.6237 463.1255,-148.7207"/>
<text text-anchor="middle" x="718.2742" y="-575.4" font-family="Times,serif" font-size="14.00" fill="#000000">TRUE</text>
</g>
<!-- 7 -->
<g id="node8" class="node">
<title>7</title>
<ellipse fill="none" stroke="#000000" cx="282" cy="-706.4" rx="61.9789" ry="18"/>
<text text-anchor="middle" x="282" y="-702.2" font-family="Times,serif" font-size="14.00" fill="#000000">tiHandleIpv4</text>
</g>
<!-- 6&#45;&gt;7 -->
<g id="edge8" class="edge">
<title>6&#45;&gt;7</title>
<path fill="none" stroke="#000000" d="M422.5028,-815.0327C393.396,-792.5282 343.7691,-754.1581 311.9558,-729.561"/>
<polygon fill="#000000" stroke="#000000" points="313.9333,-726.6658 303.8813,-723.318 309.6516,-732.2036 313.9333,-726.6658"/>
<text text-anchor="middle" x="390.2742" y="-765.6" font-family="Times,serif" font-size="14.00" fill="#000000">TRUE</text>
</g>
<!-- 9 -->
<g id="node10" class="node">
<title>9</title>
<polygon fill="none" stroke="#000000" points="502.6854,-724.4 389.3146,-724.4 389.3146,-688.4 502.6854,-688.4 502.6854,-724.4"/>
<text text-anchor="middle" x="446" y="-702.2" font-family="Times,serif" font-size="14.00" fill="#000000">hdr.arp.isValid();</text>
</g>
<!-- 6&#45;&gt;9 -->
<g id="edge9" class="edge">
<title>6&#45;&gt;9</title>
<path fill="none" stroke="#000000" d="M446,-815.0327C446,-794.0352 446,-759.2261 446,-734.679"/>
<polygon fill="#000000" stroke="#000000" points="449.5001,-734.5336 446,-724.5336 442.5001,-734.5337 449.5001,-734.5336"/>
<text text-anchor="middle" x="467.3885" y="-765.6" font-family="Times,serif" font-size="14.00" fill="#000000">FALSE</text>
</g>
<!-- 8 -->
<g id="node9" class="node">
<title>8</title>
<ellipse fill="none" stroke="#000000" cx="144" cy="-525.6" rx="113.4644" ry="18"/>
<text text-anchor="middle" x="144" y="-521.4" font-family="Times,serif" font-size="14.00" fill="#000000">tiHandleOutgoingEthernet</text>
</g>
<!-- 7&#45;&gt;8 -->
<g id="edge10" class="edge">
<title>7&#45;&gt;8</title>
<path fill="none" stroke="#000000" d="M268.5167,-688.7349C244.1552,-656.8178 192.6893,-589.39 164.1409,-551.9875"/>
<polygon fill="#000000" stroke="#000000" points="166.592,-549.4301 157.7424,-543.6046 161.0276,-553.6773 166.592,-549.4301"/>
</g>
<!-- 8&#45;&gt;17 -->
<g id="edge11" class="edge">
<title>8&#45;&gt;17</title>
<path fill="none" stroke="#000000" d="M72.3346,-511.5315C43.5275,-501.3197 17,-483.8843 17,-454.3 17,-454.3 17,-454.3 17,-200.5 17,-165.2602 263.7229,-151.1402 369.6308,-146.7024"/>
<polygon fill="#000000" stroke="#000000" points="369.879,-150.1953 379.7282,-146.2909 369.5939,-143.2011 369.879,-150.1953"/>
</g>
<!-- 10 -->
<g id="node11" class="node">
<title>10</title>
<polygon fill="none" stroke="#000000" points="437.0908,-597.6 318.9092,-597.6 318.9092,-561.6 437.0908,-561.6 437.0908,-597.6"/>
<text text-anchor="middle" x="378" y="-575.4" font-family="Times,serif" font-size="14.00" fill="#000000">hdr.arp.oper == 1;</text>
</g>
<!-- 9&#45;&gt;10 -->
<g id="edge12" class="edge">
<title>9&#45;&gt;10</title>
<path fill="none" stroke="#000000" d="M436.2573,-688.2327C424.7948,-666.8586 405.6574,-631.1729 392.4624,-606.5681"/>
<polygon fill="#000000" stroke="#000000" points="395.5353,-604.8922 387.7247,-597.7336 389.3663,-608.2005 395.5353,-604.8922"/>
<text text-anchor="middle" x="433.2742" y="-638.8" font-family="Times,serif" font-size="14.00" fill="#000000">TRUE</text>
</g>
<!-- 14 -->
<g id="node15" class="node">
<title>14</title>
<polygon fill="none" stroke="#000000" points="600.6093,-435.8 433.3907,-435.8 433.3907,-399.8 600.6093,-399.8 600.6093,-435.8"/>
<text text-anchor="middle" x="517" y="-413.6" font-family="Times,serif" font-size="14.00" fill="#000000">hdr.distance_vec.isValid();</text>
</g>
<!-- 9&#45;&gt;14 -->
<g id="edge13" class="edge">
<title>9&#45;&gt;14</title>
<path fill="none" stroke="#000000" d="M470.2129,-688.3211C482.5578,-676.9038 495,-660.9454 495,-643 495,-643 495,-643 495,-481.2 495,-468.9794 498.6933,-456.1296 503.0534,-445.2178"/>
<polygon fill="#000000" stroke="#000000" points="506.3649,-446.3803 507.1582,-435.8152 499.9495,-443.5796 506.3649,-446.3803"/>
<text text-anchor="middle" x="516.3885" y="-575.4" font-family="Times,serif" font-size="14.00" fill="#000000">FALSE</text>
</g>
<!-- 11 -->
<g id="node12" class="node">
<title>11</title>
<ellipse fill="none" stroke="#000000" cx="198" cy="-417.8" rx="161.4217" ry="18"/>
<text text-anchor="middle" x="198" y="-413.6" font-family="Times,serif" font-size="14.00" fill="#000000">tiHandleIncomingArpReqest_part_one</text>
</g>
<!-- 10&#45;&gt;11 -->
<g id="edge14" class="edge">
<title>10&#45;&gt;11</title>
<path fill="none" stroke="#000000" d="M357.7016,-561.354C325.391,-532.3103 262.1983,-475.5071 225.7383,-442.7337"/>
<polygon fill="#000000" stroke="#000000" points="227.7264,-439.8146 217.9495,-435.7324 223.0468,-445.0205 227.7264,-439.8146"/>
<text text-anchor="middle" x="295.2742" y="-477" font-family="Times,serif" font-size="14.00" fill="#000000">TRUE</text>
</g>
<!-- 13 -->
<g id="node14" class="node">
<title>13</title>
<ellipse fill="none" stroke="#000000" cx="378" cy="-363.8" rx="133.1508" ry="18"/>
<text text-anchor="middle" x="378" y="-359.6" font-family="Times,serif" font-size="14.00" fill="#000000">tiHandleIncomingArpResponse</text>
</g>
<!-- 10&#45;&gt;13 -->
<g id="edge15" class="edge">
<title>10&#45;&gt;13</title>
<path fill="none" stroke="#000000" d="M378,-561.5722C378,-524.0453 378,-437.286 378,-392.184"/>
<polygon fill="#000000" stroke="#000000" points="381.5001,-391.9282 378,-381.9283 374.5001,-391.9283 381.5001,-391.9282"/>
<text text-anchor="middle" x="399.3885" y="-477" font-family="Times,serif" font-size="14.00" fill="#000000">FALSE</text>
</g>
<!-- 12 -->
<g id="node13" class="node">
<title>12</title>
<ellipse fill="none" stroke="#000000" cx="198" cy="-256" rx="161.5014" ry="18"/>
<text text-anchor="middle" x="198" y="-251.8" font-family="Times,serif" font-size="14.00" fill="#000000">tiHandleIncomingArpReqest_part_two</text>
</g>
<!-- 11&#45;&gt;12 -->
<g id="edge16" class="edge">
<title>11&#45;&gt;12</title>
<path fill="none" stroke="#000000" d="M198,-399.554C198,-371.6351 198,-318.0651 198,-284.8464"/>
<polygon fill="#000000" stroke="#000000" points="201.5001,-284.4275 198,-274.4276 194.5001,-284.4276 201.5001,-284.4275"/>
</g>
<!-- 12&#45;&gt;17 -->
<g id="edge17" class="edge">
<title>12&#45;&gt;17</title>
<path fill="none" stroke="#000000" d="M232.7012,-238.4117C273.5424,-217.7114 340.976,-183.5327 381.9625,-162.7587"/>
<polygon fill="#000000" stroke="#000000" points="383.6965,-165.8038 391.0339,-158.1609 380.5318,-159.56 383.6965,-165.8038"/>
</g>
<!-- 13&#45;&gt;17 -->
<g id="edge18" class="edge">
<title>13&#45;&gt;17</title>
<path fill="none" stroke="#000000" d="M378.3952,-345.6316C378.6747,-331.2234 379,-310.5743 379,-292.5 379,-292.5 379,-292.5 379,-200.5 379,-188.8772 384.7441,-177.9027 391.7658,-168.8294"/>
<polygon fill="#000000" stroke="#000000" points="394.5756,-170.93 398.4453,-161.0671 389.2696,-166.3641 394.5756,-170.93"/>
</g>
<!-- 15 -->
<g id="node16" class="node">
<title>15</title>
<ellipse fill="none" stroke="#000000" cx="510" cy="-256" rx="112.3438" ry="18"/>
<text text-anchor="middle" x="510" y="-251.8" font-family="Times,serif" font-size="14.00" fill="#000000">tiHandleIncomingRouting</text>
</g>
<!-- 14&#45;&gt;15 -->
<g id="edge19" class="edge">
<title>14&#45;&gt;15</title>
<path fill="none" stroke="#000000" d="M516.2106,-399.554C515.0028,-371.6351 512.6851,-318.0651 511.248,-284.8464"/>
<polygon fill="#000000" stroke="#000000" points="514.7263,-284.2669 510.7972,-274.4276 507.7328,-284.5695 514.7263,-284.2669"/>
<text text-anchor="middle" x="531.2742" y="-315.2" font-family="Times,serif" font-size="14.00" fill="#000000">TRUE</text>
</g>
<!-- 16 -->
<g id="node17" class="node">
<title>16</title>
<ellipse fill="none" stroke="#000000" cx="677" cy="-256" rx="36.4955" ry="18"/>
<text text-anchor="middle" x="677" y="-251.8" font-family="Times,serif" font-size="14.00" fill="#000000">tiDrop</text>
</g>
<!-- 14&#45;&gt;16 -->
<g id="edge20" class="edge">
<title>14&#45;&gt;16</title>
<path fill="none" stroke="#000000" d="M535.043,-399.554C564.0969,-370.1733 621.2422,-312.385 653.4623,-279.8025"/>
<polygon fill="#000000" stroke="#000000" points="656.1608,-282.0513 660.7035,-272.4798 651.1834,-277.1293 656.1608,-282.0513"/>
<text text-anchor="middle" x="642.3885" y="-315.2" font-family="Times,serif" font-size="14.00" fill="#000000">FALSE</text>
</g>
<!-- 15&#45;&gt;17 -->
<g id="edge21" class="edge">
<title>15&#45;&gt;17</title>
<path fill="none" stroke="#000000" d="M494.6429,-237.6706C479.0665,-219.0793 454.8614,-190.1894 437.6206,-169.6117"/>
<polygon fill="#000000" stroke="#000000" points="440.2645,-167.3175 431.1595,-161.9 434.8989,-171.813 440.2645,-167.3175"/>
</g>
<!-- 16&#45;&gt;17 -->
<g id="edge22" class="edge">
<title>16&#45;&gt;17</title>
<path fill="none" stroke="#000000" d="M649.1754,-244.1211C602.1883,-224.0612 507.0926,-183.4626 454.3514,-160.9462"/>
<polygon fill="#000000" stroke="#000000" points="455.5887,-157.6688 445.0175,-156.9613 452.8402,-164.1067 455.5887,-157.6688"/>
</g>
<!-- 17&#45;&gt;1 -->
<g id="edge23" class="edge">
<title>17&#45;&gt;1</title>
<path fill="none" stroke="#000000" d="M417,-126.6706C417,-109.2373 417,-82.7482 417,-62.5489"/>
<polygon fill="#000000" stroke="#000000" points="420.5001,-62.3566 417,-52.3566 413.5001,-62.3567 420.5001,-62.3566"/>
</g>
</g>
</svg>
