<?xml version="1.0" encoding="UTF-8" standalone="no"?>
<!DOCTYPE svg PUBLIC "-//W3C//DTD SVG 1.1//EN"
 "http://www.w3.org/Graphics/SVG/1.1/DTD/svg11.dtd">
<!-- Generated by graphviz version 2.40.1 (20161225.0304)
 -->
<!-- Title: ingress Pages: 1 -->
<svg width="623pt" height="1386pt"
 viewBox="0.00 0.00 622.55 1385.80" xmlns="http://www.w3.org/2000/svg" xmlns:xlink="http://www.w3.org/1999/xlink">
<g id="graph0" class="graph" transform="scale(1 1) rotate(0) translate(4 1381.8)">
<title>ingress</title>
<polygon fill="#ffffff" stroke="transparent" points="-4,4 -4,-1381.8 618.5484,-1381.8 618.5484,4 -4,4"/>
<g id="clust1" class="cluster">
<title>cluster</title>
<polygon fill="none" stroke="#000000" stroke-width="2" points="8,-8 8,-1369.8 599,-1369.8 599,-8 8,-8"/>
</g>
<!-- 0 -->
<g id="node1" class="node">
<title>0</title>
<polygon fill="none" stroke="#000000" points="265.3316,-1361.8 176.6684,-1361.8 176.6684,-1325.8 265.3316,-1325.8 265.3316,-1361.8"/>
<text text-anchor="middle" x="221" y="-1339.6" font-family="Times,serif" font-size="14.00" fill="#000000">__START__</text>
</g>
<!-- 2 -->
<g id="node3" class="node">
<title>2</title>
<polygon fill="none" stroke="#000000" points="291.3962,-1250.8 150.6038,-1250.8 150.6038,-1214.8 291.3962,-1214.8 291.3962,-1250.8"/>
<text text-anchor="middle" x="221" y="-1228.6" font-family="Times,serif" font-size="14.00" fill="#000000">hdr.ethernet.isValid();</text>
</g>
<!-- 0&#45;&gt;2 -->
<g id="edge1" class="edge">
<title>0&#45;&gt;2</title>
<path fill="none" stroke="#000000" d="M221,-1325.4706C221,-1308.0373 221,-1281.5482 221,-1261.3489"/>
<polygon fill="#000000" stroke="#000000" points="224.5001,-1261.1566 221,-1251.1566 217.5001,-1261.1567 224.5001,-1261.1566"/>
</g>
<!-- 1 -->
<g id="node2" class="node">
<title>1</title>
<polygon fill="none" stroke="#000000" points="351.8725,-52 276.1275,-52 276.1275,-16 351.8725,-16 351.8725,-52"/>
<text text-anchor="middle" x="314" y="-29.8" font-family="Times,serif" font-size="14.00" fill="#000000">__EXIT__</text>
</g>
<!-- 3 -->
<g id="node4" class="node">
<title>3</title>
<ellipse fill="none" stroke="#000000" cx="142" cy="-1106" rx="114.0247" ry="18"/>
<text text-anchor="middle" x="142" y="-1101.8" font-family="Times,serif" font-size="14.00" fill="#000000">tiHandleIncomingEthernet</text>
</g>
<!-- 2&#45;&gt;3 -->
<g id="edge2" class="edge">
<title>2&#45;&gt;3</title>
<path fill="none" stroke="#000000" d="M209.6812,-1214.6327C196.3059,-1193.1644 173.9353,-1157.2582 158.5997,-1132.6436"/>
<polygon fill="#000000" stroke="#000000" points="161.5564,-1130.7704 153.2978,-1124.1336 155.6151,-1134.472 161.5564,-1130.7704"/>
<text text-anchor="middle" x="203.2742" y="-1165.2" font-family="Times,serif" font-size="14.00" fill="#000000">TRUE</text>
</g>
<!-- 4 -->
<g id="node5" class="node">
<title>4</title>
<ellipse fill="none" stroke="#000000" cx="386" cy="-1106" rx="111.7835" ry="18"/>
<text text-anchor="middle" x="386" y="-1101.8" font-family="Times,serif" font-size="14.00" fill="#000000">tiHandleOutgoingRouting</text>
</g>
<!-- 2&#45;&gt;4 -->
<g id="edge3" class="edge">
<title>2&#45;&gt;4</title>
<path fill="none" stroke="#000000" d="M244.6405,-1214.6327C273.5975,-1192.3796 322.741,-1154.6135 354.782,-1129.9906"/>
<polygon fill="#000000" stroke="#000000" points="357.1389,-1132.5935 362.9354,-1123.7248 352.8735,-1127.0431 357.1389,-1132.5935"/>
<text text-anchor="middle" x="332.3885" y="-1165.2" font-family="Times,serif" font-size="14.00" fill="#000000">FALSE</text>
</g>
<!-- 5 -->
<g id="node6" class="node">
<title>5</title>
<polygon fill="none" stroke="#000000" points="463.4506,-1013 250.5494,-1013 250.5494,-977 463.4506,-977 463.4506,-1013"/>
<text text-anchor="middle" x="357" y="-990.8" font-family="Times,serif" font-size="14.00" fill="#000000">meta.cis553_metadata.forMe == 0;</text>
</g>
<!-- 3&#45;&gt;5 -->
<g id="edge4" class="edge">
<title>3&#45;&gt;5</title>
<path fill="none" stroke="#000000" d="M175.5938,-1088.6563C212.596,-1069.5528 272.2407,-1038.7594 312.9616,-1017.7361"/>
<polygon fill="#000000" stroke="#000000" points="314.578,-1020.8406 321.858,-1013.1431 311.3667,-1014.6206 314.578,-1020.8406"/>
</g>
<!-- 4&#45;&gt;5 -->
<g id="edge5" class="edge">
<title>4&#45;&gt;5</title>
<path fill="none" stroke="#000000" d="M381.2112,-1087.6706C376.6356,-1070.1569 369.6722,-1043.5039 364.3859,-1023.2701"/>
<polygon fill="#000000" stroke="#000000" points="367.7101,-1022.1471 361.7959,-1013.3566 360.9374,-1023.9166 367.7101,-1022.1471"/>
</g>
<!-- 6 -->
<g id="node7" class="node">
<title>6</title>
<polygon fill="none" stroke="#000000" points="411.2008,-886.2 290.7992,-886.2 290.7992,-850.2 411.2008,-850.2 411.2008,-886.2"/>
<text text-anchor="middle" x="351" y="-864" font-family="Times,serif" font-size="14.00" fill="#000000">hdr.ipv4.isValid();</text>
</g>
<!-- 5&#45;&gt;6 -->
<g id="edge6" class="edge">
<title>5&#45;&gt;6</title>
<path fill="none" stroke="#000000" d="M356.1403,-976.8327C355.1468,-955.8352 353.4997,-921.0261 352.3381,-896.479"/>
<polygon fill="#000000" stroke="#000000" points="355.8269,-896.157 351.8581,-886.3336 348.8347,-896.4879 355.8269,-896.157"/>
<text text-anchor="middle" x="375.3885" y="-927.4" font-family="Times,serif" font-size="14.00" fill="#000000">FALSE</text>
</g>
<!-- 16 -->
<g id="node17" class="node">
<title>16</title>
<ellipse fill="none" stroke="#000000" cx="314" cy="-145" rx="37.1367" ry="18"/>
<text text-anchor="middle" x="314" y="-140.8" font-family="Times,serif" font-size="14.00" fill="#000000">tbl_act</text>
</g>
<!-- 5&#45;&gt;16 -->
<g id="edge7" class="edge">
<title>5&#45;&gt;16</title>
<path fill="none" stroke="#000000" d="M463.572,-978.8368C509.9894,-968.6896 554,-953.337 554,-931.6 554,-931.6 554,-931.6 554,-651.1 554,-616.0558 576.6015,-612.623 585,-578.6 591.6677,-551.5886 590,-544.0222 590,-516.2 590,-516.2 590,-516.2 590,-200.5 590,-177.4045 439.5419,-158.1582 360.8026,-149.6674"/>
<polygon fill="#000000" stroke="#000000" points="360.9644,-146.165 350.6507,-148.5894 360.2252,-153.1259 360.9644,-146.165"/>
<text text-anchor="middle" x="596.2742" y="-610.4" font-family="Times,serif" font-size="14.00" fill="#000000">TRUE</text>
</g>
<!-- 7 -->
<g id="node8" class="node">
<title>7</title>
<ellipse fill="none" stroke="#000000" cx="150" cy="-741.4" rx="61.9789" ry="18"/>
<text text-anchor="middle" x="150" y="-737.2" font-family="Times,serif" font-size="14.00" fill="#000000">tiHandleIpv4</text>
</g>
<!-- 6&#45;&gt;7 -->
<g id="edge8" class="edge">
<title>6&#45;&gt;7</title>
<path fill="none" stroke="#000000" d="M322.2016,-850.0327C286.0235,-827.2098 223.9792,-788.0694 185.0729,-763.5256"/>
<polygon fill="#000000" stroke="#000000" points="186.5122,-760.2953 176.187,-757.92 182.7773,-766.2157 186.5122,-760.2953"/>
<text text-anchor="middle" x="278.2742" y="-800.6" font-family="Times,serif" font-size="14.00" fill="#000000">TRUE</text>
</g>
<!-- 9 -->
<g id="node10" class="node">
<title>9</title>
<polygon fill="none" stroke="#000000" points="471.1667,-759.4 230.8333,-759.4 230.8333,-723.4 471.1667,-723.4 471.1667,-759.4"/>
<text text-anchor="middle" x="351" y="-737.2" font-family="Times,serif" font-size="14.00" fill="#000000">hdr.arp.isValid() &amp;&amp; hdr.arp.oper == 1;</text>
</g>
<!-- 6&#45;&gt;9 -->
<g id="edge9" class="edge">
<title>6&#45;&gt;9</title>
<path fill="none" stroke="#000000" d="M351,-850.0327C351,-829.0352 351,-794.2261 351,-769.679"/>
<polygon fill="#000000" stroke="#000000" points="354.5001,-769.5336 351,-759.5336 347.5001,-769.5337 354.5001,-769.5336"/>
<text text-anchor="middle" x="372.3885" y="-800.6" font-family="Times,serif" font-size="14.00" fill="#000000">FALSE</text>
</g>
<!-- 8 -->
<g id="node9" class="node">
<title>8</title>
<ellipse fill="none" stroke="#000000" cx="129" cy="-560.6" rx="113.4644" ry="18"/>
<text text-anchor="middle" x="129" y="-556.4" font-family="Times,serif" font-size="14.00" fill="#000000">tiHandleOutgoingEthernet</text>
</g>
<!-- 7&#45;&gt;8 -->
<g id="edge10" class="edge">
<title>7&#45;&gt;8</title>
<path fill="none" stroke="#000000" d="M147.9097,-723.4032C144.2555,-691.9424 136.6796,-626.7178 132.3073,-589.0746"/>
<polygon fill="#000000" stroke="#000000" points="135.7435,-588.3217 131.113,-578.7923 128.7903,-589.1294 135.7435,-588.3217"/>
</g>
<!-- 8&#45;&gt;16 -->
<g id="edge11" class="edge">
<title>8&#45;&gt;16</title>
<path fill="none" stroke="#000000" d="M93.7079,-543.223C71.88,-529.738 48,-508.738 48,-481.4 48,-481.4 48,-481.4 48,-200.5 48,-178.3945 190.5932,-158.9071 266.9763,-150.0541"/>
<polygon fill="#000000" stroke="#000000" points="267.7547,-153.488 277.2931,-148.8763 266.9606,-146.5332 267.7547,-153.488"/>
</g>
<!-- 10 -->
<g id="node11" class="node">
<title>10</title>
<ellipse fill="none" stroke="#000000" cx="409" cy="-560.6" rx="161.4217" ry="18"/>
<text text-anchor="middle" x="409" y="-556.4" font-family="Times,serif" font-size="14.00" fill="#000000">tiHandleIncomingArpReqest_part_one</text>
</g>
<!-- 9&#45;&gt;10 -->
<g id="edge12" class="edge">
<title>9&#45;&gt;10</title>
<path fill="none" stroke="#000000" d="M327.1787,-723.2177C292.732,-694.7272 236.5155,-638.4945 269,-596.6 274.7416,-589.1953 289.045,-583.0473 306.4271,-578.053"/>
<polygon fill="#000000" stroke="#000000" points="307.6087,-581.3601 316.3657,-575.3964 305.801,-574.5976 307.6087,-581.3601"/>
<text text-anchor="middle" x="306.2742" y="-673.8" font-family="Times,serif" font-size="14.00" fill="#000000">TRUE</text>
</g>
<!-- 12 -->
<g id="node13" class="node">
<title>12</title>
<polygon fill="none" stroke="#000000" points="518.1667,-632.6 277.8333,-632.6 277.8333,-596.6 518.1667,-596.6 518.1667,-632.6"/>
<text text-anchor="middle" x="398" y="-610.4" font-family="Times,serif" font-size="14.00" fill="#000000">hdr.arp.isValid() &amp;&amp; hdr.arp.oper == 2;</text>
</g>
<!-- 9&#45;&gt;12 -->
<g id="edge13" class="edge">
<title>9&#45;&gt;12</title>
<path fill="none" stroke="#000000" d="M357.734,-723.2327C365.5867,-702.0469 378.6512,-666.8006 387.7619,-642.2211"/>
<polygon fill="#000000" stroke="#000000" points="391.0847,-643.3267 391.2785,-632.7336 384.5211,-640.8938 391.0847,-643.3267"/>
<text text-anchor="middle" x="397.3885" y="-673.8" font-family="Times,serif" font-size="14.00" fill="#000000">FALSE</text>
</g>
<!-- 11 -->
<g id="node12" class="node">
<title>11</title>
<ellipse fill="none" stroke="#000000" cx="216" cy="-383" rx="161.5014" ry="18"/>
<text text-anchor="middle" x="216" y="-378.8" font-family="Times,serif" font-size="14.00" fill="#000000">tiHandleIncomingArpReqest_part_two</text>
</g>
<!-- 10&#45;&gt;11 -->
<g id="edge14" class="edge">
<title>10&#45;&gt;11</title>
<path fill="none" stroke="#000000" d="M389.432,-542.5934C354.7527,-510.6812 282.4575,-444.1547 243.0433,-407.8855"/>
<polygon fill="#000000" stroke="#000000" points="245.3483,-405.2502 235.6198,-401.0543 240.6083,-410.4012 245.3483,-405.2502"/>
</g>
<!-- 11&#45;&gt;16 -->
<g id="edge15" class="edge">
<title>11&#45;&gt;16</title>
<path fill="none" stroke="#000000" d="M179.7819,-365.3498C172.5962,-360.3324 165.7991,-354.2245 161,-347 147.3735,-326.4869 151,-317.1266 151,-292.5 151,-292.5 151,-292.5 151,-200.5 151,-175.6611 219.6853,-159.6833 267.8832,-151.5291"/>
<polygon fill="#000000" stroke="#000000" points="268.5189,-154.9718 277.825,-149.9075 267.392,-148.0631 268.5189,-154.9718"/>
</g>
<!-- 13 -->
<g id="node14" class="node">
<title>13</title>
<ellipse fill="none" stroke="#000000" cx="303" cy="-329" rx="133.1508" ry="18"/>
<text text-anchor="middle" x="303" y="-324.8" font-family="Times,serif" font-size="14.00" fill="#000000">tiHandleIncomingArpResponse</text>
</g>
<!-- 12&#45;&gt;13 -->
<g id="edge16" class="edge">
<title>12&#45;&gt;13</title>
<path fill="none" stroke="#000000" d="M511.2866,-596.5924C541.1296,-590.7349 566.3784,-584.2823 571,-578.6 581.0957,-566.1872 580.1135,-555.7508 571,-542.6 558.0223,-523.8732 543.7404,-534.0311 523,-524.6 463.6973,-497.6339 431.8831,-507.9986 394,-455 370.4187,-422.0096 403.4375,-397.3613 379,-365 374.9212,-359.5986 369.8273,-354.973 364.2198,-351.0192"/>
<polygon fill="#000000" stroke="#000000" points="366.0307,-348.0237 355.6949,-345.6951 362.3226,-353.9609 366.0307,-348.0237"/>
<text text-anchor="middle" x="447.2742" y="-477.2" font-family="Times,serif" font-size="14.00" fill="#000000">TRUE</text>
</g>
<!-- 14 -->
<g id="node15" class="node">
<title>14</title>
<polygon fill="none" stroke="#000000" points="570.6093,-455 403.3907,-455 403.3907,-419 570.6093,-419 570.6093,-455"/>
<text text-anchor="middle" x="487" y="-432.8" font-family="Times,serif" font-size="14.00" fill="#000000">hdr.distance_vec.isValid();</text>
</g>
<!-- 12&#45;&gt;14 -->
<g id="edge17" class="edge">
<title>12&#45;&gt;14</title>
<path fill="none" stroke="#000000" d="M517.3119,-596.5547C547.7219,-590.7839 573.2519,-584.3917 578,-578.6 588.1438,-566.2265 586.3947,-556.2209 578,-542.6 568.6609,-527.4468 555.4009,-536.5658 542.223,-524.6 523.5498,-507.6443 508.758,-482.9633 499.2016,-464.1169"/>
<polygon fill="#000000" stroke="#000000" points="502.346,-462.5796 494.8128,-455.1297 496.0559,-465.6513 502.346,-462.5796"/>
<text text-anchor="middle" x="563.3885" y="-512" font-family="Times,serif" font-size="14.00" fill="#000000">FALSE</text>
</g>
<!-- 13&#45;&gt;16 -->
<g id="edge18" class="edge">
<title>13&#45;&gt;16</title>
<path fill="none" stroke="#000000" d="M283.5132,-311.1389C274.1625,-301.2284 263.9381,-288.0774 259,-274 253.7039,-258.9019 254.778,-253.4329 259,-238 265.8484,-212.9664 281.3599,-187.8267 294.1698,-170.0081"/>
<polygon fill="#000000" stroke="#000000" points="297.05,-171.9999 300.1914,-161.8814 291.4257,-167.8324 297.05,-171.9999"/>
</g>
<!-- 15 -->
<g id="node16" class="node">
<title>15</title>
<ellipse fill="none" stroke="#000000" cx="380" cy="-256" rx="112.3438" ry="18"/>
<text text-anchor="middle" x="380" y="-251.8" font-family="Times,serif" font-size="14.00" fill="#000000">tiHandleIncomingRouting</text>
</g>
<!-- 14&#45;&gt;15 -->
<g id="edge19" class="edge">
<title>14&#45;&gt;15</title>
<path fill="none" stroke="#000000" d="M484.1669,-418.936C479.454,-393.1624 468.1396,-345.1779 445,-311 437.0751,-299.2947 426.0013,-288.66 415.2368,-279.9293"/>
<polygon fill="#000000" stroke="#000000" points="417.1701,-276.9995 407.1227,-273.6379 412.8808,-282.5314 417.1701,-276.9995"/>
<text text-anchor="middle" x="481.2742" y="-324.8" font-family="Times,serif" font-size="14.00" fill="#000000">TRUE</text>
</g>
<!-- 14&#45;&gt;16 -->
<g id="edge20" class="edge">
<title>14&#45;&gt;16</title>
<path fill="none" stroke="#000000" d="M498.6393,-418.6849C510.7607,-397.8196 528,-362.2924 528,-329 528,-329 528,-329 528,-200.5 528,-166.3236 424.4397,-152.8388 361.4022,-147.7963"/>
<polygon fill="#000000" stroke="#000000" points="361.5114,-144.2946 351.276,-147.0305 360.9835,-151.2747 361.5114,-144.2946"/>
<text text-anchor="middle" x="549.3885" y="-251.8" font-family="Times,serif" font-size="14.00" fill="#000000">FALSE</text>
</g>
<!-- 15&#45;&gt;16 -->
<g id="edge21" class="edge">
<title>15&#45;&gt;16</title>
<path fill="none" stroke="#000000" d="M369.1014,-237.6706C358.3698,-219.622 341.8669,-191.8671 329.7177,-171.4344"/>
<polygon fill="#000000" stroke="#000000" points="332.5976,-169.4294 324.4784,-162.6228 326.5808,-173.0069 332.5976,-169.4294"/>
</g>
<!-- 16&#45;&gt;1 -->
<g id="edge22" class="edge">
<title>16&#45;&gt;1</title>
<path fill="none" stroke="#000000" d="M314,-126.6706C314,-109.2373 314,-82.7482 314,-62.5489"/>
<polygon fill="#000000" stroke="#000000" points="317.5001,-62.3566 314,-52.3566 310.5001,-62.3567 317.5001,-62.3566"/>
</g>
</g>
</svg>
