<?xml version="1.0" encoding="UTF-8" standalone="no"?>
<!DOCTYPE svg PUBLIC "-//W3C//DTD SVG 1.1//EN"
 "http://www.w3.org/Graphics/SVG/1.1/DTD/svg11.dtd">
<!-- Generated by graphviz version 2.40.1 (20161225.0304)
 -->
<!-- Title: ingress Pages: 1 -->
<svg width="577pt" height="1375pt"
 viewBox="0.00 0.00 577.00 1375.00" xmlns="http://www.w3.org/2000/svg" xmlns:xlink="http://www.w3.org/1999/xlink">
<g id="graph0" class="graph" transform="scale(1 1) rotate(0) translate(4 1371)">
<title>ingress</title>
<polygon fill="#ffffff" stroke="transparent" points="-4,4 -4,-1371 573,-1371 573,4 -4,4"/>
<g id="clust1" class="cluster">
<title>cluster</title>
<polygon fill="none" stroke="#000000" stroke-width="2" points="8,-8 8,-1359 554,-1359 554,-8 8,-8"/>
</g>
<!-- 0 -->
<g id="node1" class="node">
<title>0</title>
<polygon fill="none" stroke="#000000" points="242,-1351 156,-1351 156,-1315 242,-1315 242,-1351"/>
<text text-anchor="middle" x="199" y="-1329.3" font-family="Times,serif" font-size="14.00" fill="#000000">__START__</text>
</g>
<!-- 2 -->
<g id="node3" class="node">
<title>2</title>
<polygon fill="none" stroke="#000000" points="267.5,-1240 130.5,-1240 130.5,-1204 267.5,-1204 267.5,-1240"/>
<text text-anchor="middle" x="199" y="-1218.3" font-family="Times,serif" font-size="14.00" fill="#000000">hdr.ethernet.isValid();</text>
</g>
<!-- 0&#45;&gt;2 -->
<g id="edge1" class="edge">
<title>0&#45;&gt;2</title>
<path fill="none" stroke="#000000" d="M199,-1314.6706C199,-1297.2373 199,-1270.7482 199,-1250.5489"/>
<polygon fill="#000000" stroke="#000000" points="202.5001,-1250.3566 199,-1240.3566 195.5001,-1250.3567 202.5001,-1250.3566"/>
</g>
<!-- 1 -->
<g id="node2" class="node">
<title>1</title>
<polygon fill="none" stroke="#000000" points="283,-52 209,-52 209,-16 283,-16 283,-52"/>
<text text-anchor="middle" x="246" y="-30.3" font-family="Times,serif" font-size="14.00" fill="#000000">__EXIT__</text>
</g>
<!-- 3 -->
<g id="node4" class="node">
<title>3</title>
<ellipse fill="none" stroke="#000000" cx="125" cy="-1097" rx="104.7816" ry="18"/>
<text text-anchor="middle" x="125" y="-1093.3" font-family="Times,serif" font-size="14.00" fill="#000000">tiHandleIncomingEthernet</text>
</g>
<!-- 2&#45;&gt;3 -->
<g id="edge2" class="edge">
<title>2&#45;&gt;3</title>
<path fill="none" stroke="#000000" d="M188.2398,-1203.8239C175.7992,-1182.8095 155.2046,-1148.0213 140.9122,-1123.8787"/>
<polygon fill="#000000" stroke="#000000" points="143.8793,-1122.0202 135.7732,-1115.198 137.8557,-1125.5862 143.8793,-1122.0202"/>
<text text-anchor="middle" x="183" y="-1155.8" font-family="Times,serif" font-size="14.00" fill="#000000">TRUE</text>
</g>
<!-- 4 -->
<g id="node5" class="node">
<title>4</title>
<ellipse fill="none" stroke="#000000" cx="350" cy="-1097" rx="102.8821" ry="18"/>
<text text-anchor="middle" x="350" y="-1093.3" font-family="Times,serif" font-size="14.00" fill="#000000">tiHandleOutgoingRouting</text>
</g>
<!-- 2&#45;&gt;4 -->
<g id="edge3" class="edge">
<title>2&#45;&gt;4</title>
<path fill="none" stroke="#000000" d="M220.9567,-1203.8239C247.2745,-1182.0376 291.4755,-1145.4474 320.6904,-1121.2629"/>
<polygon fill="#000000" stroke="#000000" points="323.0345,-1123.8661 328.5057,-1114.7933 318.5708,-1118.4739 323.0345,-1123.8661"/>
<text text-anchor="middle" x="303" y="-1155.8" font-family="Times,serif" font-size="14.00" fill="#000000">FALSE</text>
</g>
<!-- 5 -->
<g id="node6" class="node">
<title>5</title>
<polygon fill="none" stroke="#000000" points="438,-1004 226,-1004 226,-968 438,-968 438,-1004"/>
<text text-anchor="middle" x="332" y="-982.3" font-family="Times,serif" font-size="14.00" fill="#000000">meta.cis553_metadata.forMe == 0;</text>
</g>
<!-- 3&#45;&gt;5 -->
<g id="edge4" class="edge">
<title>3&#45;&gt;5</title>
<path fill="none" stroke="#000000" d="M157.3438,-1079.6563C192.8195,-1060.633 249.9124,-1030.018 289.105,-1009.0016"/>
<polygon fill="#000000" stroke="#000000" points="291.0068,-1011.9534 298.1656,-1004.1431 287.6987,-1005.7844 291.0068,-1011.9534"/>
</g>
<!-- 4&#45;&gt;5 -->
<g id="edge5" class="edge">
<title>4&#45;&gt;5</title>
<path fill="none" stroke="#000000" d="M347.0277,-1078.6706C344.1876,-1061.1569 339.8655,-1034.5039 336.5843,-1014.2701"/>
<polygon fill="#000000" stroke="#000000" points="340.0324,-1013.6674 334.9767,-1004.3566 333.1227,-1014.788 340.0324,-1013.6674"/>
</g>
<!-- 6 -->
<g id="node7" class="node">
<title>6</title>
<polygon fill="none" stroke="#000000" points="388,-879 270,-879 270,-843 388,-843 388,-879"/>
<text text-anchor="middle" x="329" y="-857.3" font-family="Times,serif" font-size="14.00" fill="#000000">hdr.ipv4.isValid();</text>
</g>
<!-- 5&#45;&gt;6 -->
<g id="edge6" class="edge">
<title>5&#45;&gt;6</title>
<path fill="none" stroke="#000000" d="M331.5638,-967.8239C331.0705,-947.2723 330.2611,-913.5472 329.6837,-889.4893"/>
<polygon fill="#000000" stroke="#000000" points="333.1758,-889.1111 329.4368,-879.198 326.1778,-889.2791 333.1758,-889.1111"/>
<text text-anchor="middle" x="351" y="-919.8" font-family="Times,serif" font-size="14.00" fill="#000000">FALSE</text>
</g>
<!-- 17 -->
<g id="node18" class="node">
<title>17</title>
<ellipse fill="none" stroke="#000000" cx="246" cy="-145" rx="34.394" ry="18"/>
<text text-anchor="middle" x="246" y="-141.3" font-family="Times,serif" font-size="14.00" fill="#000000">tbl_act</text>
</g>
<!-- 5&#45;&gt;17 -->
<g id="edge7" class="edge">
<title>5&#45;&gt;17</title>
<path fill="none" stroke="#000000" d="M431.4085,-967.9413C472.1815,-957.6126 510,-942.8239 510,-923.5 510,-923.5 510,-923.5 510,-647.5 510,-612.6281 531.8216,-608.8993 540,-575 546.4315,-548.3413 545,-540.9235 545,-513.5 545,-513.5 545,-513.5 545,-200.5 545,-174.9314 373.7948,-156.2793 290.4858,-148.7168"/>
<polygon fill="#000000" stroke="#000000" points="290.5707,-145.2105 280.2991,-147.8076 289.9483,-152.1828 290.5707,-145.2105"/>
<text text-anchor="middle" x="551" y="-607.3" font-family="Times,serif" font-size="14.00" fill="#000000">TRUE</text>
</g>
<!-- 7 -->
<g id="node8" class="node">
<title>7</title>
<ellipse fill="none" stroke="#000000" cx="133" cy="-736" rx="57.3905" ry="18"/>
<text text-anchor="middle" x="133" y="-732.3" font-family="Times,serif" font-size="14.00" fill="#000000">tiHandleIpv4</text>
</g>
<!-- 6&#45;&gt;7 -->
<g id="edge8" class="edge">
<title>6&#45;&gt;7</title>
<path fill="none" stroke="#000000" d="M300.4999,-842.8239C265.1147,-820.2568 204.8233,-781.8057 167.044,-757.7118"/>
<polygon fill="#000000" stroke="#000000" points="168.7297,-754.6356 158.4164,-752.2094 164.9657,-760.5375 168.7297,-754.6356"/>
<text text-anchor="middle" x="258" y="-794.8" font-family="Times,serif" font-size="14.00" fill="#000000">TRUE</text>
</g>
<!-- 9 -->
<g id="node10" class="node">
<title>9</title>
<polygon fill="none" stroke="#000000" points="448.5,-754 209.5,-754 209.5,-718 448.5,-718 448.5,-754"/>
<text text-anchor="middle" x="329" y="-732.3" font-family="Times,serif" font-size="14.00" fill="#000000">hdr.arp.isValid() &amp;&amp; hdr.arp.oper == 1;</text>
</g>
<!-- 6&#45;&gt;9 -->
<g id="edge9" class="edge">
<title>6&#45;&gt;9</title>
<path fill="none" stroke="#000000" d="M329,-842.8239C329,-822.2723 329,-788.5472 329,-764.4893"/>
<polygon fill="#000000" stroke="#000000" points="332.5001,-764.198 329,-754.198 325.5001,-764.198 332.5001,-764.198"/>
<text text-anchor="middle" x="350" y="-794.8" font-family="Times,serif" font-size="14.00" fill="#000000">FALSE</text>
</g>
<!-- 8 -->
<g id="node9" class="node">
<title>8</title>
<ellipse fill="none" stroke="#000000" cx="120" cy="-557" rx="103.9815" ry="18"/>
<text text-anchor="middle" x="120" y="-553.3" font-family="Times,serif" font-size="14.00" fill="#000000">tiHandleOutgoingEthernet</text>
</g>
<!-- 7&#45;&gt;8 -->
<g id="edge10" class="edge">
<title>7&#45;&gt;8</title>
<path fill="none" stroke="#000000" d="M131.6819,-717.8515C129.4142,-686.6258 124.7583,-622.5184 122.0594,-585.3564"/>
<polygon fill="#000000" stroke="#000000" points="125.5368,-584.9168 121.3215,-575.1966 118.5552,-585.4239 125.5368,-584.9168"/>
</g>
<!-- 8&#45;&gt;17 -->
<g id="edge11" class="edge">
<title>8&#45;&gt;17</title>
<path fill="none" stroke="#000000" d="M81.4792,-540.1296C58.9893,-527.4035 35,-507.5007 35,-480.5 35,-480.5 35,-480.5 35,-200.5 35,-166.3943 139.4103,-152.8082 201.337,-147.7496"/>
<polygon fill="#000000" stroke="#000000" points="201.9287,-151.2144 211.6296,-146.955 201.3898,-144.2352 201.9287,-151.2144"/>
</g>
<!-- 10 -->
<g id="node11" class="node">
<title>10</title>
<ellipse fill="none" stroke="#000000" cx="377" cy="-557" rx="147.5738" ry="18"/>
<text text-anchor="middle" x="377" y="-553.3" font-family="Times,serif" font-size="14.00" fill="#000000">tiHandleIncomingArpReqest_part_one</text>
</g>
<!-- 9&#45;&gt;10 -->
<g id="edge12" class="edge">
<title>9&#45;&gt;10</title>
<path fill="none" stroke="#000000" d="M299.1644,-717.7899C257.744,-690.2468 191.5863,-636.5828 226,-593 232.5601,-584.692 249.3136,-578.0928 269.3865,-572.9361"/>
<polygon fill="#000000" stroke="#000000" points="270.239,-576.331 279.1459,-570.5936 268.6052,-569.5243 270.239,-576.331"/>
<text text-anchor="middle" x="268" y="-669.8" font-family="Times,serif" font-size="14.00" fill="#000000">TRUE</text>
</g>
<!-- 12 -->
<g id="node13" class="node">
<title>12</title>
<polygon fill="none" stroke="#000000" points="473.5,-629 234.5,-629 234.5,-593 473.5,-593 473.5,-629"/>
<text text-anchor="middle" x="354" y="-607.3" font-family="Times,serif" font-size="14.00" fill="#000000">hdr.arp.isValid() &amp;&amp; hdr.arp.oper == 2;</text>
</g>
<!-- 9&#45;&gt;12 -->
<g id="edge13" class="edge">
<title>9&#45;&gt;12</title>
<path fill="none" stroke="#000000" d="M332.6352,-717.8239C336.764,-697.1798 343.5514,-663.2431 348.367,-639.1648"/>
<polygon fill="#000000" stroke="#000000" points="351.8312,-639.6903 350.3604,-629.198 344.9671,-638.3174 351.8312,-639.6903"/>
<text text-anchor="middle" x="363" y="-669.8" font-family="Times,serif" font-size="14.00" fill="#000000">FALSE</text>
</g>
<!-- 11 -->
<g id="node12" class="node">
<title>11</title>
<ellipse fill="none" stroke="#000000" cx="189" cy="-383" rx="148.3739" ry="18"/>
<text text-anchor="middle" x="189" y="-379.3" font-family="Times,serif" font-size="14.00" fill="#000000">tiHandleIncomingArpReqest_part_two</text>
</g>
<!-- 10&#45;&gt;11 -->
<g id="edge14" class="edge">
<title>10&#45;&gt;11</title>
<path fill="none" stroke="#000000" d="M357.5888,-539.0343C323.8683,-507.8249 254.4069,-443.5362 216.0048,-407.9938"/>
<polygon fill="#000000" stroke="#000000" points="218.0221,-405.0918 208.3056,-400.868 213.2673,-410.2292 218.0221,-405.0918"/>
</g>
<!-- 11&#45;&gt;17 -->
<g id="edge15" class="edge">
<title>11&#45;&gt;17</title>
<path fill="none" stroke="#000000" d="M144.2642,-365.7398C136.1407,-360.7913 128.5095,-354.613 123,-347 108.5619,-327.0498 113,-317.1266 113,-292.5 113,-292.5 113,-292.5 113,-200.5 113,-180.5182 164.7757,-163.8653 203.7181,-154.166"/>
<polygon fill="#000000" stroke="#000000" points="204.9029,-157.4808 213.8044,-151.735 203.2627,-150.6756 204.9029,-157.4808"/>
</g>
<!-- 13 -->
<g id="node14" class="node">
<title>13</title>
<ellipse fill="none" stroke="#000000" cx="254" cy="-329" rx="122.3786" ry="18"/>
<text text-anchor="middle" x="254" y="-325.3" font-family="Times,serif" font-size="14.00" fill="#000000">tiHandleIncomingArpResponse</text>
</g>
<!-- 12&#45;&gt;13 -->
<g id="edge16" class="edge">
<title>12&#45;&gt;13</title>
<path fill="none" stroke="#000000" d="M466.6343,-592.9585C496.305,-587.0988 521.4073,-580.6534 526,-575 536.0885,-562.5814 535.0198,-552.2153 526,-539 513.6237,-520.8671 499.9906,-530.0746 480,-521 422.0771,-494.7062 390.3908,-506.4621 353,-455 329.1637,-422.1934 363.0396,-396.8977 338,-365 333.4199,-359.1655 327.7113,-354.2614 321.4391,-350.1424"/>
<polygon fill="#000000" stroke="#000000" points="322.9943,-346.9981 312.5899,-344.9987 319.4766,-353.0501 322.9943,-346.9981"/>
<text text-anchor="middle" x="404" y="-476.8" font-family="Times,serif" font-size="14.00" fill="#000000">TRUE</text>
</g>
<!-- 14 -->
<g id="node15" class="node">
<title>14</title>
<polygon fill="none" stroke="#000000" points="526,-455 362,-455 362,-419 526,-419 526,-455"/>
<text text-anchor="middle" x="444" y="-433.3" font-family="Times,serif" font-size="14.00" fill="#000000">hdr.distance_vec.isValid();</text>
</g>
<!-- 12&#45;&gt;14 -->
<g id="edge17" class="edge">
<title>12&#45;&gt;14</title>
<path fill="none" stroke="#000000" d="M472.6515,-592.9206C502.8928,-587.1479 528.2804,-580.7633 533,-575 543.1372,-562.6211 541.3342,-552.658 533,-539 523.8885,-524.0683 510.95,-532.759 498,-521 480.4562,-505.0697 466.2522,-482.2036 456.8231,-464.3497"/>
<polygon fill="#000000" stroke="#000000" points="459.7345,-462.353 452.085,-455.0225 453.4936,-465.5233 459.7345,-462.353"/>
<text text-anchor="middle" x="519" y="-509.8" font-family="Times,serif" font-size="14.00" fill="#000000">FALSE</text>
</g>
<!-- 13&#45;&gt;17 -->
<g id="edge18" class="edge">
<title>13&#45;&gt;17</title>
<path fill="none" stroke="#000000" d="M239.6667,-310.8251C232.5434,-300.6269 224.6858,-287.307 221,-274 211.3887,-239.3001 223.1323,-198.3517 233.5517,-172.0502"/>
<polygon fill="#000000" stroke="#000000" points="236.8194,-173.3077 237.4329,-162.7306 230.3573,-170.6165 236.8194,-173.3077"/>
</g>
<!-- 15 -->
<g id="node16" class="node">
<title>15</title>
<ellipse fill="none" stroke="#000000" cx="333" cy="-256" rx="103.1819" ry="18"/>
<text text-anchor="middle" x="333" y="-252.3" font-family="Times,serif" font-size="14.00" fill="#000000">tiHandleIncomingRouting</text>
</g>
<!-- 14&#45;&gt;15 -->
<g id="edge19" class="edge">
<title>14&#45;&gt;15</title>
<path fill="none" stroke="#000000" d="M437.6439,-418.9351C428.2669,-393.5744 409.1932,-346.5422 385,-311 377.7791,-300.3917 368.5003,-289.8734 359.7844,-280.92"/>
<polygon fill="#000000" stroke="#000000" points="362.2026,-278.3885 352.653,-273.7997 357.2566,-283.3421 362.2026,-278.3885"/>
<text text-anchor="middle" x="423" y="-325.3" font-family="Times,serif" font-size="14.00" fill="#000000">TRUE</text>
</g>
<!-- 16 -->
<g id="node17" class="node">
<title>16</title>
<ellipse fill="none" stroke="#000000" cx="488" cy="-256" rx="33.5952" ry="18"/>
<text text-anchor="middle" x="488" y="-252.3" font-family="Times,serif" font-size="14.00" fill="#000000">tiDrop</text>
</g>
<!-- 14&#45;&gt;16 -->
<g id="edge20" class="edge">
<title>14&#45;&gt;16</title>
<path fill="none" stroke="#000000" d="M448.3797,-418.9833C456.0889,-387.2708 472.1284,-321.2899 481.2587,-283.7315"/>
<polygon fill="#000000" stroke="#000000" points="484.6767,-284.4876 483.638,-273.9438 477.8748,-282.8341 484.6767,-284.4876"/>
<text text-anchor="middle" x="495" y="-325.3" font-family="Times,serif" font-size="14.00" fill="#000000">FALSE</text>
</g>
<!-- 15&#45;&gt;17 -->
<g id="edge21" class="edge">
<title>15&#45;&gt;17</title>
<path fill="none" stroke="#000000" d="M318.6337,-237.6706C304.1267,-219.1616 281.619,-190.4449 265.5047,-169.8854"/>
<polygon fill="#000000" stroke="#000000" points="268.1695,-167.6115 259.246,-161.9 262.6601,-171.9297 268.1695,-167.6115"/>
</g>
<!-- 16&#45;&gt;17 -->
<g id="edge22" class="edge">
<title>16&#45;&gt;17</title>
<path fill="none" stroke="#000000" d="M462.1018,-244.1211C418.549,-224.1444 330.5892,-183.7992 281.3786,-161.2274"/>
<polygon fill="#000000" stroke="#000000" points="282.6265,-157.9492 272.0778,-156.9613 279.7081,-164.3118 282.6265,-157.9492"/>
</g>
<!-- 17&#45;&gt;1 -->
<g id="edge23" class="edge">
<title>17&#45;&gt;1</title>
<path fill="none" stroke="#000000" d="M246,-126.6706C246,-109.2373 246,-82.7482 246,-62.5489"/>
<polygon fill="#000000" stroke="#000000" points="249.5001,-62.3566 246,-52.3566 242.5001,-62.3567 249.5001,-62.3566"/>
</g>
</g>
</svg>
